<mxfile host="app.diagrams.net" modified="2024-05-13T18:41:04.058Z" agent="Mozilla/5.0 (X11; Linux x86_64; rv:125.0) Gecko/20100101 Firefox/125.0" etag="64R3KgzCFAJMC0QGdYjZ" version="24.4.0" type="github">
  <diagram name="Page-1" id="l5kwONbk5efSGAeoIdga">
    <mxGraphModel dx="717" dy="396" grid="1" gridSize="10" guides="1" tooltips="1" connect="1" arrows="1" fold="1" page="1" pageScale="1" pageWidth="850" pageHeight="1100" math="1" shadow="0">
      <root>
        <mxCell id="0" />
        <mxCell id="1" parent="0" />
        <mxCell id="rfoxh8sL7PM3ER87yD67-4" value="" style="rounded=0;whiteSpace=wrap;html=1;labelBorderColor=none;fontColor=none;noLabel=1;labelBackgroundColor=default;strokeColor=none;" parent="1" vertex="1">
          <mxGeometry x="160" y="380" width="10" height="20" as="geometry" />
        </mxCell>
        <mxCell id="rfoxh8sL7PM3ER87yD67-6" value="" style="rounded=0;whiteSpace=wrap;html=1;fillColor=default;strokeColor=none;" parent="1" vertex="1">
          <mxGeometry x="170" y="420" width="20" height="30" as="geometry" />
        </mxCell>
        <mxCell id="4aMOz4v5QveASDhosOLI-1" value="" style="shape=image;imageAspect=0;aspect=fixed;verticalLabelPosition=bottom;verticalAlign=top;image=data:image/png,iVBORw0KGgoAAAANSUhEUgAAB6oAAAGqCAYAAACyOsq1AAAMQWlDQ1BJQ0MgUHJvZmlsZQAASImVVwdYU8kWnluSkEBoAQSkhN4EkRpASggt9I4gKiEJEEqMgaBiRxYVXAsqFrChqyIKVkAsKGJnUex9saCirIsFu/ImBXTdV7433zd3/vvPmf+cOXfunTsAqB3niES5qDoAecICcWywP31ccgqd9BSQgRHQBl7AmMPNFzGjo8MBLEPt38u76wCRtlfspVr/7P+vRYPHz+cCgERDnM7L5+ZBfAAAvJorEhcAQJTyZlMLRFIMK9ASwwAhXijFmXJcLcXpcrxHZhMfy4K4HQAlFQ5HnAmA6iXI0wu5mVBDtR9iRyFPIARAjQ6xT17eZB7EaRBbQxsRxFJ9RvoPOpl/00wf1uRwMoexfC6yohQgyBflcqb/n+n43yUvVzLkwxJWlSxxSKx0zjBvN3Mmh0mxCsR9wvTIKIg1If4g4MnsIUYpWZKQBLk9asDNZ8GcAR2IHXmcgDCIDSAOEuZGhiv49AxBEBtiuELQaYICdjzEuhAv5OcHxilsNoknxyp8oY0ZYhZTwZ/liGV+pb7uS3ISmAr911l8tkIfUy3Kik+CmAKxeaEgMRJiVYgd8nPiwhQ2Y4uyWJFDNmJJrDR+c4hj+cJgf7k+VpghDopV2Jfl5Q/NF9uUJWBHKvC+gqz4EHl+sHYuRxY/nAt2iS9kJgzp8PPHhQ/NhccPCJTPHXvGFybEKXQ+iAr8Y+VjcYooN1phj5vyc4OlvCnELvmFcYqxeGIBXJByfTxDVBAdL48TL8rmhEbL48GXgXDAAgGADiSwpoPJIBsIOvua+uCdvCcIcIAYZAI+sFcwQyOSZD1CeI0DReBPiPggf3icv6yXDwoh/3WYlV/tQYast1A2Igc8gTgPhIFceC+RjRIOe0sEjyEj+Id3DqxcGG8urNL+f88Psd8ZJmTCFYxkyCNdbciSGEgMIIYQg4g2uD7ug3vh4fDqB6sTzsA9hubx3Z7whNBFeEi4Rugm3JokKBb/FGUE6Ib6QYpcpP+YC9wSarri/rg3VIfKuA6uD+xxF+iHiftCz66QZSnilmaF/pP232bww9NQ2JEdySh5BNmPbP3zSFVbVddhFWmuf8yPPNb04Xyzhnt+9s/6Ifs82Ib9bIktxPZjZ7AT2DnsCNYE6Fgr1ox1YEeleHh1PZatriFvsbJ4cqCO4B/+hp6sNJP5jnWOvY5f5H0F/GnSbzRgTRZNFwsyswroTLgj8OlsIddhFN3J0ckZAOn+Iv98vYmR7RuITsd3bv4fAHi3Dg4OHv7OhbYCsNcdvv6HvnPWDLh1KANw9hBXIi6Uc7j0QoBfCTX4punB/csMWMP5OAE3uI/5gUAQCqJAPEgGE2H0WXCdi8FUMBPMA6WgHCwDq8A6sBFsATvAbrAPNIEj4AQ4DS6AS+AauANXTw94AfrBO/AZQRASQkVoiB5ijFggdogTwkB8kEAkHIlFkpE0JBMRIhJkJjIfKUcqkHXIZqQW2YscQk4g55Au5BbyAOlFXiOfUAxVQbVQQ9QSHY0yUCYahsajE9BMdApahJagS9A1aA26C21ET6AX0GtoN/oCHcAApozpYCaYPcbAWFgUloJlYGJsNlaGVWI1WD3WAp/zFawb68M+4kSchtNxe7iCQ/AEnItPwWfji/F1+A68EW/Hr+AP8H78G4FKMCDYETwJbMI4QiZhKqGUUEnYRjhIOAXfpR7COyKRqEO0IrrDdzGZmE2cQVxMXE9sIB4ndhEfEQdIJJIeyY7kTYoicUgFpFLSWtIuUivpMqmH9EFJWclYyUkpSClFSahUrFSptFPpmNJlpadKn8nqZAuyJzmKzCNPJy8lbyW3kC+Se8ifKRoUK4o3JZ6STZlHWUOpp5yi3KW8UVZWNlX2UI5RFijPVV6jvEf5rPID5Y8qmiq2KiyVVBWJyhKV7SrHVW6pvKFSqZZUP2oKtYC6hFpLPUm9T/2gSlN1UGWr8lTnqFapNqpeVn2pRlazUGOqTVQrUqtU2692Ua1Pnaxuqc5S56jPVq9SP6R+Q31Ag6YxRiNKI09jscZOjXMazzRJmpaagZo8zRLNLZonNR/RMJoZjUXj0ubTttJO0Xq0iFpWWmytbK1yrd1anVr92praLtqJ2tO0q7SPanfrYDqWOmydXJ2lOvt0rut8GmE4gjmCP2LRiPoRl0e81x2p66fL1y3TbdC9pvtJj64XqJejt1yvSe+ePq5vqx+jP1V/g/4p/b6RWiO9RnJHlo3cN/K2AWpgaxBrMMNgi0GHwYChkWGwochwreFJwz4jHSM/o2yjlUbHjHqNacY+xgLjlcatxs/p2nQmPZe+ht5O7zcxMAkxkZhsNuk0+WxqZZpgWmzaYHrPjGLGMMswW2nWZtZvbmweYT7TvM78tgXZgmGRZbHa4ozFe0sryyTLBZZNls+sdK3YVkVWdVZ3ranWvtZTrGusr9oQbRg2OTbrbS7Zorautlm2VbYX7VA7NzuB3Xq7rlGEUR6jhKNqRt2wV7Fn2hfa19k/cNBxCHcodmhyeDnafHTK6OWjz4z+5ujqmOu41fHOGM0xoWOKx7SMee1k68R1qnK66kx1DnKe49zs/MrFzoXvssHlpivNNcJ1gWub61c3dzexW71br7u5e5p7tfsNhhYjmrGYcdaD4OHvMcfjiMdHTzfPAs99nn952XvleO30ejbWaix/7Naxj7xNvTnem727feg+aT6bfLp9TXw5vjW+D/3M/Hh+2/yeMm2Y2cxdzJf+jv5i/4P+71merFms4wFYQHBAWUBnoGZgQuC6wPtBpkGZQXVB/cGuwTOCj4cQQsJClofcYBuyuexadn+oe+is0PYwlbC4sHVhD8Ntw8XhLRFoRGjEioi7kRaRwsimKBDFjloRdS/aKnpK9OEYYkx0TFXMk9gxsTNjz8TR4ibF7Yx7F+8fvzT+ToJ1giShLVEtMTWxNvF9UkBSRVL3uNHjZo27kKyfLEhuTiGlJKZsSxkYHzh+1fieVNfU0tTrE6wmTJtwbqL+xNyJRyepTeJM2p9GSEtK25n2hRPFqeEMpLPTq9P7uSzuau4Lnh9vJa+X782v4D/N8M6oyHiW6Z25IrM3yzerMqtPwBKsE7zKDsnemP0+Jypne85gblJuQ55SXlreIaGmMEfYPtlo8rTJXSI7Uamoe4rnlFVT+sVh4m35SP6E/OYCLfgj3yGxlvwieVDoU1hV+GFq4tT90zSmCad1TLedvmj606Kgot9m4DO4M9pmmsycN/PBLOaszbOR2emz2+aYzSmZ0zM3eO6OeZR5OfN+L3Ysrih+Oz9pfkuJYcnckke/BP9SV6paKi69scBrwcaF+ELBws5FzovWLvpWxis7X+5YXln+ZTF38flfx/y65tfBJRlLOpe6Ld2wjLhMuOz6ct/lOyo0KooqHq2IWNG4kr6ybOXbVZNWnat0qdy4mrJasrp7Tfia5rXma5et/bIua921Kv+qhmqD6kXV79fz1l/e4LehfqPhxvKNnzYJNt3cHLy5scaypnILcUvhlidbE7ee+Y3xW+02/W3l275uF27v3hG7o73WvbZ2p8HOpXVonaSud1fqrku7A3Y319vXb27QaSjfA/ZI9jzfm7b3+r6wfW37GfvrD1gcqD5IO1jWiDROb+xvymrqbk5u7joUeqitxavl4GGHw9uPmBypOqp9dOkxyrGSY4OtRa0Dx0XH+05knnjUNqntzslxJ6+2x7R3ngo7dfZ00OmTZ5hnWs96nz1yzvPcofOM800X3C40drh2HPzd9feDnW6djRfdLzZf8rjU0jW269hl38snrgRcOX2VffXCtchrXdcTrt+8kXqj+ybv5rNbubde3S68/fnO3LuEu2X31O9V3je4X/OHzR8N3W7dRx8EPOh4GPfwziPuoxeP8x9/6Sl5Qn1S+dT4ae0zp2dHeoN6Lz0f/7znhejF577SPzX+rH5p/fLAX35/dfSP6+95JX41+HrxG70329+6vG0biB64/y7v3ef3ZR/0Puz4yPh45lPSp6efp34hfVnz1eZry7ewb3cH8wYHRRwxR/YrgMGKZmQA8Ho7ANRkAGjwfEYZLz//yQoiP7PKEPhPWH5GlBU3AOrh/3tMH/y7uQHAnq3w+AX11VIBiKYCEO8BUGfn4Tp0VpOdK6WFCM8BmyK/puelg39T5GfOH+L+uQVSVRfwc/svm1d8nuUzGzkAAACKZVhJZk1NACoAAAAIAAQBGgAFAAAAAQAAAD4BGwAFAAAAAQAAAEYBKAADAAAAAQACAACHaQAEAAAAAQAAAE4AAAAAAAAAkAAAAAEAAACQAAAAAQADkoYABwAAABIAAAB4oAIABAAAAAEAAAeqoAMABAAAAAEAAAGqAAAAAEFTQ0lJAAAAU2NyZWVuc2hvdOcYGBIAAAAJcEhZcwAAFiUAABYlAUlSJPAAAAHXaVRYdFhNTDpjb20uYWRvYmUueG1wAAAAAAA8eDp4bXBtZXRhIHhtbG5zOng9ImFkb2JlOm5zOm1ldGEvIiB4OnhtcHRrPSJYTVAgQ29yZSA2LjAuMCI+CiAgIDxyZGY6UkRGIHhtbG5zOnJkZj0iaHR0cDovL3d3dy53My5vcmcvMTk5OS8wMi8yMi1yZGYtc3ludGF4LW5zIyI+CiAgICAgIDxyZGY6RGVzY3JpcHRpb24gcmRmOmFib3V0PSIiCiAgICAgICAgICAgIHhtbG5zOmV4aWY9Imh0dHA6Ly9ucy5hZG9iZS5jb20vZXhpZi8xLjAvIj4KICAgICAgICAgPGV4aWY6UGl4ZWxZRGltZW5zaW9uPjQyNjwvZXhpZjpQaXhlbFlEaW1lbnNpb24+CiAgICAgICAgIDxleGlmOlBpeGVsWERpbWVuc2lvbj4xOTYyPC9leGlmOlBpeGVsWERpbWVuc2lvbj4KICAgICAgICAgPGV4aWY6VXNlckNvbW1lbnQ+U2NyZWVuc2hvdDwvZXhpZjpVc2VyQ29tbWVudD4KICAgICAgPC9yZGY6RGVzY3JpcHRpb24+CiAgIDwvcmRmOlJERj4KPC94OnhtcG1ldGE+CvwIa9YAAAAcaURPVAAAAAIAAAAAAAAA1QAAACgAAADVAAAA1QAAvF19F1RaAABAAElEQVR4AeydCdxU0//Hv2XNVv2I+FkK2YVCIVq0oGyllLWktAhFPXqUsrSv/KiUylIoylbRopKtiJClBSU7f1oQ2uZ/v5N75555Zntm7sw8M/d9Xq+ac8699yzvc+bOc+/nfL+nVMAKQoAABCAAAQhAAAIQgAAEIAABCEAAAhCAAAQgAAEIQAACEIAABCAAAQhkiEAphOoMkaYaCEAAAhCAAAQgAAEIQAACEIAABCAAAQhAAAIQgAAEIAABCEAAAhAIEkCoZiJAAAIQgAAEIAABCEAAAhCAAAQgAAEIQAACEIAABCAAAQhAAAIQgEBGCSBUZxQ3lUEAAhCAAAQgAAEIQAACEIAABCAAAQhAAAIQgAAEIAABCEAAAhCAAEI1cwACEIAABCAAAQhAAAIQgAAEIAABCEAAAhCAAAQgAAEIQAACEIAABDJKAKE6o7ipDAIQgAAEIAABCEAAAhCAAAQgAAEIQAACEIAABCAAAQhAAAIQgAAEEKqZAxCAAAQgAAEIQAACEIAABCAAAQhAAAIQgAAEIAABCEAAAhCAAAQgkFECCNUZxU1lEIAABCAAAQhAAAIQgAAEIAABCEAAAhCAAAQgAAEIQAACEIAABCCAUM0cgAAEIAABCEAAAhCAAAQgAAEIQAACEIAABCAAAQhAAAIQgAAEIACBjBJAqM4obiqDAAQgAAEIQAACEIAABCAAAQhAAAIQgAAEIAABCEAAAhCAAAQgAAGEauYABCAAAQhAAAIQgAAEIAABCEAAAhCAAAQgAAEIQAACEIAABCAAAQhklABCdUZxUxkEIAABCEAAAhCAAAQgAAEIQAACEIAABCAAAQhAAAIQgAAEIAABCCBUMwcgAAEIQAACEIAABCAAAQhAAAIQgAAEIAABCEAAAhCAAAQgAAEIQCCjBBCqM4qbyiAAAQhAAAIQgAAEIAABCEAAAhCAAAQgAAEIQAACEIAABCAAAQhAAKGaOQABCEAAAhCAAAQgAAEIQAACEIAABCAAAQhAAAIQgAAEIAABCEAAAhklgFCdUdxUBgEIQAACEIAABCAAAQhAAAIQgAAEIAABCEAAAhCAAAQgAAEIQAACCNXMAQhAAAIQgAAEIAABCEAAAhCAAAQgAAEIQAACEIAABCAAAQhAAAIQyCgBhOqM4qYyCEAAAhCAAAQgAAEIQAACEIAABCAAAQhAAAIQgAAEIAABCEAAAhBAqGYOQAACEIAABCAAAQhAAAJ5QWDcuHGyYcMGWb16tWg8UihXrpwUFhYGD3Xv3j3SKeRBAAIQgAAEIAABCEAAAhCAAAQgAAEIZIAAQnUGIFMFBCAAAQhAAAIQgAAEIJAeAs8++6zY/5KpoUGDBtKuXTtp3rx5MpdzDQQgAAEIQAACEIAABCAAAQhAAAIQgECSBBCqkwTHZRCAAAQgAIFsEVBrQdtSsEePHhGbocKL/qtUqRLiS0RCZEIAArlOQMXpAQMGyLJlyzzpit4zx44dG7xvelIghUAAAhCAAAQgAAEIQAACEIAABCAAAQjEJIBQHRMPByEAAQiECAwZMiSYePrpp6O+FFcXohUqVEAcDGEj5iEBFadHjx4ddf7FqkrnZqdOnRBgYkHiGAQgkDMEWrRoEbSi9rrB6hZ86tSpwYU+XpdNeRCAAASyScDeGuG9996Lev9U7xJVqlSR+vXry2mnnZbN5lK3DwjwfO2DQaaLEIAABCAAAQhAIAECCNUJQOIUCEDAvwT0hY5abM2dOzcpCCoOtmrVynnRo5awagFrW8Oq9dagQYOc40lVwkV5T0CtBdu2bZuUQB0OZ/DgwcKerOFUSEcioPc9FQP1vuVF0PvdnDlzvCiKMnxMYO3atdK0aVNP7oexMOpc1TlLgEAkAtwfI1EhryQSsLdF0M/iBl24U1hYyN+NxQXH+TEJ8HwdEw8HIQABCEAAAhCAgC8JIFT7ctjpNAQgEI+APkD3799f9IW4F0H3vVQLhYKCgiIv1/UlkAqRlSwXzQQIhBPQF4sqFnoZ1EJm/vz5onOPAIFIBPQe2L59+0iHUsr74IMPWJiTEkEurlatWpHf0XRQ4bc5HVTzo0zuj/kxjvneC7VU1WcZLxab6f1Qt0XQ5xkCBJIlwPN1suS4LhMEdH7q/RKPE5mgTR0QgAAEIACBogQQqosyIQcCEPAxgUxZaoUjxso1nAhpJaAvGaPtQZ0qIV0YsWDBAhZIpAoyT69v2LBh0p4kYiFRa3693xEgkAyBdN4TI7VHF/Xo4goCBNwEuD+6aRAvaQTSeZ/kN7ykjXZutIfn69wYJz+2Eo8Tfhx1+gwBCEAAAiWVAEJ1SR0Z2gUBCGScQDosVxPthFoo6J6YBAjYBNJlsWWXr59YVrtpEHcTSJcQo1ZZa9aswZrfDZt4wgQStaZWl936T39bw72V6Atz/b1X182JbOuhVoTqEYUAAZsA90ebBJ8liUA6BWp3P/V+qPdFAgQSIcDzdSKUOCfTBPR+iceJTFOnPghAAAIQgEBsAgjVsflwFAIQ8AmBTL3ciYaTvVujkfFnvgoplStXzkjneeGYEcw5V0m6hBgFgfCXc9OhxDRY74t6f4wW9Ld00KBBCbuXV6FaXdzHKlOFbl1cQYCATYD7o02Cz5JCIBOLG919xROUmwbxaAR4vo5GhvxsEUjnnMTjRLZGlXohAAEIQCBfCCBU58tI0g8IQCBpApl+uROpoQjVkaj4Ny/Rl+D6QFylSpUi1n665/m8efNk1KhRMQUYm/CcOXOC1od2mk8IpPO+yP2O+ZUsgRYtWgStoSNdn+yiGxWp1btErH1c2Vs9EnH/5nF/9O/Yl9Sep3NORusz98VoZMhXAtmYk+Hk+XsznIh/0+kUqN1Uk/1b1F0GcQhAAAIQgIBfCSBU+3Xk6TcEIBAkoIKeuhJNNKgb0TPOOCOiO1FbHFy9enXw4TzRMvU8HqSLQyu/z1ULPxWqYwWdL2qVGu7SNtI1iTyYM/8ikSNP56IKg7EEvGQp8YI7WXL+vi7ab3aqLwbjvVDHetDf8y5S77k/RqJCXrYIxLuH2e3S7TcKCwuDSV3sGB7UTbMu3unRo0f4oSJp/nYsgoSMfwlE+62OBojn62hkyPeCQKL3Ry/q0jL4m9ErkpQDAQhAAAJ+I4BQ7bcRp78QgIBDQMUXtaLSFzLxgr4E14cOfcGTaFCBMFGLVl72JEo1/89TN7T6QB0tJDNXEnlAV9e2iQjf0dpFvv8I6L0zWRf1uMfz33zxqscqEBYUFIi+CNfg1QvB8uXLR12UkaoQ7lXfKSd3CHB/zJ2xyoeWxvs7T4VAvY/p35CJBH1G0r9HVbiOFfDIE4uOP4/xfO3PcS/JvY53f0xH21mQmw6qlAkBCEAAAvlOAKE630eY/kEAAlEJxBME9UIV7tRyNdEXO5EqS6SeZMTHSHWRl/sEYoklulBCBeXiLJiwicSbh16JPXZ9fOY/AbW40gU5yYRU5nIy9XENBOIRiLXlgoo8U6dOjVcExyHgEOD+6KAgkgEC8YSYQCCQVCvi/e3IvTEprHl9Ubw5o53n+Tqvp0CJ61y8+6PdYH02weOETYNPCEAAAhCAQOYJIFRnnjk1QgACJYBAIi7J9CF6wYIFwYfpVJsc74UlQnWqhPPjerVCUKE6WkjFCjXenE+l7GjtJT+/CcRaVKE913toLI8VughILbwIECgJBBCqS8Io5E8buD/mz1jmQk/iCTHJCtXxrGNV2Fm/fn0uIKKNGSAQ71lDm6B/G/J8nYHBoAqHQLz7Ix4nHFREIAABCEAAAlklgFCdVfxUDgEIZItAvNXe+uJFH7b1YdqrEOulJUK1V5Rzu5x4L3jUok8fppMNseYgVjHJUvXndfFe+ug9TUVo3eM6WtCtF9Q1HgEC2SagYoy6sdfPSAHX35GokBeNAPfHaGTITxeBWHMuVTFZPafE2rMaF7fpGtXcK5fn69wbMz+0ONb9Ufuf7EKeePOdZ2s/zC76CAEIQAACXhJAqPaSJmVBAAI5QSCRfQNTFQQjgVDBJtpebzzIRCLmvzzde1Wt+qKFVPcCVCEmmoUriyWiUSc/EoFY1qd6vm0tHWvO6Xm84FYKhGwTiCfEsDVCtkcot+rn/phb45UPrY210DHVZ4xYZSu7dDwz5cOY+K0PPF/7bcRzp7/pEqrxOJE7c4CWQgACEIBAbhBAqM6NcaKVEICAhwTivZBOl+VUrHp5Ce7hAOdwUel+GRjLojpd8z6Hh4OmRyEQ72WkWm/Ze6nHuu9p8cy7KJDJzhgBve/Wq1cvqjW1NoQFFRkbjpyviPtjzg9hznYg2gKJVBc5xpvT9sK0nAVHwz0hkK2/92LVy/O1J0Ob84XEEqrxOJHzw0sHIAABCEAgjwggVOfRYNIVCEAgMQLVqlULuvWOdrYKLF66/LbribbqNh1uxu06+cwtAjpHVEyOFlLZRzqeCJ5K2dHaS35+ElAXoPpiMFpwz6V4c9otakcrj3wIpIuAerFQbyc6T6MFXNRHI0N+JALcHyNRIS8TBPQ+1r9/f+f3WZ9lVKhTi+pUQry/HxGqU6GbP9fyfJ0/Y5lvPYl1D8PjRL6NNv2BAAQgAIFcJoBQncujR9shAIFiE4gnmqT6sBKvQfqgVFBQIPpyXIO6Wx40aJDoi3ACBJRArBc9qYh68fbRwnUj8y9RArEs87WM8MU+8eYeL7kTJc95XhFQ6xr9HY62HYe7HuanmwbxeAS4P8YjxPFcIxDLYlX7wt+PuTai3reX52vvmVKitwTwOOEtT0qDAAQgAAEIpIMAQnU6qFImBCBQYgnoS2m1nooWeNkSjQz5mSIQ74VgMntJx3J5pv1KRQDPFBfqKRkE4s2lSPMz3t7rWKyWjLHNp1aoq1q1LNT5mkqINJ9TKY9r85sA98f8Hl8/9i6WJaLNg60RbBL+/eT52r9jnys9x+NErowU7YQABCAAAT8TQKj28+jTdwj4kEA8EXD9+vVB0c6HaOhyCSGgD9KVK1eO6YpWxRO18kvERX28Oa/dZg+3EjL4OdCMaBYJdtOjLfbROa3iYbTAi+5oZMgvLgG9h+rih1jzLZEy2ZYjEUqc4ybA/dFNg3iuE9B7aN26dWPeS/U+qc9OBH8TiPeswfO1v+dHPvc+3tyP9lyUz0zoGwQgAAEIQCBZAgjVyZLjOghAICcJxHJBy8uWnBzSvGx0vIdeu9O6F3CVKlWkXbt2dlbwUy1g5s2bJ6NGjYr5glFPxpraQEciBgF9aa2Cc7QQ6x4ab07rHNbFFwQIpEog3lxLpHydy/Pnz2dbjkRgcU6QAPdHJkI+EUj0PpruLZPyiWk+94Xn63weXfoWjQAeJ6KRIR8CEIAABCCQHAGE6uS4cRUEIJCjBGI9SON+NkcHNU+bHWuvai+7zEpvL2nmd1k9evQQfXkdLcSyzI/nKYAFE9Gokl9cArF+5xMpSz1VTJ8+HZE6EVic4xDg/uigIJLDBNR9vW6boAsvEglz5swR9fJD8DeBWL+7PF/7e27ka+/1HonHiXwdXfoFAQhAAALZIoBQnS3y1AsBCGSFQCy3jOxFmZUhodIoBBJ5AI5yacLZapGt4iIBAvEIxBOa9fo1a9bEdEcf60WmXh9L6NbjBAgkQiBRS8BYZenfA7qIRxdQECAQjwD3x3iEOF7SCeh9MxEvPO5+YE3tpuHvOM/X/h5/v/U+0b8zuUf6bWbQXwhAAAIQSJUAQnWqBLkeAhDIKQI8SOfUcPm+sepSrF69ejH3q04WEq6WkyXnz+vUykqF5mghkZcx8VzkYXUTjS75xSHg1R7Valm9YMGCmIsvitMuzs1fAtwf83ds87lneq/UuaveAIob9P6ov+ks5ikuufw8n+fr/BxXemUSwOOEyYMUBCAAAQhAwGsCCNVeE6U8CECgRBPgQbpEDw+Ni0Ag0VXbES6NmoWb5ahoOBCFQKx7p16SqPvPeC7tEy0nSjPJhkCQgHqkUPe1+lIxlYBYnQo9/1zL/dE/Y50PPVWBecCAAfLss88m1R3ui0lhy+uLYt0D8ViW10Pvi87hccIXw0wnIQABCECgBBBAqC4Bg0ATIACBzBHgQTpzrKkpdQLpEKntVvGi0SbBZzwC8SyhdS6p2+9EQjzLQyz9E6HIOckQsK0H9driuLjF0j8Z2v65hvujf8Y6X3oa73c4Vj9VdBw7dqzo7z4BAjYBnq9tEnzmCwH7b0Y8TuTLiNIPCEAAAhDIBQII1bkwSrQRAhDwjAAP0p6hpKA0E0inSG03HbHaJsFnLAL6kkbnY7RQnL2l9cVP5cqVo7qzx9o/GmXyvSYwd+5cKSgoCLqvjVd2ceZ4vLI4nl8EuD/m13j6oTfJCtXcB/0wO5LrI8/XyXHjqpJHAI8TJW9MaBEEIAABCPiHAEK1f8aankIAAhYBHqSZBrlAQN0xtmjRIiNNxVowI5hztpJ4wnI6OsbL8HRQpcxoBBJZFMQCimj0/J3P/dHf45+rvS+uUN28eXPR32WsqHN1xNPfbp6v08+YGjJDoLj3R3er8DjhpkEcAhCAAAQgUHwCCNXFZ8YVEIBADhNQ8S/anmzsoZXDA5tHTS/Oi2+ds/qve/fuBgG1FPzwww8lUXdlCIMGPhIuAqm8sHEVU6woiyeKhYuTPSCQyDznPukB6DwrIpF543WXuT96TdR/5SU6b+2/L/WTAIFYBHi+jkWHY7lEINH7Y3if+BsxnAhpCEAAAhCAQPEJIFQXnxlXQAACOUygffv2og8gkYJaCiS6z2qk68mDgBcEErXu0z0C1colVlDRW+d8tMUZ9rVYC9ok+AwnEMtKJvxcL9Nz5swJLsLwskzKgkAsAvFcOCMQxqLnz2PcH/057rne63hCjP5t2a5dO36Dc32gM9h+nq8zCJuq0kog3v0xvHI8ToQTIQ0BCEAAAhBIngBCdfLsuBICEMhBAvFEwPXr14uKdgQIZINAItbUyewrHW/ea19ZCZ6NES/Zdeo+bdWqVctKI/UluS7GIEAgkwR0//S1a9dGrZK/EaKi8d0B7o++G/K86bB63dFFFtFCIBCIdoh8CEQkEO85g9/OiNjILIEEEhWq8ThRAgePJkEAAhCAQM4TQKjO+SGkAxCAQHEIxNv7V4URFUgIEMgGgXjzUxdR6MvxZPYJxFowGyOa23XGmzPp7h0vNtNNmPLDCcR72Y6lfzgx/6a5P/p37HO957oosnz58hG7oeKL3ucIECgOgXjPLzxfF4cm52aTQDyhGo8T2Rwd6oYABCAAgXwngFCd7yNM/yAAAYNArJczeiIvaAxcJDJMIN6L71SsnnXuq+tarAUzPKg5Wl0i1v3p7loq8z3dbaP8/CQQz0p26tSpcbdcyE8y9MpNgPujmwbxXCQQ7e9N7nG5OJrZbzPP19kfA1rgDQE8TnjDkVIgAAEIQAACyRBAqE6GGtdAAAI5TSDenoJYTOX08OZ049XNsgolkYIX+0hjLRiJLHmRCMSzKIh0jdd56jlgzZo1XhdLeRCISkAX8qj772gBq7BoZPyVz/3RX+Odr711/02ov7e6OEytBQkQSIYAz9fJUOOakkYg1qILDBpK2mjRHghAAAIQyDcCCNX5NqL0BwIQiEsg3gtGfVmjYmE696p2t0EfegYNGhS0do3beE7IawKx9kfVl4dq6ZJKiGctiAiTCt38ujbeC8cPPvjAk3tWvHpYOJRf86qk9ybePZL5WNJHMDPti3ff4v6YmXGgFghAoOQQcD/bRmoVz9eRqJBXEgngcaIkjgptggAEIAABPxBAqPbDKNNHCECgCIFYgqCe7IUoWKTSfzPat28v+jAfHrx6sRleLuncIRBrXnbv3j1o7ZJKb2KtEtdyEapToZs/18YT69SFvN6vvAjx9jVs165dcF56URdlQCAeAbeFYaRz1cJfX7YT/EuA+6N/x56eQwACsQnEeo7RK3m+js2PoyWHgPvvQf27D48TJWdsaAkEIAABCOQvAYTq/B1begYBCMQgEG/Vt16ajodp90NPePNwJxVOxH/pWC94EKr9Nx+y1eNolgR2e7xe0BBr3mud69evT6uHC7tffPqbgC7k0UUY6v47UlAvKzoXCf4mwP3R3+NP7yEAgegEeL6OzoYjEIAABCAAAQhAAAKxCSBUx+bDUQhAII8JxNoP2O62vrQeP368Jy5uo1lS23XxEtwm4d/PWO5EvVjIEM96Fbe2/p17ds9VrFPhWD8jBS/2Sg8vN9YCHj1XrRh0oQbB3wT0/qW/ozo3vbZu0TLr1asX3PYjGmWs+6OR8U8+90f/jDU9hQAEkiPA83Vy3LgKAhCAAAQgAAEI+J0AQrXfZwD9h4CPCajVlAoyiQR9QV1YWBh8OZ7I+e5z5s6dKwUFBTFfgOv5XrrTdddPPHcIxLPUStU9fIsWLUTFnmgBy9VoZPyTH88axgvL/nCaKv6UL18+PNtJqyipLpcJ/iUQbV7qb7MuZNAFFMkGXSjRv3//qIsz7HJZyGOT8O9ntHloE+H+aJPgEwIQ8CsBnq/9OvL0GwIQgAAEIAABCKRGAKE6NX5cDQEI5DiBeBam4d1TwaRTp07B7GgWfiq66MtMDYm8/A6eaP2H1aBNwr+f8eajzj/dHzMZUSae1SoLJfw57/SFYtOmTeMupIlFpzjijNZXt25d0c9kA/fKZMnl7nW6kEF/W6MFnYMVKlSQ+vXrx/WAovdCDatXr3Z+q6OVa+d74dHCLovP3CHA/TF3xoqWQgACJYdAvOeZ8JbyfB1OhDQEIAABCEAAAhDwHwGEav+NOT2GAATCCMQT8MJOT0sSkTAtWHOu0HhuRbVD+jJH9whW4STREM9SW8tB/EuUZv6cp94e1Mo+lgCYaG91Pk6dOjXmIgov62vevHmwvkTbx3m5S0DFwkS9n6Sjl7owSBcI6b2X4B8CXt6vuD/6Z97kQk91bquQaC+qtduszyKtWrViqw0bCJ8pEeD5OiV8XAwBCEAAAhCAAAR8RwCh2ndDTochAIFIBLL5MK0vvxcsWMBL8EgD48O8ROeivvjWfyrYRRJQ9AWkCpAqUscL6dh3OF6dHM8+Ad3vN/xFdSqtiuca2ev61B14pLmfSh+4tuQR0PtYLNfw6W6xLsDQ+yzBXwS8vl9xf/TX/CmpvdXffJ3bsYL+banzlQCBVAkk+kyTaj2Rrte/D3m+jkSGPAhAAAIQgAAEIFAyCSBUl8xxoVUQgEAWCBTXTZkXTVTrhenTpyO2eAEzT8pQUUbnRSqukYuLAmvq4hLLj/MRYvJjHP3QC6/naqLM1HuF7oNN8B8Br+ccQrX/5lBJ7HG8bRTsNrNAxybBZ6oEeL5OlSDXZ5IAHicySZu6IAABCEAAAiYBhGqTBykIQMDnBNS9Z0FBgehDSrqDvvzWl+AECIQTyORLHSxnwun7J40Q45+xzoeeNmzYMCO/zcpKvUyoUKP3R4I/CXB/9Oe453uvS5UqlVAXWcCYECZOSpAAz9cJguK0rBLA40RW8VM5BCAAAQhAQBCqmQQQgAAEIhBQoXDAgAHBfSkjHE4pS12I9uzZM2g1m1JBXJzXBBJ5WE4VgFpuz58/P+a+wqnWwfUllwB7sJbcsaFlkQlkwo1o9+7dpbCwkPti5CHwTS73R98Mta86ikW1r4a7xHWW5+sSNyQ0yEWA+6MLBlEIQAACEIBAFgggVGcBOlVCAAK5Q0BXgM+bNy+hfX5j9Uqts/TFd7T9hGNdyzH/EvDyRXk4RZ2LajFI8DcBdTHftGnTlBblqLCn1leJBK2vbt26Kbm2x9IrEdL5fY4K1np/1H9eBN3LslOnTkE33/p7TYCAEuD+yDzINwKJLILE006+jXrJ6w/P1yVvTGiRCB4nmAUQgAAEIACB7BJAqM4uf2qHAARyiIC+sNSV4BrivSBXEfCMM84InqsuvnnxHUTBf0kQ0HnXo0cPZ+4lUYRxiQoyKvTpHCVAAAIQyHUCKrxs2LAh2I2nn346oUUX7oUVutCCAAEIQMAvBPQZRp9n9N7pDuplp1WrVsI90U2FeLoJ8HydbsKUnygBLKoTJcV5EIAABCAAgfQQQKhOD1dKhQAEIAABCHhKQK0PVIRRS8JkglrIqDitCycIEIAABCAAAQhAAAIQgAAEIAABCEhw8U779u1josDjREw8HIQABCAAAQikRAChOiV8XAwBCEAAAhDIPAG1hFELhNWrVxexiLFbY1vGaBrrGJsKnxCAAAQgAAEIQAACEIAABCAAAZMAHidMHqQgAAEIQAACmSSAUJ1J2tQFAQhAAAIQgAAEIAABCEAAAhCAAAQgAAEIQAACEIAABCAAAQhAAAKCUM0kgAAEIAABCEAAAhCAAAQgAAEIQAACEIAABCAAAQhAAAIQgAAEIACBjBJAqM4obiqDAAQgAAEIQAACEIAABCAAAQhAAAIQgAAEIAABCEAAAhCAAAQgAAGEauYABCAAAQhAAAIQgAAEIAABCEAAAhCAAAQgAAEIQAACEIAABCAAAQhklABCdUZxUxkEIAABCEAAAhCAAAQgAAEIQAACEIAABCAAAQhAAAIQgAAEIAABCCBUMwcgAAEIQAACEIAABCAAAQhAAAIQgAAEIAABCEAAAhCAAAQgAAEIQCCjBBCqM4qbyiAAAQhAAAIQgAAEIAABCEAAAhCAAAQgAAEIQAACEIAABCAAAQhAAKGaOQABCEAAAhCAAAQgAAEIQAACEIAABCAAAQhAAAIQgAAEIAABCEAAAhklgFCdUdxUBgEIQAACEIAABCAAAQhAAAIQgAAEIAABCEAAAhCAAAQgAAEIQAACCNXMAQhAAAIQgAAEIAABCEAAAhCAAAQgAAEIQAACEIAABCAAAQhAAAIQyCgBhOqM4qYyCEAAAhCAAAQgAAEIQAACEIAABCAAAQhAAAIQgAAEIAABCEAAAhBAqGYOQAACEIAABCAAAQhAAAIQgAAEIAABCEAAAhCAAAQgAAEIQAACEIBARgkgVGcUN5VBAAIQgAAEIAABCEAAAhCAAAQgAAEIQAACEIAABCAAAQhAAAIQgABCNXMAAhCAAAQgAAEIQAACEIAABCAAAQhAAAIQgAAEIAABCEAAAhCAAAQySgChOqO4qQwCEIAABCAAAQhAAAIQgAAEIAABCEAAAhCAAAQgAAEIlBwCmzdvlrfeekvWrVsn27ZtS7phu+66qxx++OFy7rnnyp577plUOUuWLJFVq1aJtinZUKpUKalQoYKcfvrpcthhhyVVzMqVK+XDDz+UK6+8UsaMGZNUGXrRvvvuKyeccIKcdtppSZXxf//3f7J48WL5/vvvZceOHUmVoRftvvvuUrlyZalTp44on2TCG2+8IV9++aX8888/yVwevKZ06dJy8MEHS40aNYJjlExBy5cvl08++UQ2bdqUzOXBa2666SaZOnWqVK1aVY477rikyvn222/lvffek59//lkCgUBSZehF+l055phj5Oyzz06qDB0PHZu1a9em9P3dZZddgt8Xbcd+++2XVFuSuQihOhlqXAMBCEAAAhCAAAQgAAEIQAACEIAABCAAAQhAAAIQgAAEcpiACm333XefjB071vNedOjQQXr37i2HHHJIQmUPGjRI7rzzzoTOLc5JF1xwgfTo0UPq1q2b0GXPPfecNG/ePKFzi3vS6NGjRbkkEj7++GPp37+/TJkyJZHTi3XOHXfcIX379pW999477nW6cKFPnz7BtsQ9uZgnXHHFFdKzZ0+pVq1aQldOmDBB2rZtm9C5xT3pmWeeCS5KSOS6RYsWic7XWbNmJXJ6sc7R72OvXr0SukYF8nvvvVcefvjhhM4vzklt2rQJtuPII48szmVJnYtQnRQ2LoIABCAAAQhAAAIQgAAEIAABCEAAAhCAAAQgAAEIQAACuUng5ZdflksuuSTtjZ85c6ZcdNFFUetRS+FWrVqJin/pDIkIgF26dJGHHnoonc2Qpk2byrRp02LWkU5B1q746KOPlkmTJgUtm+288M+PPvpIrr76avn000/DD3maTkTAv+qqq+Tpp5/2tN7wwtTKOp71/ODBg6WgoCD8Uk/Tam2ufVUL+Ghh7ty50rBhw2iHPct/9tlnRRcUpDMgVKeTLmVDAAIQgAAEIAABCEAAAhCAAAQgAAEIQAACEIAABCAAgRJEYMGCBVKvXr2MtUjdEteqVatIfVu3bg26O166dGmRY+nIGDJkiKg1caSQCZHarjeWWP3UU08FxWH73HR/qotzdTsdHtQN/BFHHBGenbb0E088Iddee23E8lu0aCEqmGYidO7cOepihREjRki3bt0y0YxgHdHciat7/Jo1a2asHbNnz06rKI5QnbGhpCIIQAACEIAABCAAAQhAAAIQgAAEIAABCEAAAhCAAAQgkF0CJ598cnCPX3crRo0ZK9WrV5M9dt/DnV2s+D9b/pGlSz+Qzh3bF7kukuh28803F3Fb3Oee+619lGtL+XLlipSRaIbWtWr1annpxRdl8qQnjMs+//zzInsSR3L33e6mjtKgQYOk97jWStW1+h577CELF74uw4cOMtoxatQo6dixo5Gn+1Hr3trh4ZFxE6x9ro8X3QM82aB7fr/77nvSs8AU6tXNue7VHB4uv/xyeeGFF4zs+/sPkjPPPEP22WcfI784ie3bt8vnn6+Q9je2KXKZ7jmte3q7w4MPPii33nqrO0tuue12y5V7neBe2bonerLhu+++k7lz58nYMabrbPU20KRJE6NYdcV+yimnGHmaeOyJSVKlShXRvbeTDdrvt99+R+7pY7r8vu2220TF8fCgFtfvvvuukT1sxAPW97d6cL4ZB4qR2Lp1i3z00XLp0rmoe/pI399iFB3zVITqmHg4CAEIQAACEIAABCAAAQhAAAIQgAAEIAABCEAAAhCAAATyg8C4ceOkffuQkNyy1dUyetTDUq5cWc86+Ntv66Vjp84ydUrIVfP48ePlhhtucOpYu3ZtEdfGCxe9KbXPPcc5x4tI33v7GQJgy5Yti7iQLlWqlFHV8JEPStsbWht5qSZmzHxFrm51pVHMjh07JLxud/qmjjfL4EH9jWtSTaxZ87WcesrJRjGvvvqqNGrUyMlTC/jzzjvPSWtkyXtL5bhji1peGycVM3FXr7vloQdHOldFEkPdPPTECY89Kc2aXupc40XkiScnW+KsuWggXlsKevaSwp49vKjeKWPp+8vk/Lq1nbRG1O36CSec4OSFW9xfcunlMnz4MGuBwwHOOalG/vn7H+na7XZjkcfIkSOLLBhItR77eoRqmwSfEIAABCAAAQhAAAIQgAAEIAABCEAAAhCAAAQgAAEIQCCPCVxwwQWirnzt8MrsuXJBw/p20rPPly1h9pImob2pdZ9q3a/aDip8de3a1U7KuPET5UaPxWG78HCx8++//3YsT9X19XHHHWefKmpJPXSIaf3sHEwxMnzEg4Zo/vzzz8tll13mlHr88cfLihUrnPQXX37lqQBpFzzWstDufvttdlLC92ZW99ZuS9577x8gt97S2Tnfq8iWf7YY/VNX47qAwQ5z5swxBPSed90td4ZZhNvnpvrZs7C3jHroAaeYZcuWyamnnuqkw+fQRssKOh2hr+VRYMSwwU7R/fv3l549ezpp3S/avce5WnRffpn3e82/Z3lGqF+vjlPvueeem7Z95BGqHcxEIAABCEAAAhCAAAQgAAEIQAACEIAABCAAAQhAAAIQgED+EnALbq3btJWJEx5NW2eva32DPPn4RKd8t5Xq9ddfL7ovsR3c4rGd59Xn6EfGSacOISty3eP3zDPPDBY/ZcoUUStrOzw77Xlp2OB8O+np5xdffCXVq4XEzz59+kjfvn2Ddaj757JlQ1btt3e/U+7uXehp/e7CrmjW3HJ7vXPBwhlnnGG4kq5du7YhSqZLlNX2DBo8TPrff4/TtB9++EEqVqwYTA8ePFgKCgqcY2+89Y5UPflEJ+1l5HXLmt+9sGLixInSunXrYBWffPKJqLt8Owy02tyxQzs76fln2f32c8pUYdq9P3flypUdMf+K5lfK+PHjnHO9jtx+Rw95dOwYp1j399fJ9CCCUO0BRIqAAAQgAAEIQAACEIAABCAAAQhAAAIQgAAEIAABCEAAAiWdgFuovtOyIh3Q7960NVndIw8e2M8p3y10XXzxxTJjxoyIx5xMjyIzZr0qFze+0CnN3Q7NdDN5Z8l7csLxxzrnehnZsX2HlC9fzimyS5cuonsw28HdjiHDRkr7diFX6fY5Xn127txFJj35uFOcm4m7HXpCOoXqcLfb7nbceeedMmhQyLr9u+9/sPbH3ttps5eRtWu/llOqhsRodzu0HjeTSU89Ixe7vAV42Q4tyy1U16tXT1577TWnCnc7Ot18qwzof59zzOvI4CHDpd99fZ1iw5k4B1KMIFSnCJDLIQABCEAAAhCAAAQgAAEIQAACEIAABCAAAQhAAAIQgEAuEHALXdkUqps0aWK4Ak+XCKZjEi5Uu/dkHj16tHTq1MkZusXvLpXjj/N2L2a78FhC9ddffy2VKlWyTxW/CtWfffaZqAt0DdkUqocNGybqAl3DokWLRK3M7VBShOrOXW6T/mlcaBIuVG/evFnKlCljY/DsE6HaM5QUBAEIQAACEIAABCAAAQhAAAIQgAAEIAABCEAAAhCAAARKLgGEahGEapGSalGNUJ24RTVCdcm9z9IyCEAAAhCAAAQgAAEIQAACEIAABCAAAQhAAAIQgAAEIACBMAII1QjVOiUQqs0vRrjrbyyqRbCoNucIKQhAAAIQgAAEIAABCEAAAhCAAAQgAAEIQAACEIAABCAAgRQIIFQjVOv0Qag2v0QI1SYPTSFUF2VCDgQgAAEIQAACEIAABCAAAQhAAAIQgAAEIAABCEAAAhCAQJIEEKoRqnXqIFSbXyCEapOHphCqizIhBwIQgAAEIAABCEAAAhCAAAQgAAEIQAACEIAABCAAAQhAIEkCCNUI1Tp1EKrNLxBCtclDUwjVRZmQAwEIQAACEIAABCAAAQhAAAIQgAAEIAABCEAAAhCAAAQgkCQBhGqEap06CNXmFwih2uShKYTqokzIgQAEIAABCEAAAhCAAAQgAAEIQAACEIAABCAAAQhAAAIQSJIAQjVCtU4dhGrzC4RQbfLQFEJ1USbkQAACEIAABCAAAQhAAAIQgAAEIAABCEAAAhCAAAQgAAEIJEkAoRqhWqcOQrX5BUKoNnloCqG6KBNyIAABCEAAAhCAAAQgAAEIQAACEIAABCAAAQhAAAIQgAAEkiSAUI1QrVMHodr8AiFUmzw0hVBdlAk5EIAABCAAAQhAAAIQgAAEIAABCEAAAhCAAAQgAAEIQAACSRJAqEao1qmDUG1+gRCqTR6aQqguyoQcCEAAAhCAAAQgAAEIQAACEIAABCAAAQhAAAIQgAAEIACBJAkgVCNU69RBqDa/QAjVJg9NIVQXZUIOBCAAAQhAAAIQgAAEIAABCEAAAhCAAAQgAAEIQAACEIBAkgQQqhGqdeogVJtfIIRqk4emEKqLMiEHAhCAAAQgAAEIQAACEIAABCAAAQhAAAIQgAAEIAABCEAgSQII1QjVOnUQqs0vEEK1yUNTCNVFmZADAQhAAAIQgAAEIAABCEAAAhCAAAQgAAEIQAACEIAABCCQJAGE6thC9bPTnpeGDc5Pkm7sy3Zs3yHly5dzTurSpYs8+OCDwfTXX38tlSpVco4NGTZS2re7wUl7HclFofrLr9bIAQfs7zWKYHlL3l0qDevXc8oeNmyYdOvWLZhetGiR1K5d2zk26aln5OImFzlpryNl99vPKbJevXry2muvOWn397dzl9ukf797nWNeRxCqvSZKeRCAAAQgAAEIQAACEIAABCAAAQhAAAIQgAAEIAABCEDAxwTcQtdNHW+WMaP+lzYa7Tt0knGPjHbKDwQCTrxVq1byzDPPOGn3MSfTo8jExyfJDa2vdUp788035ZxzzgmmJ02aJNdeGzr20oxZUvu8Ws65Xka+/e57OfH445wiCwsLpV+/fsH0r7/+aomwB4SO9eojBT1ud9JeR6666hqZOeOlYLGnnHKKfPjhh04VZ599trzzzjtOeuOmTU7c68jIBx6SPr0LnWLXrVsnhx12WDB9//33S+/evZ1jHyz7SI46qrKT9jISLlQ/8sgj0r59+2AVy5Ytk2rVqjnVjXzwYWnjmk/OAY8ibqH60ksvlRdeeMEp2f39veqa62T0qIecY15Hehb2llEPPeAUm67vaCmr4NCdwamOCAQgkCoBXQGlK13Kli0rzZo1S7U4rocABCAAAQhAAAIQgAAEIAABCEAAAhCAAAQgAAEIpESgVq1a8tZbbzllrFlrWfIecbiT9iqy+osv5ZgqRzvFqUXqwoULnbQKtL169XLS0194SS6/9GIn7WWkzQ03ymMTxztF/vbbb5Zlc/lgOlyEvL37nXK3Szh1LvIgMn7CY9LttluckiZPnixXXXWVkz788MPlm2++cdLpEoiXf/KZ1Dq7plPPNddcI08++aSTVoF23LhxTnr+wkVSvdqpTtrLiFuU1XLdkuXzzz8vTZs2daobMGiodOq4Uzx2Mj2KDLTKHuCyTnYvZvj777+lTJkyTk1XtrxKxo4d46S9jMx7bYE0u/xSp8i77rpLVLC3w4UXXiivvvqqnZQ33nxbqlY9yUl7Fdm4cZMcftihTnEq1L///vtO2ssIQrWXNCnL1wRGDB8hjzyy8+akIrUdVqxcKUcccYSd5BMCEIAABCAAAQhAAAIQgAAEIAABCEAAAhCAAAQgkBUCgwcPloKCAqfuW267XR4YMdRJexW55dZu8r8HRzjFDR06VG6/PWQhrBa8p512mnNcI+kQzcc+OkFuatfWqadhw4Yye/ZsJ60Rt5Wqpic/PUWaNL5Qo56F9z/4UOrVOc8ob/369VKunOkK/KGHQhayve6+R7rf0dW4JtXE9m3bpWOnzjLlmaecotSy/corr3TSL730kqglrx2aNmtuWe4+LHuW2dPO8uQz3Jr6hhtukPHjQwsKwgVirXTOvPlS48zTPanfLmSuVeYVTS+zk8FPt2CuGZdddpm8+OKLzjnDRjwgN7Zt46S9iPz008/G4g4t8+2335azzjrLKX7UqFHW/uKdnXTbdjfJ8GFDnLRXkT5975ORw0Pl9u3bV/r06eNV8UY5CNUGDhIQSJ6AWk9v2LBB5lufEyZMCBakArUK1QQIQAACEIAABCAAAQhAAAIQgAAEIAABCEAAAhCAQLYJ/P7777Kfaw9cbc+117W2/l0ntc45S8rsmbwY+ZdlefrmW+/IE48/LpOefNzoarjwpwebN28uzz33nHHe409OlosuaJTSXsRa1/JPPpVnpjxrWMlqRa+//rqcd54pGI8ePVo6depktKPPPffLJRc3kSMrVzLyi5v44aefLAvY2YYltZZxzz33yN13320Ut2LFCjn++OONvHY3dQxyOu2UqrLrrrsax4qT+OPPP62xeVtaXdm8yGWRxibc/bdepHsz1z7vXGv+7FukjEQzVCj/8OPl0tfq+6JFC43LVq9eLUcffbSRpxbF/fv3N/J0/+6LLrpADv3vIUZ+cRNrLW8CL1uu3nsVhhZuaBlqTX7jjTcaxan+U79+fSOvQYNGcnffvnLSCcdL6V1KG8eKk/jtt/WyYOHrlnv664zL1Npere7dQceqcuXK4jaWbN6ipbSyzj27Zg0ps1fI8tt9XSLxLf9skXeXvm8tYphifYd3alz2dZs3bzasyu18Lz4Rqr2gSBkQcBGYNm2aXHP11cGcrt26FbmJuk4lCgEIQAACEIAABCAAAQhAAAIQgAAEIAABCEAAAhDIKIHwfZnTXXkkIVTrXLt2bVB0S3f9dvldunSRBx980E4an+piWl1NZypEY6KW5927d89UMwxX2+5KdY9qFaszFdS9tYrSkYJaFC9evDjSIc/zLr74YlGL8khBPQIMHz480qG05K1atUqqVKlSpOzp06dndLvZRx99VNq2DXklKNKgFDMQqlMEyOUQCCdQWFgoI/69WU2yVruwP3U4IdIQgAAEIAABCEAAAhCAAAQgAAEIQAACEIAABCCQTQIq2N56661pb4K6sna7Ko5UYbjr7UjnpJrXpk0bxxNqtLJUpJwxY0a0w57kq7vzDz74IGZZaml93333xTzHi4NTpkyRFi1aRC3qhRdekMsvvzzqca8O9OjRQwYNGhSzuJo1a8qSJUtinpPqwQYNGoj2ea+99opaVMeOHWXMmPTsT+2udMGCBVKnTh13lhFXq2/dSzzdYciQIXLHHXektRqE6rTipXA/Ejju2GMdtwvq6oQAAQhAAAIQgAAEIAABCEAAAhCAAAQgAAEIQAACEChpBObPnx90Qb1o0SLPm1a7dm3RfW1jiW12pT/++KP07NlTHnvsMTvL00917d2hQ4eEyhw4cGCwLQmdXMyTulkeWFWQTcSFt1rNqpXxsmXLillL/NMvueSSoBBetWrVuCd/9tln0rt3b9H2pCM8/fTT0rJly4SK1r3VdY/1dIRIrtij1aP7aIe7Bo92bnHzr7nmGunXr58cfvjhcS996623gvtGq1tyr4Naseue1I0aNfK66CLlIVQXQUJGrhAYMXyEdO3WNeXmajk33NBGypYrl3JZui+ACtUa2J86ZZwUAAEIQAACEIAABCAAAQhAAAIQgAAEIAABCEAAAmkm8N5778kbb7wh69atk23btiVdmwqw+l783HPPldNPP73Y5Wj9c+fOFd2r+a+//ir29fYFaqFdoUIFOeOMM+TCCy+0sxP+3LFjR9D9s4rEv/32W8LXRTpx3333lZNOOinYjvLly0c6JWaejou64f7+++9l+/btMc+NdXD33XeXo446SurWrVtkH+xY19nHVq5cKSqIfvnll/LPP//Y2cX+LF26tBx88MGiFtLaluKGTZs2ycyZM2X58uWi8WSDWvqrAH/KKaeIWtLvsccexS5q9uzZot+dn6x9yKO5ck+k0DJlysgxxxwT3ANb958ubtB5qnuvqyv9VL6/u+yyixx22GFSq1at4PgUtx3Jno9QnSw5rssqgc6dOgXddNxwww3y8KhRSbfFLueUU06V2bNfTVmsnjBhgmiZGvr3H+CJkJ5050rIhb/88ovov61bt5aQFqW/GZlwVZP+XkSvQVfa6aKMQw89VPTHK1fCxo0bRVdn/u0zTwf5Ph/33ntvOeSQQ0T/oMuVoA9a+nDxxx9/5EqTPWlnvs9FfaA56KCDpJwHC988AZ5AIfoQpS8B9CXCRx99lMAV+XFKvs/F3XbbTQ444IDgS5lcGrHvvvsu+AJIXwj5JeT7XNQXUP/5z3+Cv9O5NKY8v+TSaCXWVvv5RV+66bzMlbBhw4bgS08/Pb/k+31R514uPr/ob3Nxnl/8MI5e3EeyzWnPPfcMPr8kI8x40X/KKJkEtmzZIt9++21KQpcK1fqbq88lqYRvvvkmZaFan4uSEYbd7VYBUp/1VThPNqhQ/d///jfZy4PX6TukH374IWWhWkXQVO8/KobqXEk26N9jFStWlH322SfZIoLXKY/ff/896TJUGP7555/lwAMPTLoMvXD9+vXBclIVqvXdTCpB9Rd9x5OKDqPfX52rGX/PasEjQCCnCGxYvz5Q48wagT332CP4r1PHjkm1X6+zy9DyrBtsUuW4L3KXOW/ePPch38Stm3vA2t8kcNFFFwX233//gHVz5V8eM7BWnAVuueWWgOUmqMTNcWuFYeCJJ54IXHnllQHrD2TmYR7PQ73PHH300YHWrVsHpk2bVuLmojbopZdeClgugQLHHnssczHP56K1cCLQrFmzgOUGKmAtSihx89FaiR2wXI0FrD2xAtbDKfMxj+ejJRAGLBddgWHDhgWsl00lbi5++umnAcsNYMCytAhYD8HMxTyeizq+55xzTsDaZy/w8ccfl7i5aL3gCowcOTJgWdoE9HvD80v+Pr/p796pp54auO222wILFy4scXPReuEbmDhxYqB58+YB6wUhczGP74t6n7Fejgcs44uAtQ9miZuL2qBXXnkl0KlTp8DJJ5/M34x5Phct68qA5WY28NRTT5XIuUijMkPAcrcdqFOnjqe/PZalbPC9XHF6YLkfD7Rq1crTdpx44okBa6/nwObNmxNuiv38VKlSJU/bou+FPvzww4TboSfqe3bLKtzTduh7e8uNd7Ha8fLLLwcsd+GetqN69eqBESNGFKsdlhvygLVHtKftsATi4HuS4uhDlkV5wHLPHbAs5T1ti/4dWFxdafLkyYHzzz/f03ZYFtUBaw/sYo1NKierOToBAjlHIFWx2i0oq0it5XkRjrUeNFT8PujAg7woLqfKsCwPAl26dPH0hshLotx6SVSjRo0SIxLqHwoslMit+ePl991aHRp4+OGHS8Q99NFHHw0cd9xx3Bvz/OVOtPlrrQ4OWG6kApbbpazPR8stVlAQjNZW8vP/ntm+ffuAZZWQ9bn4wQcfBBdzMOfyf85FG+PLLrsssGTJkqzPRRWoVYSJ1k7y83+Onn322YEXX3wx63NRG2DtiRiwvLIwH336N6Muuh0zZkyJmIsqVnn90p37ae7cTy2rwsCAAQNKxFykEZkhoM8HDRo0SOvvjy6etbwnxe1Q165d09oONWLR5+J4wfKYmtZ26D1R31vGC++//36gWrVqaW2LGvdYnlviNSVw3XXXpbUduihq8eLFcdsxdOjQtLZDx2bs2LFx2zFnzpyAvntM5++bPqfEC6rHNG7cOK3tOO+88wJffPFFvKakfByhOmWEJacA2zo41U8VWxtbq2r0X8+ePYMWQV4IuboiRa2LtEwtW+uxfOcbAIcPG+5YS+txTUcLyYrVqYrU2g8tw7bqttupfbHZX3XVVdGanZf5Tz/9dMBypZLWm2I6b/yU7e1D0/XXX5+1ef7WW28F1MqbMfV2THOVp64mXLVqVVbmoz7spfuPxVwdFz+2Wy1mrD22sjIXtdIOHTpwX/Tpi+/w75vlbjSgL16yFfSFTHibSPv3N1st6rMVnnzySURB7ovO/aht27bZmooBay/BgFp6cS/0773QPfYq5nz11VdZmY+Wa2/PLeXcfSOeW3NcvU+8/fbbWZmLVJo5ArpoL5PfTWuf56id03eJmWrLrFmzorZj1KhRGWtHr169orZDF/dmikf9+vWjtkMPqNehTLVl6dKlUduizw6ZaofOg2hBPY5kqh3q7SJasLa4zFg7tL/pXvTOHtUW5XwJZay9RdIZdD/oHgUFwX0Mi1OP5c5CWl55ZXBPW/d1ui/04iWLg1kbrb2XGjW6wNof8UP3KcH4ipUro9YZfl28PavtPam14OLuS611FRYWBvfG1mvb39RetD7dq7dRw4ZiCSLBY1q2n/anHjhwoFiLD7TbRtC9Jq6+9nqpUuUYax+PA619SXY3jpeMhN7PvQ2lNz7vbYElqDRrK1MnbPyjlKz7cbt8+MkvMn/h206+O6J72qS6/4q7vHjxKVOmSMuWLSOe1vzyBnJ8lX3kkAqlpMwero5EPDvzmW62XtU+9yeRDdu8Kq1klePmVXqr9dfSpu2y6dtN8sachREbark6FstlTcRj6ch87733xHLVU+R3T+uqVf88KXt4OSm13y6y/ddtUurgXdPRhIyVWSqBmqr//qcc+uc/CZzpwSmJNMiDauwi3HNxS6CU/LR1F1m1fptMnf26fYrxaW1HINdee62Rl+6E5b5NrJfgRaqpXfN0OeWQsnLYXjukbOkd1h5VRU7JeoabrxeNWb25oizbdGjsokogh9gN/veo8dNmjaf8Jdu3/SpLlrwif/75R5EirId86dOnT5H8dGbo382WS9siVVSuXEWOPPJ0Kb1LeQmUKmMtpC5yStYz0jEtq/VQjgAAQABJREFUWlRcmrl+paMDMVpvj6EO5W/bdpGvN4ss+uwb+XzV6iJXWS8lxbLeK5KfzgzL9aNYbsiLVKF7dbaof5YctW8pqbDbDtktuDtCkdOymmGz9bIR239Lfn9BL9uR7rI2ldpFvtu+iyz/9U9ZsCTy9+/HH38M7kGZ7rbY5U+aNCnq3wXN69WSY/YqLQeW2i57BHbYl5SYz3Tcqvc46wApvU9u/20cbYDs7+5Hq7bL0YfvKt/+tEOWr1gvM195PeIl77zzjtSsWTPisXRkWlZ7weeXNWvWFCm+wfm1pOrx+8t/D9pFvli3VU49LhtjlNkfsq2fbZTtP/9VhEW+ZfwtpeWXHdbzyx9b5cXXI7/Xee6558Ta1ijfuk5//iVgebkRy7OIwaN9h85iLaCS3XdPfn/pf/7ZIp99+qmMfWSUUbY+C+szcXgYPny43H777UZ206ZXyJk1z5KyZfcz8ouT2LEjEHwvM3hgvyKXWVbEEr4/u94LTz/99CLn9rzrbjn44IpF8ouT8euvv8k9fXoVucQSzcUSgovkW66+xRJtjfzOXW4Ty1W/7LrrLkZ+cRKbN/8lnyz/WCY9+bhxWffu3WXw4MFGnibuuOMOsbaSMvJbXXWNVLW0kVT2MN6xY7tYC7PkoQdHGmVrwhJmi+RZbsfFcjteJL93n3vl+++/k5NPrlrkWKIZugf5gH73Fjn9k08+CX4X3Ac2bdokJ5xwglgeAtzZ0vX2HkH9qnTp5H+vfv/9D/ng/aUy7bmpRtkPPPCAWNtuGnmasAwlxTIeNPLbtG1nte9Ea24nr8Po/tYrV66SsWMeNsrW+8Xzz6dP90CoNnDndsIWqlUkrXpK6Mv58UcfWwLrTiFxxsyZcTu5wRJk1329TlT0iSQcJyvChovKdjl2fvXq1YJCuOVKQJo0buy0c9LkyTH/KLKvt9saTaxORaR2i+2Ryh8xfIQMGjRINm7cEGz3O4sXi7X60OlDvka0z3feeafRvRNPPEk6du4i117TSvbbd1/jmC8Sqyv4opvuTr69/HR5ctauMmb8DHe2VK1aVV577TWxrO2N/HQkrH1VIt4n+vW6XK5r9L0cetCX6ai2RJd52eIT5bXNyf/xWqI7F6VxJ2/aQ8qv2E1mTXipyBnWanA566yziuR7nbF8+fLg3A8v96LWl8iG47bJx+X+Dj+U9+nH1/0i56/dlPf9dHfwp93KyLSth8j9LywWax8s9yF5/PHHxXKbZeSlI2HtlyTWnmCiLzrdoXWTutK8wmY5558f3dm+iD+1/iwZuL6GL/pqd3JXaxHCkft8J+t/XSzvv2++gLRW8IsKdpkIrVu3Ds59d121zmkku+19mny56SB3tm/iHx9Z9KVMvnf+ld0Pk6nflpLn571hdFUXGoa/ZDFO8DBx//33i7Ulg1Fi9aonSZtTDpCm8o3stX2bccwPia2vl/ZDN40+LjmxnEwvta9MmL3IyLf2SZT58+fLfvvtZ+SnIxFpka0u9u7b+By57Ief5eAf/LGAwM32gMetPh+eocWN7oqzGP/0q5PlyVf2k0EPmEKRNkkXv0YSTLxurr6It1yuFim2a+dL5JoLNku1Yz8scizfM34ftq/8Y77eyPcuy9eH7ykv7V9B7p1h3he1488++6xcccUVec/Abx2cMWOGXHzxxUa3X1vwutSrc56Rl0pi3vyF0uD8ukYRlstksVyNG3mlwlZNPzx6rHTq0M44J5XE9z/8KHf2LJQnH5/oFKPvsy03905aIzrPp02b5uTdfMtt0qd3L9k9BdHPKezfyPARDxYRrMOF2dGjR4vl9tm5tEHDC+See++VE084zslLNTJj5itydasrjWI+/vjjIr8H4WMz8fEnpenllxrXpZJYaS1k7dunr8ya+bJTjLUnt1jbizppjejiLWvrICevsFcfKehhLm5wDiYR0THoe899MnL4UOdqnQ96/3OHu+66yzJQ7O9kXdnyKrm7z91y6H8PcfJSjUya/Ix07tjeKCZ8jixYsEDq1atnnPPCSzOkroff3yXvLpWG9c069PvRtGlTo16vEgjVXpEsAeXYQrWK0WrdawcVimzh9y9rtVCiwX3dw6NGSaF1Q7eF2EhibSLl1qxR0xG/VcytXKlS0JLa2g9Bunbr6hRh90UzYllU2xfEE6tTFakvsKy9te/R+q1f0muuvjrYHLeluN2+fPzUPof/oaoru+7te7f85z/l87HLifXJh0K1DWbq/FpyZYcX7GTw86KLLhJr/xcjz+vEp9YqTV1p+NdfoRXPakF9T4ctcnzlT72uLmfK86NQbQ9Ojf/bW17rFfojV/N11amuRrX2/rNP8/xz+/btwZdJurjJHRrcc6m8c9Dv7ixfxf0oVNsDvHb3fWXIzwfI5FkL7azgZyasZFT40Zfg7jDu+trSfOtad5av4n4Uqu0B3qV0QI7e+2OZO/cxOyv4qRbOKiKnM6j1trX3qlFFg4YdZeWmY4w8vyX8KFTbYzxajpKeT823k8HPSC8LjRM8SDzzzDPSqlUro6Rbmp4vPfZeK/v4UKC2QfhRqLb7/uJpB8mNM3Z6ebPz0m0tovXo34r6/LJtW2hhRIvzz5Vuf/8qR60NPdPYbfLLpx+FantsX//wTKnTYpadDH4ef/zxweeXvfbay8j3MqFzUOdi+PPL7MlNpOEZ5nfDy3pLell+FKrtMVl51F4yYpdyMm3BW3aWZVm7e3DhhBojEPKHQLg15sxXZstFFzT0vIMzZr0qFzcOWQxbrozF2oLFqUctrNXDjh363tvPEocL7aRnn+vXbyjyvtot/qlVbcWKFY36NlrWs+kIBXcWyphRDzlFL1y4UGrXru2kzznnHFFjCzu8+fZiOfmkE+ykZ59PPT1FOt4UWhCgHlPdImy4F6KRDz4sbVp77yFOxeozT6/u9Ou0004Ty/W5k9aFW2eeeaaTVqvhkSOGOWkvI2XDFitaW8Aann7DhftVq78IepL1sg1a1gMW67t77TQ81bQuXrC2dNNoMLRv317GjRtnJ2WyNZZNXN8z50CKkTffekcaX9jIKeXSSy+VF14w3/07B1OMIFSnCLAkXW6Lu+kQqlXgDheDbYvoRBmoi+zjjj02ePoRRxwRFKBVQC5riQbum6D+gXzWvy6O7PMSqSO8fbaonIpIrW229qIOitSxXIWrRbVttW7Xm0ibc/WcP//8U461xtLt5kJXMvW7r2+udsm7dvtYqFaISz6tLjUvn23wHDJkSNBVjJHpYaKh5Xrf2vvVKbHNtRfJo3e9L6VLb3fy/Bjxs1Ct413pr13lk65zjKFv06aNs0WDccCjxK233iq68tMdTh/aSFbss9Wd5bu4n4Vqe7Dv3HyUjHkhJMrUqFFDFlsL9tIVxo4dKzfddJNR/Mttasq5//xg5Pkt4Weh2h7rSru/JosWhUyE9rW836xYsUIOOcS7FeB2Xfr55ptvyrnnnuvOkvr1r7FcTIZeRBgHfZTws1Ctw3zPlqNlxHOvGSOuf89Ze+QZeV4l1q9fH3x++eWXX5wiL7FcKz9R8Rsn7deIn4VqHfN3LevqxnOWGcM/cuRI0b/r0hXCt+Vo26i2DPxkXbqqy5ly/SxU6yB9+9ORcti57xrjpX/PjRkzxsjzMqGuRP/3v/8ZRX45/xw58tCVRp7fEn4WqnWsd5QWKTjhMHnM5XVC71tqwUfIHwL6zn3dup2/Pc2uaCHPPWsucvayp02bNZfnpz8XLLJy5cpBl892+R07djTuc998+52n1ql2Pfo5cPAw6Vlwh5PltiB+6aWXREU4O4wbP1FaNG9mJz39fG/pB1K/Xh2nTN1Ws8DablWDul3WxSF2uKnjzTJ4UH876flnndp1ZNmynaLweeedZ2wbpi7JX331VafOdAn3WkGv3n3lfw8Md+pSj79ly5YNpvV3yu36Whc/nFvrbOdcLyMvvTxTrr26lVOkLnRVA0sNX375pRx99NHOsV533yPd7wgZXjoHPIhs2LBRjjj8MKck9cqn3vnsoO75P/vss2CyUaMLZWoav7833dRRnnl6sl11RNfszsEUIgjVKcAraZemW6jW/rrF4LJly1n+6lcEheZEWISLuUcfXUWWWn73J1uuvd3BfV5xxXB3+7RM/dFVsVlDLKE5eELYf+FlxXJBrntXj7D209AQ67ywKnI2qSus9EfUDvqjOWaU+XBjH/Pdp8+Fah3vue/VlIZXh16C77333vLNN99I+fLeW9o/9dRTcvW/3gy07gsbnSfThnwjZfb8XZO+Dn4XqnXwj/tjN1l6h7lwYtGiRUVEEy8mykcffVRky4ezB10kH5dN3JOJF+0oiWUgVO8clRv/7wh5bs4iZ4gefvhhw52XcyDFiK4KP/TQQ619mr53SprcupY03oIYg1C9c0ocu++H1gKv0EOuupXT+ZiO0KhRI1H3fnZo0KizrNwYeri38/346XehWsd8fOkj5fZJoZfe4S/HvJwXuu+h7n9oh86WJXW/Pb+wk77+9LtQrYO/oOr+0uKV0D6Q+tzy7bffSjosWdWThS5ut8PF550lY7/+SXbdFrCzfPvpd6FaB371uuPlmPpvGHNAFzfqIkevw7Jly6RatWpGsctfrScnHfmxkefHhN+Fah3zLXuUkvb/PUhmvvGOMwUy4YnHqYxI2gm4LUN73HmXDBpwf9rqvKNHTxk2JPQe2W3JrPsO6/7DdnAfs/O8+nzREiEvu6SJU5zbDfkjjzxiWKymy4pZK9+6Zau1TeL+Tjt0cZwuktOgiwdUz7CDiusdPXSDbpdrf3bs2FmemhyycHfzd88RPT+dQvXEx56U227pbDcruJhajeQ0hOsQX6/7xvKWuFPEdi7wKPLFF19J9WqnOqXp80PXrjvF6PBF2I89MUkuv+wS51yvI27rbl3M6zbSco9Nx05dLJ2mn9fVO+UNHDTU2MM70v7uzskpRBCqU4BX0i7NhFCtfXZbPBdHSFYxafq/+zzodbq/cSSh231euHV4IszDBWa9priiul7jtsRu2qxZEUFdz7GDWorbgnhx3Kvb1+fSp+55qXsO//HHH8FmH3zwIdaCg/flkINN9yi51CdP24pQHcTZ7/FzpVe/5x206jVB/7DwOoS7w3l96oVy3qnveV1NTpaHUL1z2M79uqy8MiA0F9O1D6a64NEHGzs0vuNyef3ojXbS158I1TuHf/ke/5FzJy5z5sIJJ5wgunWB1yF8P6seLc6Xwl0RY5QzQvXO2ab7Vu/75zPWdjyh38sff/zRcll2kKfT8a233pJatWo5ZdaufYms+aeuk/Z7BKF65wzosvFIeXJmSKx2vzD0ao5sstw2VqhQQbZs2RIsssqRR8qcWrtI+W07017Vk6vlIFTvHLmRpx0m/Vx7sw4dOlR0gYPXQfccft96frbDqw1Oleqf8Tej8kCo3jkrnpx9rlzXJfT8oi5xH3vssZ0HPfy/Xbt28uijjzolPjr8cmnbxBTJnYM+iyBU7xzwpSeUlQvnfuiMfvXq1YPu6J0MIjlNwC103VnY2xCivO5YQc9eMtglpLnF0CZNmhhbBrqPed2OcDfkai2sC2s1hD9HL7b25z3+uGO8bkKwvB3bd1jGPOWcsnU/Zts7n+oLlSpVco4NGTZS2rcLLXBzDngU6dy5i0x6MrSI2c3fPUe0unQK1U88OVm6dO7o9EqthXULDA26RZDqSHb47vsfZJ999raTnn6uXfu1nFL1ZKfMYcOGSbdu3YJpNXxxu2if9NQzcnGTi5xzvY64hWrdj1q36bWDe2x0K9b+/e61D3n+OXjIcMOL7ubNm6VMmTKe14NQ7TnS7BWYKaFae2iLuMXZj7niQRWDLrR1VVC5cuWle4/u0swSgMODLfrqebo/dTLBbp99bTyh2T7P/nSL8Zqn+2mfempoNY19nn7qD4jt0lz3BldxPZ+D7iOi7ibsMHjoCOl++212kk+E6uAc+GNzeTmywQax3SuefPLJoi51vAzLly8X9x5JHW9sIqN6pM+Vrpdtz0RZCNUhyqe/VEoWzgr9Qbdx40bZL2zfmdDZycXUJZG+CNdwVu1zZHmrPZIrKA+vQqgODep9lqvbYS5Xt6+//rqoBaGXQR+c9AHKDp+2Pl7+u2WznfT1J0J1aPiPKbtO5s0e4WToixF9QeJlCHcnel793rL2j/94WUVOl4VQvXP4Fu95kFwwIeTqtm3btoZw4sUgjx8/Xm688UanqOHX1JUbdnzlpP0eQajeOQPW/2dXqbr6G1ErEQ0qKOueiF6GpUuXBvcDtsvsfGFt6fvxOjvp+0+E6tAUuPi2k2TGrIXBjN12201+//132WMP754vtm/fHnwe0pfNGho1OFdeffjzYJz/RBCqQ7Ogb9XD5eFXXncy3n33XeM+5hwgknME3EIXQjVCtT2BEaoRqu25YH8iVNsksvipYuWC+Qus1Qrz5P/+71fL6uDDlFtTHAvk4laWSaF6mmUZfc2/7nYTsSDWFR9NGjd2uhRNOHYLxNHOcQqJEgkXqe3TirN3tNuqO54Yn4qrcrttufSpIrWK1XZQdxuHH3aoneQTodqZA3c+fI4MeuBFJ617eRxpWbB4FdT9itvK4dUnL5ZGNd7xqvicLwehOjSEtb8oKzOHhqwS9DesadOmoRNSjM2fP190oZIdmtxyuSw8AcsYmwdCtU1CZOkeFaT+xJBr0V69esl9990XOiHFmO7B+p//hITADpfVk4F7fZliqflzOUJ1aCx3K71d1izuITt27AhmXnzxxaL7snkZ1FXbqlWrgkXWqFFHfih1qZfF53xZCNWhIbzmh0NlxoK3ghm6dYFuGeNl0H3lpk6d6hT5xfXHygFb2ZrDBoJQbZMQue+Uw+XBWSFBRt1///e//w2dkGJMt89ye5l6sVE1OfuT9SmWmj+XI1SHxnL0C+dJpx7TnYwZM2ZIY9c7NedAkpHZs2fLBRdc4Fz94ICm0qVZaKGjc8CnEYTq0MC/c1J5uWT2B07G/fffL3fddZeTJpK7BBCqJbj/MhbVWFS7v8VYVLtp7IwjVBdlkrGcCRMmyNhHxnoiTIc3Ol+EarcVcSxrY7v/bjE3lhtu93kPjxpl7N1klxXr0y1Saz2Tn5osdxXe5YxlomK1bf2tdcUbM9sCXM9NxlW5XpdLQd1urFixItjkSy69XF58IfTwlEv9SFtbEaodtC+9ebZcekPopbe+IGzevLlzPNWILijRPartsPWzQ2TXXXHhaPNAqLZJFN2rWl8Qqjt6r8LgwYOloKDAKa7WwMbyYbm/nLTfIwjV5gw4a+nu8vmq1cFMfShWd2NehXnz5kmDBg2c4sZdX1uab13rpP0eQag2Z8BRZd6QBQt2/h1XsWJF+eGHH8wTUkj9+uuvwa1i7CIaNGwrKzedZCf5tAggVIemwYgdR8k9z8x3MnRvvsMOO8xJpxrRhZJr1qwJFnNFw/Pk0QO+TrXIvLoeoTo0nLNOPVCun7nEyXjxxRdF9870KlxxxRWiCyY17L///rJiz/28KjovykGoDg3jqq9PkGMbhITjvn37Sp8+fUInpBjr16+f6IJJO3zyal058cjldtL3nwjV5hQ4aeuf8tPPPwczL7vsMnn++dAicPNMUrlEAKEaoVrnK66/zW8tQrXJQ1MI1UWZpD1HrXk73NTBETXTUWE80TOVOjNpUa3tjFZfpD64xdxYYrFaXdv+9tXtt7r/TjS4RWq1gp49+1UpW66chO9ZHat+rcttLa7pWOKzW1hPxVW51pMrQd1Obdu2LdjcbncUyLAhA3Ol6ZlpJ0K1w3nNd1XkyLohC+cBAwYE9xVxTkgxUqNGDVG3UxoaX1hHZjzwSYol5tflCNXmeP7RIfQCvEWLFjJlyhTzhBRSN910k4wdO9YpoezoerK9lJP0fQSh2pwCHddXlqdfWRjMPOqoo+SLL74wT0ghpfuk637pdljUpppU/edXO+n7T4Rqcwocu99nMnfOOCfTy20R9PdZf6ftcH7D22X1pkPtJJ8WAYTq0DR4affD5brH3nAyFixYIHXq1HHSqUS2bt0qu+++u1NEjxbnS+Gu3t13nYJzOIJQHRq81ZX3krPf/NTJUA9OXbt2ddKpRnQ7sY8++ihYzGV1zpFxq79Ptci8uh6h2hzOUsf8n5Nx7bXXyhNPPOGkU420adPG2Pc6sOqAVIvMq+sRqs3h7HDMITLtX88nJ554onzyCe9eTEK5mUKoRqjWmYtQbX5/EapNHppCqC7KJK05akVd2LMwuIdypIrUOvf006tHOlSsPHVnrUJpOkI04djtdjsRN9122+JdF60++3r70219rXmxLLDtMosr+kYTqe02FEesdovPen00ZlqmvoDT/mlI1lV58OIc+S/cpWi/AYOl8M7uOdL6DDUTodoB/fc/e0uZk0MWK+qme+jQoc7xVCNu65jW11wkE+8O7W+Yatn5cD1CtTmKbqG6bt26ou66vQrqRty9qnyfMfW8KjovykGoNoex999Hy/+mh/ZMd+8BZZ5Z/FS4dcyK1sdJxS1Y99skEaptEjs/jy27RubOftDJ9HKLjlmzZhkuSms36CVrft/fqYsIQrV7DoTvU/3ss8+KWp56EX788Uc5+OCDnaIGXlVPOghbIjhArAhCdYjGxrK7yNGfhRYyFBYWiv62ehXUtf13330XLK5to9oy8JN1XhWdF+UgVJvD6Baq1U33K6+8Yp6QQqpJkyYyc+ZMpwSEagdFMIJQbfK46+TDZeyrrwczDzzwQPnpp5/ME0jlJAGEaoRqnbgI1ebXF6Ha5KGpnBCq3UJm0S5Ez3FbFdvCZPSzY1u0xrou0WMqUqvQGR5ULL3JsrBu2qxpsSx7w8vJVNpmGW4B7B6naKJrpDbGuk5FWnURqCG8vvCy3Hxj7ffsPs89R1Q4jjUG8URquz2JitX6MDrCWjlth2jM1O3w+0uXOkJ1cdpsl51rnz9brn4OOuggp9kDBw+Tgu7dnDQRiwBCtTMNtm3bVXY74Ucnfcstt8gDDzzgpFONuP+obntdY3m0V8hNX6pl58P1CNXmKLqFaj3ipTioLiFffvllp0KEagdFMIJQbfLo+8/RMnJaeoTqe+65R9Q1pB2+vP4Y2X/rP3bS958I1eYUOGa/r2XenJFO5krLm9ExxxzjpFOJ6H7Xl14a2pP6vPq9Ze0f/0mlyLy7Fovq0JAu3fNAqT/hPSfj6aeflpYtWzrpVCK6x7DbjfjQa+rKjTu+SqXIvLsWoTo0pJv3Li1HrAotZOjevbvoFi9eBffzS/sLaku/5QjVbrYI1W4aIm6hun79+jJ37lzzhBRSuv3MnDlznBIQqh0UwQhCtcmjT9XDZdQrO4VqPeLls7RZE6lMEnD/Jt1Z2FsG9Ls3bdUX9OwlgweGFn6551CRhTOBQNraMWPWq3Jx4wud8nUbLvaoZo9qZ0JYEYRqN42d8ZwQqlX4mzBhogwaNCiqJbK7a127dZPq1atblsmnO8KviqEff/Sx5e55nuPy2b5GRc0rr7zSskBuE3ThbOd7+Rnu5tkuW0XHdNZr1+PlZyaF6lgidnif3EKyW8wNP0+F3+n/7tdki986PtOnT5fJkyeHnx5Mu8t2u/uOeLKVmYhYHW5RHckCXOtVt+LaXtui2j4vXpujtS0X8hGqExglhGoHEkK1gyIrEYRqEztCtckjkymEapM2QrXJI5MphGqTNkK1ySPTKYTqEHGE6hCLbMQQqkPUEapDLLIRQ6g2qSNUmzwymUKoNmkjVJs88iWFUI1Ftc5lLKrNbzRCtclDUzkhVNvN1r2dL2h0QVyxOpplqpbjFj41HUvQ1ONeBBUtjz32OKPd6uJ78lOT5fzzz/eiioyWkUmh2rY6jmUhbXfevT+1Lebax9yfFQ+q6IyFzhV7z3B7r2n3uRovrkhtXx9PrNZ6z6pZ0z496NJ71MMPB4VpFaGHDB5iLbioJg+PGuXs060n657aOo/HPjLW2R/bKSRPIgjVCQwkQrUDCaHaQZGVCEK1iR2h2uSRyRRCtUkbodrkkckUQrVJG6Ha5JHpFEJ1iDhCdYhFNmII1SHqCNUhFtmIIVSb1BGqTR6ZTCFUm7QRqk0e+ZJCqEao1rmMUG1+oxGqTR6ayimhWhscboWqeeHBtpINz9e02+2zCoDp2sfZXbdb6NR8Falfnf2qnHrqqe7TciaeKaHaLfDHW1DgFn3jidpuoVrP1eC1SG0PZjyxOnxu2Nfpp87N/v37B4Vrm7l9PBGrbvvcXPxEqE5g1BCqHUgI1Q6KrEQQqk3sCNUmj0ymEKpN2gjVJo9MphCqTdoI1SaPTKcQqkPEEapDLLIRQ6gOUUeoDrHIRgyh2qSOUG3yyGQKodqkjVBt8siXFEI1QrXOZYRq8xuNUG3y0FTOCdXa6CaNGxdx3635dtA9n9XqNDyo6+QaZ9YIWtOqe3AVAdMdtE619HWHSZZ76WbNmrmzcipui6bhCwLc1uqxrNrDOxvtOtuaWs/X8dRxjRbcCxhU4NVFCNGCnvvII2Nkw4aNcn7988W2Yg4/3y0ypyIMu8uJtEhB++l27W3vWd61W1enSdpmdX1fqVIlqXd+vYzMXafyLEQQqhOAjlDtQEKodlBkJYJQbWJHqDZ5ZDKFUG3SRqg2eWQyhVBt0kaoNnlkOoVQHSKOUB1ikY0YQnWIOkJ1iEU2YgjVJnWEapNHJlMI1SZthGqTR76kEKoRqnUuI1Sb32iEapOHpnJSqHYLzkW7tDMnkgVuzRo15aOPPgy621aRNRMh3GI2UwJ5OvuWCaHabfkeaSzT2T932Soyd+rcOaqY7T43VlzL0b2x7+/XL2ct6WP1z+tjCNUJEEWodiAhVDsoshJBqDaxI1SbPDKZQqg2aSNUmzwymUKoNmkjVJs8Mp1CqA4RR6gOschGDKE6RB2hOsQiGzGEapM6QrXJI5MphGqTNkK1ySNfUgjVCNU6lxGqzW80QrXJQ1M5KVRrw90WtJqOFNwWv7ZgnIplbKQ64uW53UzruT/++GPQlXO860ry8XQL1e6x1T28M7WooCQz91vbEKoTGHGEagcSQrWDIisRhGoTO0K1ySOTKYRqkzZCtckjkymEapM2QrXJI9MphOoQcYTqEItsxBCqQ9QRqkMsshFDqDapI1SbPDKZQqg2aSNUmzzyJYVQjVCtcxmh2vxGI1SbPDSVs0K1Nj6eC3B1s7xy5QqZNn26qFAdye2ylpOu4HZprXXEc0mdrnZ4XW4iQnWi4rJax7+/dGlw73Btp7q91jwN7j2agxn85xsCCNUJDDVCtQMJodpBkZUIQrWJHaHa5JHJFEK1SRuh2uSRyRRCtUkbodrkkekUQnWIOEJ1iEU2YgjVIeoI1SEW2YghVJvUEapNHplMIVSbtBGqTR75kkKoRqjWuYxQbX6jEapNHprKaaE6ERfgakGt7r41ZHpvaLdlcDbqD3Y6Df8lIlSnUq2K1f2s/cNzeR/vVPrPtSII1QnMAoRqBxJCtYMiKxGEahM7QrXJI5MphGqTNkK1ySOTKYRqkzZCtckj0ymE6hBxhOoQi2zEEKpD1BGqQyyyEUOoNqkjVJs8MplCqDZpI1SbPPIlhVCNUK1zGaHa/EYjVJs8NJXTQrV2IFwM1rxIIRv7HBcWFlrtG+40R0XzAw7Y30mnM9K0WbOgRXI66vBaqHYvJsgXq/N0cPdTmQjVCYw2QrUDCaHaQZGVCEK1iR2h2uSRyRRCtUkbodrkkckUQrVJG6Ha5JHpFEJ1iDhCdYhFNmII1SHqCNUhFtmIIVSb1BGqTR6ZTCFUm7QRqk0e+ZJyC9W3dr1DRg4fkrau3XJrN/nfgyOc8gOBgBNXg7jpltddO7iP2XlefU55dpq0bHGFU9z8+fOlbt26wfSECROkbdu2zrF58xfKGadXc9JeRjZs2ChHHH6YU+Qdd9whQ4bs5P/DDz/IIYcc4hy79/4BcustnZ2015EbbrhRpj03NVjs8ccfL5999plTRfXq1eWDDz5w0hs3bXLiXkfGPPKoFHTv5hT7xRdfyFFHHRVM33333XLfffc5x1asXCUHH1zRSXsZ+eTTz+Wcs2o4Rf7vf/+Tm2++OZhesmSJ1KxZ0zn2yLgJ0vLK0HxyDngUKbvffk5JF154ocyaNctJu7+/N7RtLyNGDHWOeR25977+MmzIQKfYbdu2yS677OKkvYqUsr78oTuDV6X+W048F+B62oqVK4NupT2uOmZxibQrZgEpHEynMJ+IUP3X338brXcvKIjUNvfxdxYvllNPPdW4noS/CCBUJzDeCNUOJIRqB0VWIgjVJnaEapNHJlMI1SZthGqTRyZTCNUmbYRqk0emUwjVIeII1SEW2YghVIeoI1SHWGQjhlBtUkeoNnlkMoVQbdJGqDZ55EuqatWqsnz5cqc7aZSIxC2qqbawbNkyp96CggIZPHiwk35nyXtS88zTnbSXkTt69DQEt7Vr1zq61Ouvvy516tRxqus3YLDc3LmDk/Yy8vKMWXLNVS2dIkePHi0dOoTqcvNqdkULa2vWR51zvYz89tt6qVzpCKfISy65RF588UUn3bJlS5kyZYqT/nzFKktET49A3KnTzTJ50hNOXTt27HDmzeOPPy6tW7d2jo2f+Lhc0exyJ+1l5NHxE+X2rrc6Rao4rCKxhl9++UUOPPBA51jHTl1k4MB+TtrLSLhg3qVLF3nwwQedKs4++2x55513nHQ6FxG4BXNdPKCLCNIR0ipUqwvw4449Nma7zz//fEl03+SYBRXjIEK1CatmjZpBN+zR9gq3j6vrb105UrZcObMAUr4hgFCdwFAjVDuQEKodFFmJIFSb2BGqTR6ZTCFUm7QRqk0emUwhVJu0EapNHplOIVSHiCNUh1hkI4ZQHaKOUB1ikY0YQrVJHaHa5JHJFEK1SRuh2uSRL6nbb79dhrs8zg4b8YB0u+0Wz7s3dPgD0v3225xye/ToIYMGDXLSc+bMkUaNGjnp61u3lccmei/MLnj9DalX5zynHo2Ei/NugViPv7v0fTn2mCoa9Sz8tfkvqVjxIKO8lZYh5zHHHOPktWjRQp599lknPc4ST1s0b+akvYqEW8qqEKqCqB3GjRsn7du3t5NyW7c75J6+dztpryIvvTxTrr26lVNc48aNZcaMGU563bp1zoICO3PdN99K2bIhi2M7P5XPdeu+kZNPOtEo4q+//pI999zTyTvrrLNksWXMaYfnX3xZ6tWtbSc9++xqeTmYMH6sU94LL7wgl156qZPu06eP3HvvvU667739pOttobFzDqQYGT/hMeO+0LFjRxk1alSKpUa+PK1CtVbptsiN3ITM71HduVMnayXKhGjNSWt+JKtlrypMxqJa63bvKa7uvhcvCX3Zwo+r6/LJkyd71WTKyTECCNUJDBhCtQMJodpBkZUIQrWJHaHa5JHJFEK1SRuh2uSRyRRCtUkbodrkkekUQnWIOEJ1iEU2YgjVIeoI1SEW2YghVJvUEapNHplMIVSbtBGqTR75klIXzyeeaIpyakV82603y15lyqTczT83b5aRDzwkvQoLjLJUdDzssJDbaz145plnynvvveecd2P7DtKtW1c5/tiQeOscTCJyZ2FvGTTgfuPKxx57TK6//nojr2fPnpaF7EAjz0vX20vfXyYPWa6kn5/+nFOHWgpPnDjRSWskXLzXPF1IcGPbNhpNOfz0088y5pFxMnxoaMGAFhru0lnTu+22m1GfitUdO9xURGw3TipG4oknn5IuYZbr2v8GDRoYpVx99dXy1FNPOXmXXHq5dLnlFjnzjOpOXiqRsZYbb/eCCi3rrrvukvvvN+eNjpVukesOXgr4a9Z8bQnBo2XsI6YYHL6oIpJ43+vue+Sm9jfKfvvt625eUvGtW7bKI+PGy109exjX631DXcSnI6RdqNZG2xa50TqglrwrV67ImKVuuHieLy6tkxWqdVxUuFcBX0PXbt2kf//+wbj9n5tZOsV2uz4+SyYBhOoExgWh2oGEUO2gyEoEodrEjlBt8shkCqHapI1QbfLIZAqh2qSNUG3yyHQKoTpEHKE6xCIbMYTqEHWE6hCLbMQQqk3qCNUmj0ymEKpN2gjVJo98SvXu3buIEKf9U3fTu+++e9Jd3bJli7PvsbuQfv36SWFhoTsrGJ87d640bNiwSL5mtLrqmoj5iWSq++gpz4TETfsa9fA7b948O+l8arvVNfnnn3/u5KU74nY/7q6rXbt28uij3luWu+twx1WAdbvXto+poN+mTVGBXIXiMiksaNCxeXbqM3Y1zue1114rTzwRcgFuH/jqq6+cPavtPP1Ul9ftrYUNqYRIc0TL27p1q+y6665Fim7SpInMnDmzSH7zFi0dd+VFDiaQMXXK0xHPiiTc64m6qEIXV4SHyy5vltL3d5vV7+muxRR2+VpXuGZoH/PiMyNCdSKutjNpqTtt2jS5xlqFYYd8EV5TEaqVha5MmW6x0aDu2PWm7Q7u4/ki7rv7Rzw+AYTq+IwEodqBhFDtoMhKBKHaxI5QbfLIZAqh2qSNUG3yyGQKodqkjVBt8sh0CqE6RByhOsQiGzGE6hB1hOoQi2zEEKpN6gjVJo9MphCqTdoI1SaPfEu1bds2I55nVXgdOzbkyjic45gxY0TdCmci6PvtChUq/D97ZwEexfW18fPH3YsXL1rcgjvBglMcigWCBnf3JAR3h+AUd3cv2lIobqVYcZd8c4Zv7s7sbpKVmdi+93mWuTJz793f3F0y+95zjtWhOH52gQIFrLbpXbl582Zi0TOoxK6eN23aFFSzbvXm1rrWOjZ3i27tHGfr2IqaRdmg0vbt26latWpBNetaz+Fv2dLfWvrvv/+I3ZOrXYBbO0+POnN37OZ9sqv2adOmmVfrXm7WrBktXbpU937VHRouVKstcdUDW8sHSC6l60mupY1OL1+8kNwTmAK/W3N3bfQcjOjfWaGauRQtWlR2BW4tHjW3Z8uWnV6+fCHHBUC8aiPuYvjuE0K1DfcHQrWABKFaoAiTDIRqLXYI1VoeoVmCUK2lDaFayyM0SxCqtbQhVGt5hHYJQrWJOIRqE4uwyEGoNlGHUG1iERY5CNVa6hCqtTxCswShWksbQrWWR2QsBWWZqdd75ZjUHJs6pMTCLZ935cqVkE51qJ0thqdKrrfjxYsX7PUcJrVbt260cePGYM9ztLFEiRI0YcIEWYcJqY9+/fppYnqHdL697Wy1zZsVQkrWXF6HdI097cx70qRJIV7CLuJ7SN6Ajxw5EuK5jpxQpUoVeR7ZsmUL9nK2vu/cuTNxHG+j0tq1a23SSidOnCgzMWoeHAubvS8YnQwVqhXLZXbtvWPnDhok+XXfu3dvkO8pNF2Am7sjt2ZBHOREw2mDs0I1vy2+P2wBz8malbu6nf3xTzcoeLo8AfwT7ghAqLbhlkCoFpA+fY5JMXM9EOWuUuyQyZMni7KzGfVuvjYtqtO8QSed7TJSXQ+hWns7IVRreYRmCUK1lnZoCtW/t8pNmT++0k7AhUsQqrU3/6e4p6S//U3uxa5evUpZs2bVnuRgiXf+swWAkipV7kJXX2VSijhKBCBUm5bBymgZqMOSg6JixYoV1KhRI1F2JnP//n1NHMSWNcrR5AQ3neky0l0Lodp0S58niUZZL10TFb179yYfHx9Rdjajfn7xrFKGRl+662yXkep6CNXa2wmhWssjNEsQqrW0IVRreUTWEv/myxaTBw8elI3YLl686PBbzZMnD2XIkIHKlClD7Mo5KOvloAbgWMQ7duyQXXCfOXMmqNNsqi9XrpwsCI8dO9am89UnHTp0iNavX09nz54lzjuTihUrRrlz55YtqD08POzuil0uszjLVsXOJLYWz5Ili+xJl4V7e1y8sytsFqzZVfv169fp/PnzzkxFjkNdvHhxGjZsmN398KYGfvE6ZWNKZxLPIX/+/PLzq3lsbFv65VjWPIfgdE9b+ilYsCBlz55ddoPfokULWy4R57yQDEwXL15MBw4coFu3btGFCxdEmyMZtvQvVaoUsSV16tSpHenC7msME6p550nRIkVl61sWM1nUVNcFNVNr4mhQ5zpTr47JzP1YsyB2pv+wuFYPoZrnzbEiJvr7y2/BmpW7ul25t2HxfjFm6BN49+4dxY0bVww8dPgoGjZkoCgjIxGAUC2WwfNXKSlJoT9Emb87OB6NXilnzpwibkzjBu60fPTvenUdKfqBUK29jWqhumrVqrRt2zbtCU6UmjRpQvyjupLizSqvZHGUCECo1i6D3m8z09yN++TK5MmT06NHj7QnOFHy8/Mj/lFdSedb/UwZPr5Wii5/hFCtXQLZElyn3bumi8oHDx7o9hC6b98+TRihcpX7041XycVYyECoVq+B/TFTU52Fx0UVb3Rw5Ac80YEq8/z5c0qSJImoGd64PHX73w1RRkaKv3cwCjD8P4FHKaLTz2f/FjyGDx9OQ4YMEWVnM5kzZyaOscipWaXSNPHyPWe7jFTXQ6jW3k61UF27dm1ZLNGe4Xipbt26mv4C/07meGeR8EoI1dqb2vvnH2nRzu8i3Y8//kh3797VnoBSpCPAotfXr18dfl9Ro0alRIkSOXy9ciH/Dv3+/Xul6NAxadKkDl2nvujLly9yrOInT56oq+3KsxW3MzGdlcGePXtGHN/Z0cTCdMKECR29XFz3+vVrYqtiRxNv3lP/je5oPzwHnoujideHcn8d7UO57unTp2SLG3XlfPNjrFixKH78+ObVdpf5+Yffk6OJP7963Bt7xzdEqGYX0e7uVSTl/jx1l0zx1UG2bXEFbk0ctfeN2XJ+dsmEn8VzJUV0C2G9hGrmoVics5X7yVMnZSFf4WTeztby+fLlUzcjH4kJ8Bc4x2Lg1NazA82dPTMSv1sH3hqEagHt9ysFqFBNU2yR6dOnU8eOHUW7sxne5bZnzx7RDR6uBQo5A6HaxCPWt//R044mjy5t27bV1T0PC4MsECop++RKdD+m4w91Sj+R5QihWnsnm/6ThrYeOCZX8m7m33/Xb5MNb5jgjRNK2tzKjUp9fKgUXf4IoVq7BLLGP0d7di+RK6NEieLUj1Hankl215cjRw5RXcldsqh+mUmUkYFQrV4DAdEyUuclB0QVfy/qGRuQfxh8+/at3L9XnfI0NjaEagFbykCoNtE4kzMhVd1tsg6y1R2mqYfgc6VLl6bDhw/LJ5V3K0yr7j0N/gIXa4VQbbrhb94lpvj5TNb9nTp10jUGpXlMy9fns1K8ON9/5zHNwnVzEKq1975p+uS069h3i0U3Nzc6fty0uUx7JkoRmQBvFGSLzHXr1un2NjjEK1vtBheH2XywS5cu0ezZs2XjArYM1SOxZai9FtH8tyN7hWSPwWxRrUdid9I1a9Yk/k5no0lbE1u6L5NC5u7cudPWS0I8r2nTprLLb7Y4tzUdPXqU+G8jjiP9zz//2HpZsOfxb7s8l5YtWwZ7nrrx4cOH8v+J7Jr9zz//VDc5nGeLat7Exd5AEyRIYHM/M2fOpJUrV9q9voIagDcDsXGNp6cnsYW1rYmNcRYtWkRr1qyx9ZIQz+ONw3xfQiNUM0/GEKG6kyREsMVyULGfefGtkz7kQaXQcgGuuCZXz2PMmLGSuN5dXRVh8noK1ey6oYq02YDjUVeoUIHYNbo6qdv5Pu+UxOqEOuyUUo+BfPgkwG5blP/c8+cvIP1nrd8P7OHzHds5KwjVAtisDaXJq4/pD1x2P8LrR6/k7e2tcSV+60AxypDa9DCv1zgRtR8I1aY7V/RJXNo7eLOo4PgtvH70SvzHYKtWrUR37kNq09HUcLesAIFQrZAgehEtBmVYYvqeYjdoS5Z8FwpNZzmeY7dXefPmFR2MblKeOhEEGQUIhGqFxPdjqsCNkouyA3KB3fM56x5M2zsR7wj/+PGjXF2hQkO69tbN/BSXLsP1t+n2D3ifmWas/+5pgmvZcobXj16Jf1RXXAKWLFKQtmSBOKhmC6HaRGNRgTTUe7Mp5uGxY8eIXXXqlXjTLv+gqaSLBbNRqn8dt0ZS+oksRwjVpju550xRqtTE9DvcDMlTpZeXl+kEJ3OzZs3S9Ld7eXWqWOi7EOlk15HicgjVptv4LGk0yn7R9PzCsWxZqEKKPARevXolC5YcD9eo9Msvv9D8+fNDjA3NnkwccQNt67x//vln+f/hkiVLBnsJi/VGi3McK5tjHAeX2L02C5b79+8P7jSn2tq3b0/8f0JIiQVcnrNRiTcT8AYF9WZna2Px90+7du2sNelWx8Jzw4YNg+2Pny06dOjgtPvz4Abp37+/xgDY2rlsUc7Gt7yRwajEmyuYu70u/O2dj+5Ctdql9vETJ6xa2rLFdbZs2WURNKgJh5YLcGuieUS1rNZTqOb7orZ+tybgq9sjKrOg1h/qgyYwaNAgjfvmXXv2UaUKtu++CrrnSNICoVrcyEYDCtCqtd8tqqNFi0bssid69Oii3dkM/xHdoEED0c20cXWpU91DouzqGQjVphVQ5nR82jp/o6g4deoUFS5cWJSdzVy7dk0T17Vqcw86XOKts91GmushVJtu5ZroGajd4oOigh/E+MFTz8TuxBWXZNXKFqflqR/o2X2E7gtCten2pY7zik7sGyoq9LbU4o4rV64sxy/jPFtsZy42nj5+jcZFJIkAhOrvy+CD5Fou55bn9J/koo4Tx4hjaw09k7nnk52tilDRj4/0HCJC9wWh2nT7PH9KTesPfF9/HPLqzZs3pkYdcvwjIsf6U9IUj+LU+Cw8nyg8IFQrJIj6TS9B4yebnl94MxlvKtMrmW9u7Otdm8Z1NG3S0GuciNoPhGrTnVuTPyV13GKyoObf/dWbtE1nIhcRCfD/c3q4Grb1vbOoFtTvguaeHmzt05Hz2ACLhVFria2X7Y0PbK0fW+rGjRtHffv2tXqq+e9MVk/SqTKk8BIs2q5evVqn0YLv5urVq5rf19RnT5gwgXr16qWuMizPBgVsWGAtcazwoNaPtfOdqWMxXL3JUd0Xu+dnN93sRj00EocE0MNtfFBz1VWoVlsohyRcqkXOoCbHVrxszWtkUrspV4/DVsKjx4w2fHz1mM7m9RaqeT5qId/axoMa1auLQPGh5bLdWU643jkCvGOIrRKU1KZde5o3J+SdV8r5kf4IoVq+xQfPF6Gyv5hiANevX19X9yM8yIcPH+SYN4q1VrkyxWjfXNNO30i/1kJ4gxCqvwPK8CEq3RxwVN4owTU//fQT/f333yHQs7+5SJEidPr0aXFhEb8qdDkeLGQYCIRqsSyo+cO0tHm/SYBhd1mpUqUynaBDjncXq60cVv9agip/uq9DzxG/CwjVpnuYNf5Zye33UlGxY8cOKXSTuyjrkZk2bRrxD05KqlS5E119lUUpuvwRQvX3JTA/SibqGWCyEhk/fjz16dNH1/XBP0aqvfp0qF2exsWBtwkFMoTq7yQO5U5C9XaYvIXxbyEBAQEKJl2OL1++1MTsrFS8CC2/43i8S10mFY46gVD9/Wbcf5SZfixlsm5mC0B2hat34n7VLlMfHC1MqX+4pfcwEbI/CNWm29YyUwradviEqHj8+LHhVnViMGQMJ8Bhozh8lDo1btKMcuTMFaSgrD43qPznz5/p8p9/0MoVyzSn8LPqnDlzNHVc4A3cLMiZpwGDhjolpHO84HtSTPWZMywtga3FEv7rr78oZ86c5tOgLl27U/IUKSzq7algkW+C7ziLS9haumzZshb1ao+mSmOLlq0pU+bMsjip1Nl75N9QL128QBs3mDxgch9Dhw61as0+ZMgQGjlypGaY6jVqUh5JO3Mm5jbH2b596yYtWjhf0zcXrN2bvXv3UsWKFS3O9e7R2+l4yk+k77WpUyZa9H3jxg3KlEkbvopjP+fKlcvid0UOj5ouXXqnRGN2Nz9ujJY1T4o/M9asyDmsIXsqUKf6DRrKn1+ORe5o4vd47e+rtHyZ6fcC7qtx48a0fPlyR7sN8TrdhGreUTWg/wBhJT1dckvDYnVQiV1HF1OJXdbOY1/9LIoZ7VI6KLGa58RCOVt3c4ys8B6HWRGq2fo5T17TTsuLFy7SgAH9ZcTvJWHHnqS2flfEe/X1/CXbTHqA4xRUPGv1+chHDgK8a4h3Dylp1Zrf6Jf6dZWiax8hVMv3v17vvLRu416xFrZs2ULVpY0teidz93njhtShvs0O6z1MhOwPQvX321b6eFzattjk9nvs2LHUr18/3e8p73BUx2B3b1ydjpZ5r/s4EbFDCNXf79rCqJmo+1KTGGPUH/lsiah2ZeZe2o2W//gvRZUe0l09Qaj+vgIyxn9GB3ePEsvBqB/A2Y1gypQpZTfOPBhbVecvPZKefIgjxnblDIRqotsx41O59ffpufRMqaR///2XUjj5Q6DSl/pYtGhRYo8qSlolbeJxxyYeGQeE6u+ronXmlLT5kMlqkOMvctxEvZP5j4rjPEpRm7P39R4mQvYHofr7bfOeWJwmz9wk7iFbkPXo0UOU9cqYW6Z5d6xJE72P6dV9hO4HQvX327dECofQUxUOgT1CsLUpUuQgsGfPHov/5zZs2kK1PPT77Y77q1PLQwPMmjWzuUXoeF9/6tNLv9Csl69cpcGDBkuhaNeIubCbcRZh1YnXuNqFcus2nlI86Y6UJYtWrFRfY29+9Jjx5DNutOYyc2GWdTZ2s68kN7fiNFwSi92K6ucZcOWqtdS+nVa7Y1fjmSUhXEn37t2TxNd0SlE+Tp0+i1o0b6Kpc6Zw+sxZGjViBB04YAoDxBvv1e+f+2cx/+BBk3c6Fqj79O5JcePq82x5585dKe71DJoze4Z4O9ZCtbFor143NTxq0UDJ+2zOHNnEdc5mZs2eR317a//fNw+NdPz4cdkTlXqspctWUE0dP7979x2gurVrqoeQY8dzDG0jklNCNYuYe6TdDPukF3+A1IlFS3ZdwIKp2ir6zp07sgUux6jmnRAhJUUcVfcR0jWOtPN74R2ztszJkf6Va6y50FbanD0qQnVw/dgrVHNfzIQtp21JfL9OnDTttLPlGpwT8Qhs2LCB6tSpo5n46d/PUqEC+TV1LlmAUE0DZ5WkMf4bxO3nHW+7d+8WZT0z/EcUW8iq02/zalPd0qaNFOo2V8pDqCYq83dC2uq/Xtx2tly9desWxYwZU9TpmcmePTuxmyIl1ehSmw7keqUUXfYIoZroQMzUVHuh6cdvXgxsgV+oUCFD1gV7sWBPR0rqWq8CjYh5XSm67BFCNVGymO/p7MEBmjWwaNEiatmypaZOrwLvzB8h/fCgpFKlqtODr+Xpy7coSpXLHl1dqP4muajzepaeVu0w/eDELrp9fHwMWRPsrtA81tzxVvkox8fvLscNGTSCdAqhmmhMvnQ0catpLVarVo22Sh7+jEiXL1+WLXHUfa+oVpgqXkDsdAjVRNN+K01d+pus3NiAh59fzEUc9fpxNM8uQzNmzEgsRChpxvi65FXnkFJ02SOEaqKDuZNS/R1nNGvg7NmzlD8/fvfTQInAhV9//ZUWL14s3sHadRuoXp1aoqxXZs1v6zXGTWzYqLYCZYtutuxWUv+BQ2jMqOFKUbfjvfsPKN2PaTX9qQXi//77j5ImTappfyltvDUieXfvSQvnzxVdHzt2jIoVKybK5cqVk4TbA6K8e+9+KlK4oCjrlVmwcAl172aKk80CLAv4SmJPR2pDj3E+E8irQzulWbfj+QuXqEypEqI/3mB6QgoprCQ2eFV/9zRp1kKykp+mNOt6TJgggaa/Bw8eUOrUqUWd+f/HFy5eogwZ0ot2vTK+fhMlAX+o6M5cvOfQXTMkQ2ElzV+4mOrX02o1Spszx12791IDVb8cgtMoN/BOCdW2CphqcdQWl9/m8FikZjfgoZF4fvwhfPnStKtbzy5oDewAADwRSURBVHEjolDN73/AgAFSzGp/m1B0l3Z6jhkzxqZzcVLEJcC7isxdoR0+epxKFneLuG9Kj5m7uFA9eE5JGuVnEqkZqd7xgM1vE3/fDBw4UFO9enZtalDOtcVqVxeqy1yVROqJJpGaF4iRYgz3v379eqpbty5nRarRpY4kVr8UZVfMuLpQvTtmGmqwUGudwps5OR6VUYk3TOTOnZvY5ZqSetSvQENiuLZY7epCdcrYb+jU/sHKkpCPNWvWpI0bN2rq9C7kzZuXOBamksqWrU3/filO775EV6pc8ujKQvWLaDFo8LO0tHTrfnHvs2bNKru2dcZNnegsiEyjRo1o1apVmtYDrQtSvg+uLRC6ulDtI4nUviqRmhcI/yDK311GpWHDhml+COZxAqoVIfcLT4waMkL06+pCtblIzTeNXWyyFx6jknncdB5nho8kVtd2bbHa1YXq/XmS0i/btSI1i1XsnQwp8hBgl8a8EYZTzVp1LFxB6/lOPWrWpi2bvz9zZMmShTj+spI6d+5M06dPV4p04+YtypQxgyjrmRklWTMPHmjysMfhDxRX37xBrUaNGmK4mbPnUpPGDUVZz8yx4yepqnsl0aWvr6+IvcwusTnusJI45Kb/BF+lqPtRLcyyQL5vn8mymXmoN+49f/6CokQ1ZsNx//6DaMb0KeL9vX79muLFiyeXWZBlYVZJ6zdupvLlyihFXY+/SRs2Wv/aQvS5Zs0aYkMATrdv35Y3eCmN/QYMpv79eitFXY+PHz+hn7JkFn22atVKYyicJ08eERakQoVKtG69yVBBXKRTpk2bdrR2jekZSr3BQ6ch5G6cEqr1nEh46outqxcsWCjFR5hFbAGuZzJSqNZznugLBEIi8ObNG9nFhHmspKnTZ1Lnjh1CujzytruoUH3+Wj6asDQaBazcobm3HJ9S/ceEplHHgrn1IHc9rG8d6t3kEsWJbczGIx2nb0hXripUZ3ofjdKci0nbl5jcfTNgjpM6ZYrpj15DoEud8sYu8wf4Kk1q0NMCn+lKPJNoaNT44bFfVxWqv0jWgjO/ZaLBK0wPenx/KleuTDt37jT8VvHueN4lr071K5emDmneUaGPrvlDuCsL1VkT3KM9u7SbTtmKil3F6x0nXb3mOM+74dkdPVtuKSl/fjdK9EM5uvEquVLlckdXFap5886MK59p//HTmnseVHw+zUlOFp4/fy4/v1y5ckXT09TmZan51+8/1GoaXKTgqkL1hezxaS4lpFV7D2vuNMfJ9PT01NQZUahVqxZt2rRJ0/WQGqXJ868HFPPDN029qxRcVai+928m8luegqbM0j6/sLtvds9tdPL29qbJkydrhunZuZb0LH2XUiS7p6l3lYIrC9WzCqSlwZu134uh9fziKusrvLxPtWVorz79yXe8cUZnPXv3I3+/8eKtq4Uu8/8P1W3iAp0y5q7I1WE+OA5w+/btxUhsjJUndy5R1jPz8cNHSp78B9Flt27daNKkSXLZ3N322PF+1NHLuL9LOnToSCuWB4i5qPmbbzg2ysKcB5+/YDH18O4i5sGb73kjKyfz39luS266EydOJM7VM3Pt+g2Nx9iJEycS/z/JyTzM2sLFS6muAV4IlPej3kRg7q1U/flt79WZfAz8/I4Z60Pjx45SpkUfpNDCRniqhFAtEFvP8E7a/fv205OnT+jihQvWT7KjluNdBxe7246ucCoIhDkB/k+DXd2ap/LlK1J1Dw8qW6YMFchv3E5083HDRdmFhOqnz9PSkT/S067jX2nmvC0W+NlSgF1+hkbiH785Roa5i/H06dNR6yYFqVLh91Qw2yWKEf1jaEwnXIzhSkJ1ki9RKNuzOBT9NtGOxVuId6CqU1jE0lL/0ajMpVpLD/qSMQpdTfqWnkXXzlE5JzIeXUmoZnH6QoxkdORDAlp7/h+69JdWDOH7+0LaEJkwYcJQudV+fn7ErnTNU9ua5alskk9UOPAppfjsOrHUXU2oThH7LSWK8ZjevPyDjp/QbpjgNXHmzBkqWFB/F3Lm643L1sLGcH2ZMjUpesws9OzjD9IrFle5THIlofpOjHh08lsy2vuYNK6+lZu9cuVKC7fcSpvexz/++EP2OGHeb6WSRck9QxwqHv055XQxd+CuJFQ/Th6dzqZORIe+xqa5KrfzynoYPXq0/GOoUjbyyD/y8fOL2rUnj/dTpozUOOePVOLDK8p9/RVF/xxo5DTCVd+uJFS/fpuETlzOSntORSWfyZaeTcwtp0LjRpk/v8SJE4e6e1Umd7ePVDTnRZd6lnY1ofqPrPHoaLxEtPHOCzotubE1T7zRK1EiY0Qh87FQDj0C6s88W4aOHT3CsMH7Stay6rjMajHU3GpX3ab3hLZs20Ee1U3xdXfs2EHu7u7yMDNnzqSOHTuKIU+cOkM5sn8XSkWlTplvX79phFa1YQUbTWbIkEGM5DthEnm2ay3Kemc6depCAUsXi27V/NVrhE8wUqhesnQZdenkJebBoVJy5Mghl9mjA3tAVtKDfx5K1tZxlaKux9u371DePLlFn7xhjDeOceL46mUkrUNJActXkkeNakpR96NaqC5fvrwmZLH63nTq4k1jDPz8+kgx40ePHCbe37t37yh27NiirFtGWnxIIAACIOAwgZs3bwYWL16cn57xAgOxBqQd2Q6vKUcvlMTJQMktmpgD1iQ+k7wGunbt6uiScuo66Q9prEV8J2rWgLRTPFD6UdqpdeXIxbNmzdLMA9+N+G7Mly9f4F9//eXIcnLqGumHoMAUKVJgPeK7UbMGtm3b5tS6cuRiabNtYOHChTXzwHcjvhslt6OOLCenrvn06VOg5BkKaxHfi5o10LNnT6fWlaMX83MTvgvxXaheAx4eHoHv3793dEnhunBOQH2vJaHa0Nn26TdQ8/2iHqx69epBtqnP0yO/eet2zVj8fKIkyb20pk0SqgMlYdaQl+RCWzOWJFQr0wiU3Etr2iSh2pA5KO+tWfOWmvHERKSMeo1wXrnGiKPkoVUzniRUi6lIodM0bZJQbdhcpJjTmrEkoVrM4+DBg5o2Sag2bB7MWM1fEqrFPDijbpOEakPnMXDwMM14klCtmYteBdKrI/QDAiDg2gQkiy3Nl5b6CxN513nYKVKkSKDkujFMPwySu5zAuHHjYj26+A8+adOmDVy6dGmYrkUplk2gFH8Ja9HF12K0aNECpXjUYboWjx8/HliqVCmsxTBeiz/8kDzM7wH/CPLly5cwW4/3798PbNiwYZhzwN+mYf+3ab169QKluIhhthZ5YMk6AmsxjL8Xw8NnsVixYoGHDx8O07UoeUAJjBUrFtaji69HyYIucMWKFWG6FqXQMYGpU6fGWnTxtcjfzZKHiTBdixjceALq/4MhVAcGQqj+/nygXnnqNcJ5IwRqpU8I1ZabItT8IVSrVybyIAACIBACgT///DPQy8srMEGCBHiwcbEHGyn2ZOCiRYtCWCGh1/zkyZPAwYMHB6ZPnx5r0cXWYq5cuQJ9fX0DP3/+HHoLLoSR2MOAFNsHa9HF1iL/yMc7f1mYCy9p+fLlgeXKlcNadLG1KLnuDGzbtm3g2bNnw8tSDJRCdcCK0MXWofJDS506dQLV1ithvSgvXrwYKMUjDIwXLx6+G11sTUquG8N8U6N6/f/777+BUgzGQN5sqXxecAz7TTWhcQ9y584d6O/vr14OYZpnD0Bjx44NlGKDYi262PdismTJ5E1cbNGJFPkJqL/fIFRDqFbWg3rlK3XKURGVjThCqIZQjRjV0icNCQRAQH8Ce/bsoVOnTtG1a9fo8ePHJLk10wyijqWgaUDBgkB4ZMXxVdOlSyfH+CtdujRlzJjRYt7hpeLEiRMkWRPSlStX6OHDhyS5rtJMLTzy1UwwnBXs4SVtXqEHDx6IdyD92KGJtSManMhI1vOUJk0aypkzJ0lhCEgShJ3ozdhLmceRI0eIj5J4Sa9fv9YMaA9bzYUuWghvvGLGjEkpU6akbNmykZubG5UoUSLc3pm7d++S5LaKJIGGOAYWx82WHkjFfMMbWzGxcJoJidf58+flv4WU6bds+av0/9E/SlH3Y/To0Un6oZF++uknKlSoEFWsWJGiRo2q+zh6dMhrb9++fXTu3DmSwsnQs2fP6OvXr5quQ+KrOdnFC+GNVZQoUShJkiTy34n58+cnaaOMXA6Pt4m/A6UNFHT69Gn5+UXa9IjnFyduVHhbizwfaTM1SZtYxfOLOv6jE2/VkEuPHTtG/AzDzy+SgI3nFycph7f1yM8v0oYE+fmF/16UhGon36Fxl/N34tGjR+XnF36u2759u3GDoedQJ1C5cmX5+SV79uzy8wv/P43kOgTU342IUU2EGNXf135wvwtIArVhHxDEqLZE62oxqiFUW64B1IAACIAACIAACOhAQHKjSLyRQZ1GjhxJgwYNUlchDwIgAAKRmoDk4YNGjRol3uPNW7cpY4b0oowMCIAACIAACIAACIAACIAACIQmAQjVRJKXH3J3d5exQ6j+vvogVN+hvHlMG8ikGNUkhQuS4Rw6dIgkjzziYyrFqCaPGtVEWe8MhGq9iaI/EAABEAABEAABlyXQtWtXmjp1qub9V6lShaSYV1SgQAFNPQogAAIgEBkJsPVRtWqmB9hZc+ZR+3ZtIuNbxXsCARAAARAAARAAARAAARCIAAQgVEOo5mXaqVMXCli6WKxYCNUQqsVi+P+Mj68/jR45TFS/e/eOYseOLcp6ZWBRrRdJ9AMCIAACIAACIGCVQPPmzSkgIMCiTYppL+9MzJIli0UbKkAABEAgshDgh312OfvmzRv5LXl41KJNmzZElreH9wECIAACIAACIAACIAACIBDBCECohlDNSxZCtfaDe/s2hGotESII1eZEUAYBEAABEAABEIiwBIYNG0bDhw+3Ov+WLVuSp6enHGPa6gmoBAEQAIEITqB9+/Y0Z84c8S5Wr11HDerVEWVkQAAEQAAEQAAEQAAEQAAEQCC0CECohlDNaw1CtfYTB6Fay4NLEKotmaAGBEAABEAABEAgAhM4ePAg9e/fn44fP271XRQrVozY+rpx48aUKFEiq+egEgRAAAQiIoEzZ85Q4cKFxdQrVXKnXbt2iDIyIAACIAACIAACIAACIAACIBBaBCBUQ6jmtQahWvuJg1Ct5cElCNWWTFADAiAAAiAAAiAQCQiwVaGvry9dv349yHfToEEDqlevHtWpU4dixIgR5HloAAEQAIGIQqBp06a0fPlyMd2hw0fRsCEDRRkZEAABEAABEAABEAABEAABEAgNAhCqIVTzOoNQrf20QajW8uAShGpLJqgBARAAARAAARCIRATmzZtH7dq1C/YdsUjt4eFBNWrUoGrVqlHy5MmDPR+NIAACIBBeCVy9epWyZ8+umd66DZuoTi0PTR0KIAACIAACIAACIAACIAACIGAkAQjVEKp5fUGo1n7KIFRreXAJQrUlE9SAAAiAAAiAAAhEQgJ79uyhJUuW0LJly+jbt2/BvsOSJUtS5cqVqVKlSuTm5hbsuWgEARAAgfBGwMfHh/r27auZ1sVLf1Dun3Np6lAAARAAARAAARAAARAAARAAAaMIQKiGUM1rC0K19hMGoVrLg0sQqi2ZoAYEQAAEQAAEQCASE3j9+jWtXLmS1qxZQ7t377bpnbKL8LJly1KZMmUoVy4IPTZBw0kgAAJhSqBWrVq0adMmzRwePXoseYz4QVOHAgiAAAiAAAiAAAiAAAiAAAgYQQBCNYRqXlcQqrWfLgjVWh5cglBtyQQ1IAACIAACIAACLkLgn3/+oQ0bNshizs6dO21+1w0bNiS2ui5RogTlz5/f5utwIgiAAAiEFoEnT57I31HXrl0TQzZs1IQWLpxPsWPFEnXIgAAIgAAIgAAIgAAIgAAIgIARBCBUQ6jmdQWhWvvpglCt5cElCNWWTFADAiAAAiAAAiDgggRevHhB27Ztox07dhCL1o8fP7aZQtWqValYsWJUtGhR2VV4ggQJbL4WJ4IACICAUQROnz5NRYoU0XTfrHlLWjB/LkWPHl1TjwIIgAAIgAAIgAAIgAAIgAAI6ElALVR379mH/P3G69m9pi/vHr1p8kQ/URcYGCjydevWpfXr14uyuk1U6pRZu24DNahXR/S2d+9eKl++vFyeP38+tW3bVrTtP3iYCuTPK8p6Zl6/fkNp06QWXfbo0YMmTJggl9loI02aNKJt1Jjx1KWzlyjrnWnb1pPWrF4pulXzL1CgAJ07d060vXz1SuT1zsyZu4B69/QW3fKm7ixZssjlwYMH06hRo0xt128Y5o3s8l9XqVjRwmKsKVOmUJcuXeTyiRMn5N8Xlca58xfSLw3qKUXdjwlVv1+6u7vLv4kqg6g/v209O9AEPx+lSffjyFFjyc9nrOj38+fPFC1aNFHWK/M/afGZvhn06hX9gAAIgAAIgAAIgIBBBPiPQ45rvW/fPtq/f79do+TOnVsWhwoXLkyFChWiggUL2nU9TgYBEAABvQjs2rWL+IFTnZo0a0GzZ82geHHjqquRBwEQAAEQAAEQAAEQAAEQAAHdCOTMmZP++usv0Z+REpFaVPv555/p0qVLYtyePXuSv7+/KJ89d4Hy58sjynpm+g8cQuPGjBRd3rhxgzJlyiSXWbSuWLGiaPPxm0jtPduIsp6ZHTt3U0OVwDlt2jTJsrmTGELNq3GTZjRLej40Ir19+45Sp0opuq5WrRpt3bpVlOvXr0+//fabKN+8dZuSJk0iynpmunXrToskD2NKUouhCxYsoDZtTPdiScByqlWzhnKqrsfFSwKoa+eOok8O2eXh4SGXHz58SKlTmzYYdOnWg0aNHCbO1TNzTRLjCxUweYn08vKiGTNM64CNcU6dOiWGNHITQaOGjWn79u/rIn369HT79m0xrp4ZCNV60kRfIAACIAACIAACoUrgw4cPdODAATp06JD8Onr0qN3js8U17xRVXvny5bO7D1wAAiAAAo4Q2LhxI9WuXVtzab36v9DkyZMoTepUmnoUQAAEQAAEQAAEQAAEQAAEQEAPAmwlygKpkmbOnksdPNsqRd2O02fOoc4d24v+unXrRpMmTRLlLVu2CCGQK9t7daZZM6aKdr0yJ0//Tm5FCmm6U4vzX758sfBs9edfVzSWz5qLnSioLWW5GxbuWcBXEj8f8nOikgKWrySPGtWUom5HX0mMHzViqOjPz8+PeOOAklgYVQvoffoNpIED+irNuh137d6rsXSvVKkS8aZuJfGGAsW6Wqn777/nFDVaVKWoy/Hp02eUOVNGTV8vX74ktWdGNnY5e/asOGenNHc3lQW2aHAy07//IJoxfYroZfXq1dSgQQNR7t+/P40bN06Ux/lMIK8O7URZr8zyFavIq72pX94wMG/ePL261/QDoVqDAwUQAAEQAAEQAIGITICFaxar+XXs2DFi62v+w9LexC55WbDOmzeveMWLF8/ebnA+CIAACIRIwJpYXalyFfLz86U8uU0/WITYEU4AARAAARAAARAAARAAARAAARsIsNhm7mFuyrQZ1KWTfm6mp0ybSd26mKxTeVpXr16lrFmzambInu/++OMPUefdoxf16d2LUqVMIeqcyYz39ad+fUwCLPc1c+ZM6tChg6Zbb29vacPwZFFXpUo1qu5Rk1o0byLqnMn8fe06TZ40mQKWLhbdNGzYkFauNLne5ga24q1Vq5Y4hzOzJdfYjRrW19Q5Wvj08RPxvR45fIimi9evX5P6d6+3b99qynwyW6V7d+1MsWLH0lzraOG3dRup9a/NNZfz83HNmjU1debW3Y0aN6X6knBbqeJ31+2akx0orFm7jjZt2CCx3yCuVrtkVyrNxXuuX7l6LVWtUlk5xakjC/CTp0yjSf6+mn7Umyq44e+//6Zs2bJpzhkzzpc6qTaFaBodKCxaHGDx+f39999lIx8HugvxEgjVISLCCSAAAiAAAiAAAhGZwIULF+jkyZOyWxx2jaN2M2Xv+6pXrx7xQ5Ty+umnn+ztAueDAAiAgAWB7du3E8dn4802SsqcOQtNnzmL3CtVUKpwBAEQAAEQAAEQAAEQAAEQAAFdCJi73VY6bdWmnWRdHEMp2n38/PkTLZw/1+K6gQMHamINKydskATCOnXqKEVxbNK0OcWLn0CU7c5IEW/v3rktxfbdZnGpufDHJ7x48YISJ05scW71GjUpRQqTi2yLE2yoePH8P1q3bq3Fmex+PXv27Bb1TZo0oRUrVmjqixcvSVklcTJKFMctiT98/EDLA5Zo+uUCC7DsXto8WRNm+ZymUsiqWLFjm59uc/nbt290S7KUPnBgn+YaFqTXrFmjqeMCb2Tg3+HMU9269Slx0qTm1XaVnzx6pBGolYvNramV+nLlysmeHZUyHytVcqcf06Wn/0X5n7rarvw7aWPAiuUBFtfw58N84wKfZB67W7mwectWFCOG45/fL5+/0OJFJjfsSr+8kWPixIlKUfcjhGrdkaJDEAABEAABEACB8EyAd4meOXNGfvFuwFWrVjk93datW1OuXLnEK23atE73iQ5AAARci8CRI0dkd17//vuv5o3PW7CI2rRqqalDAQRAAARAAARAAARAAARAAAScJcDuhNeutRRQne3X/PpGjRpZCK/qc3x9falPnz7qKsPyN2/epIwZtS6elcE4rFyZMmWUoqFHFqKZi7X06dMncnd3txBErZ3rbF3Xrl01luTm/fXu3Vvy9uVnXm1Ima2448SJY7VvFrB/+eUXq216V+7bt49YkLaW7t69SxyrOTTS6NGjacCAAcEOpY5pHuyJTjSyUM6CuZEJQrWRdNE3CIAACIAACIBAhCDw/PlzOc7MuXPn6Pz58/Lrzz//dGruJUqUoJw5c1KOHDnkF+fTpUvnVJ+4GARAIHITuHLlivxjBXuCUKdBQ4ZbuGZTtyMPAiAAAiAAAiAAAiAAAiAAAo4QMI9360gfwV3DQhsLbiGlgIAAat5c6wY6pGvsaefYz9OnT6fUqVMHe9nFixeJY2kfOHAg2PMcbeTfhvz9/WUhOqQ+2D357NmzQzrN4XbzuNRBdTRlyhSZSVDtzta3atVKdsceM2bMYLtiAbl79+7E98iIVKxYMVm0L1y4cLDdP336lDp27GjV+jvYC+1onD9/PrFRTEhp2LBhNHz48JBOc7jdmgt0hzsL5kII1cHAQRMIgAAIgAAIgIDrEnj//j2xWMQv/iNYeb169copKPwHL4vX7N6JY8oox6hRHXff5NSEcDEIgEC4IsAuxpo1a0ZbtmzRzKtZ85Y0cuQIypAeG140YFAAARAAARAAARAAARAAARBwigDHjl66dKkszh49etSpvvjikiVLUtmyZalFixZkT8g0tiSeM2cOcWikbdssXXbbO7G8efNS0aJFHRJ7OVbyunXrZKMGdQxte+fA5/NvP+y6ukaNGtSypX3estgTIFtfswcuDmvnbKpQoQJVrFiRWBxOkcL2OOAszi5YsIB2795Ne/bscXYaVKhQISpevHiw1txBDcKbGjiWN/9ex/GanUn8+1z+/Pll9/PsetzexC7T+b6w4YuzqUqVKsSvtm3bUty4cW3u7tatW7R48WLav38/sVcAZxML9uxZgH+XYO+RoZEgVIcGZYwBAiAAAiAAAiAQaQjckOLocJxrflBRjpcvX3b6/fGDS9asWeUHGD4qr1SpUjndNzoAARCIeATYBdvUqVMtJr5x81aqWaOaRT0qQAAEQAAEQAAEQAAEQAAEQAAEQAAEQCCiEYBQHdHuGOYLAiAAAiAAAiAQ7gh8+fJFFq7ZXTi/WLjm17Vr13SZK1th8y5k81fixIl16R+dgAAIhE8C7Jquc+fOFpMbMWosDR7Yz6IeFSAAAiAAAiAAAiAAAiAAAiBgL4Fnz57JFtUHDx6kO3fuOGUdytapGTJkkC0y2ZV3kiRJ7JrOypUraceOHcRhkZy1IGbLYbaoHjVqlF1z4JPZMnX9+vWyRbWzVqpsoapYVHt4eNg9F3adzpbubGnuTCpQoABlzpyZ2KqaLapjxIhhc3eBgYG0cOFC2Zqaf+s6c+aMzddaO7Fq1aqyRfWgQYOsNQdbx+tj8+bNsudDtjR3JpUuXVq2qGbX8OwFwN40ePBgOnHihNNW5vy7HxuwcGxytmS2J7FXtiVLlsgW1WxdzSENHU3shYDDFjKXpk2bUmgZz0CodvSO4ToQAAEQAAEQAAEQCIHAhw8f6K+//pJFa37I4rxy/PbtWwhX297MD39ZsmSRHziUY7JkyWzvAGeCAAiEWwL8Y1G7du2sbnw5f+ES5c3zc7idOyYGAiAAAiAAAiAAAiAAAiAQvgn4+PhQ3759DZukr68v9erVK8T+t27dKs+DN/8bkdq0aSN7rIodO3aw3bNQzzGq2fW3EYndXU+YMIHc3NxC7L5fv340fvz4EM9z9IS5c+fKbqZDup7dwrMbd6NSz549ieNlh5TYvTbHTDYqfji7Zp84caL8+1pwc/n8+bO8oZzd1BuR2EiF73udOnVC7H7y5Mnk7e0d4nmOnjBy5EhyZDOBveNBqLaXGM4HARAAARAAARAAAR0IsGDNL44FxUeOq8N53smsZ2rYsCFlypRJFrGVI++ORAIBEIg4BHiHdPv27WnVqlUWk549dz55tm1tUY8KEAABEAABEAABEAABEAABEAiOAG+InTdvXnCn6NLGzzKzZs0Ksi8W/Pgco1PBggVp586dlDRpUqtDsRDKVsehkdgimIXRoFKtWrXkOMxBtetVz5bSIaX//e9/IZ3idDvHZg7OYnzXrl2ytbHTA9nQAVuL81qxlp4/f07Vq1en48ePW2vWtY5DgVnzsKYMElS4MKVdryMbx7DFtpEJQrWRdNE3CIAACIAACIAACNhJ4PHjx7JozcK18mK3ShwTW+9UrVo1WcTOmDGj5hg/fny9h0J/IAACOhDw9/cn3m1unjw7dJJcgfentGnTmDehDAIgAAIgAAIgAAIgAAIgAAIWBIYOHUojRoywqDeqYsyYMdS/f3+L7vfs2UOVKlWyqDeqgsdi0dM8ffr0ifLlyyd7wjNvM6p8+/ZtSp8+vUX3obWBQBmYXXr/+uuvSlEcjbakFgP9f6Zly5a0aNEi82piTvy7VWimr1+/UpQoUSyGZNftW7Zssag3qoLXqrXPB1tcs8V9aKUBAwYQu6A3KkGoNoos+gUBEAABEAABEAABnQlwrJnr16/LLoD5yC/ehWtE4jhO/CCgfnGcKS5HjRrViCHRJwiAgA0EOP4VxzizlpavXE2NGzaw1oQ6EAABEAABEAABEAABEAABEJAJsFe3HDlyaGiwEMWvuHHjauodKbx+/ZpYmB43bpzm8nv37kmba9Nq6vi3h1OnTom6Nm3bk3f3bvRzTu38xAl2Zvr0G0i+48dormLrULYSVScW0c3nO3a8H/XrY7lRWH2drfnjJ0/TBMm99W9rV4tLWBxmkVidrFkOT5g4mdq2aaU+zeH8o0ePadbsueTvp3Up/uXLF81vPRyuzvy3ny7delCHDp6UNk1qh8dXX7hw0VLy7tpJXSXHeuYY2urE9yogIEBdRTt27aFibkU0dY4WZsycQ/37at3Tc+xp840cfK9at9Z6M+vq3ZNGjhjq6NCa627cuEUzJc8Dc2fP1NSbW73fvXvXYoPDwMHDqL1nW0qYMIHmWkcKnz5+IvbcNmiANiQAhzPMnj27I12GeA2E6hAR4QQQAAEQAAEQAAEQCP8EWMS+ceOGLF7zkV/r1683ZOK845dFa0W45qO6zpBB0SkIgICGQJ8+fYjjvZmn7j160ZDBgyhRooTmTSiDAAiAAAiAAAiAAAiAAAiAgBwzmuMkK2nUqFE0cOBApajbkYU+ttxWEsfCVovBu3fvpsqVKyvN1LxlK1qyaIEo65XZu/8gVSxfVnTHltPs5ludzN1b/3H5L8qVQ19R7u27dxTPbCMAh4DLmjWrmMovv/xCa9asEeW58xfSLw3qibJemREjx9AEX9NGgilTplCXLl1E9/Pnz9fEr2aRetTIYaJdr8z6DZvo1xbNRHfsDl1tkHH//n368ccfRTtnbt2+Q0mSJNbUOVu4desO5cubW9PNhw8fKGbMmKKON4zzxnElrZPmXqF8WaWo29G7e09aOH+u6G/Dhg3EruCVNGzYMBo+fLhSpKHDR1GP7l1FWa/MPGnt9ZQ2jSipY8eONH36dKWo6xFCta440RkIgAAIgAAIgAAIhD8CDx8+pJs3b8riNR+V19GjRw2ZLFtdq8VrFrHVL/NduYZMAp2CgAsQ2LFjB3l7e8vx7c3f7sqVK4lj1COBAAiAAAiAAAiAAAiAAAiAgJpAnjx56NKlS6LK3GJTNOiQUQvA+fPnp7Nnz4pe2XUxuzBW0tHjJ6m4TlaySp/KsWfvfhor4jt37lC6dOnk5oMHD1LZsmWVU8nHbyL17uktynpm1q7bQA3q1RFdzpw5U7JS7iDKal71GzSk+SrBUpykQ+a//55Txgwmt+M1a9akjRs3ip4bN25M/EyppMtXrlKa1KmUoq5Hr46daXnAEtGnej2y9Tu7BFfSvAWLqEH9ukpR1+OcuQs0951jZnPsbE5Pnjyh5MmTi/E6SHMeP05rqS8ancxc+uMylSzuJnrhDQS8kUBJJUqUoGPHjilFevnqlcjrnUmYwGShnSVLFtnDo95jcH8Qqo2gij5BAARAAARAAARAIIIQePv2LbE1NovX6iPnjYiLrWApVaqU/FDIAjY/HKqPergaU8bBEQQiO4HPnz9T9+7dre5sZldybHWdLFmyyI4B7w8EQAAEQAAEQAAEQAAEQMBGAmoxtEWLFrR48WIbr7T/tGbNmtGyZcvEhWoRsl69erRu3TqrbaJSp8yqNb9Ro1/qi9727dtH5cqVk8sLFiygNm3aiDYjBfPnz19orIF79eolPGWxkUHq1Ca32iNGjaVuZq6xxSR1yLRu3Va4ImdX8JcvXxa9FipUiH7//XdRNlIMnTlrrsbFOnsIzJQpkzz2kCFDaOTIkWIeV67+TalSpRRlPTPmAvHUqVOpc+fO8hAnT54kNzeTeDxbErUbNTStJz3nwX2pBeKqVavStm3bxBDqz2/rNp40caKfaNM7M3zEaM0GD3MX8XqNB6FaL5LoBwRAAARAAARAAAQiIYF///1XFrBv375tceQY2Uam2rVryyI2C9nqV6pUxuziNfK9oG8QMJoA737v0aOHvOlEPRbv+vaTYqGZx2BTn4M8CIAACIAACIAACIAACICA6xBQC11GuvNlomwtPHv2bAFXLVSzm+etW7dabROVOmW2bNtBHtWrit7YO5W7u7tcZqtm5qCki5f+oNw/51KKuh7NYz+rrWXZypu90ynJd8Ik8mynjYmstOlx7NSpCwUsNW1SUN8b9RrhsYwUqpcsXUZdOnmJt8SCuRJD3dzq/sE/DylevLjiXD0ztyWX4nnzmNx/s3t8fsbmdOjQISpTpowYLmD5SvKoUU2U9c6ohery5cvT3r17xRDqe9OpizeNGT1CtOmd8fH1p9Eql+/vJPf1sWPH1nsYWFTrThQdggAIgAAIgAAIgIALEbh79y6xiK28+MGK83zkXbBGJt79zLGK1K+0adMSv5IkSWLk0OgbBMIlgffv31PPnj2Jf2gxT+wG3MfHR970Yd6GMgiAAAiAAAiAAAiAAAiAgOsQUAtdEKpJfn6CUE0EoRpCtfm3IIRqcyIogwAIgAAIgAAIgAAIRDgCLGSzaG3tdfXqVcPfD+88TZMmjSxes4Ct5PmYMqUx7qIMf1MYAARCIMDW1exCzprXg+nTp2usBULoCs0gAAIgAAIgAAIgAAIgAAKRjACEaiJYVBPBolr7wYZFtZYHlyBUWzJBDQiAAAiAAAiAAAiAQCQjwK7FWcRmQVsRtZX8uXPnQuXdVqhQgX744QdZzFYL2YqwHSVKlFCZBwYBAT0JfPr0SRarOa6WeWIXd+PHj6e8efOaN6EMAiAAAiAAAiAAAiAAAiAQyQlAqIZQzUscQrX2gw6hWsuDSxCqLZmgBgRAAARAAARAAARAwMUIvHnzRojYioB97949ue7AgQOhRqNq1aoUJ04cjUW2ImTzMWbMmKE2FwwEAvYQ2LlzJ/Xu3ZsuXbpkcdmwYcNo6NChFvWoAAEQAAEQAAEQAAEQAAEQiLwEIFRDqObVDaFa+xmHUK3lwSUI1ZZMUAMCIAACIAACIAACIAACFgQePnxIinjNR+W1du1ai3ONqkiePDm5ubnJMZ3UArbaQjt+/PhGDY9+QSBEAgMGDKCxY8daPW/79u1UpUoVq22oBAEQAAEQAAEQAAEQAAEQiFwEIFRDqOYVDaFa+7mGUK3lwSUI1ZZMUAMCIAACIAACIAACIAACdhMIDAyk+/fv04MHD8RLKS9fvtzu/py5oH79+sRW4moBWy1sJ0mSxJnucS0IBEvg+PHjNGjQINq3b5/FeW3btqUxY8bIbvAtGlEBAiAAAiAAAiAAAiAAAiAQaQhAqIZQzYsZQrX2Iw2hWsuDSxCqLZmgBgRAAARAAARAAARAAAQMI/D06VOrgvbly5fpxIkTho1r3nG2bNmCFLJZ4E6ZMqX5JSiDgF0EZs6cRR07elm9Zvbs2eTp6Wm1DZUgAAIgAAIgAAIgAAIgAAIRnwCEagjVvIohVGs/yxCqtTy4BKHakglqQAAEQAAEQAAEQAAEQCBMCbA1tGKZrVhlc/no0aN0/vz5UJ1bhQoVZOtXtUW22lI7SpQooTofDBaxCPBD+NjxvjRn1nSLibu7u8tuwvPnz2/RhgoQAAEQAAEQAAEQAAEQAIGITQBCNYRqXsEQqrWfYwjVWh5cglBtyQQ1IAACIAACIAACIAACIBDuCXz58kWI2SxiK4L21q1b6cqVK6E+/3r16mkstFnMTpUqFaVOnZrixYsX6vPBgOGLwMrVa6lxwwZWJzV48GAaMWKE1TZUggAIgAAIgAAIgAAIgAAIREwCEKohVPPKhVCt/fxCqNby4BKEaksmqAEBEAABEAABEAABEACBSEPg0aNHVgXta9euyRbaoflGy5cvLwvXLF7zSxGylXKsWLFCczoYK5QJvH33jsaO86XRI4dZHXnTpk3k4eFhtQ2VIAACIAACIAACIAACIAACEYsAhGoI1bxiIVRrP7cQqrU8uASh2pIJakAABEAABEAABEAABEDApQi8evVKFrMVq2zF7fjJkyfp7Nmzoc6icuXKVoVsRdiOHj16qM8JA+pH4NCRYzR1yhRau2aVRaetWrWS3YGnSJHCog0VIAACIAACIAACIAACIAACEYcAhGoI1bxaIVRrP7MQqrU8uASh2pIJakAABEAABEAABEAABEAABMwIfPr0SVhmmwvaq1evNjs7dIpVq1YN0kKbRW3Ezw6d++DoKDNmzaVOXp5WL58xYwZ5eXlZbUMlCIAACIAACIAACIAACIBA+CcAoRpCNa9SCNXazyqEai0PLkGotmSCGhAAARAAARAAARAAARAAAQcJPHz40KqgfevWLTp8+LCDvTp+WcGCBYWYrVhkq92Op0yZ0vHOcaXTBO7df0D+EyfRJH8/i75KlChBkydPJr6HSCAAAiAAAiAAAiAAAiAAAhGLAIRqCNW8YiFUaz+3EKq1PLgEodqSCWpAAARAAARAAARAAARAAAQMJPDixQtSW2X/888/xAI3Hzds2GDgyEF3XbRoUYuY2WphO1myZEFfjBanCWzdvpNqVKtitZ8BAwbQ6NGjrbahEgRAAARAAARAAARAAARAIHwSgFANoZpXJoRq7ecTQrWWB5cgVFsyQQ0IgAAIgAAIgAAIgAAIgEA4IPDo0SNZvFYL2YqgvWnTpjCZYaVKlShhwoQWMbQVUTtx4sRhMq/IMuh4X3/q16en1bfDmxhq1apltQ2VIAACIAACIAACIAACIAAC4YuAWqhu3749zZo1y7AJtmvXjubNmyf6DwwMFPmaNWvS5s2bRVndJip1ymzaso1qeVQXve3cuZMqV64sl2fPnk0dOnQQbefOX6R8eXOLsp4ZDt0VM2ZM0WW3bt1o0qRJcvnu3buUPn160TbOZwJ5dWgnynpnvLw60fJlS0W3av7qNcInvHz1Spynd2bhoqXk3bWT6PbKlSuULVs2udy/f38aN26caLt777703J9AlPXM3Lhxiwrkzyu69Pf3p+7du8vlI0eOUKlSpUTb4qXLqHYtD1HWO5Mwgek9VqhQgfbs2SOGUN8br45dJD7GbR4fN96Pxo4eIcZ+//49xYoVS5T1yvxPWnymbwa9ekU/IAACIAACIAACIAACIAACLk/AmpCtCNpbtmwJEz7ly5enH374warbcXY9Hj9+/DCZV0QY9NIff9LESZNp4fy5FtNt0aIFjR07VuZq0YgKEAABEAABEAABEAABEACBcEMgXbp0dO/ePXk+xYsXp6NHjxo2Nzc3Nzp58qTcf4YMGYhDTymJxWEWiZV0/8E/lCZ1KqWo69F84+3Fixcpd+7vYjRvtlZvvF0SsJyaN22s6/hKZ8dOnKISxYoqRVmE7du3r1z+/PkzxYgRQ7S19+pMPuPHiLLembJlytK5c2flbkuXLk0HDx4UQ1SpUoVYzFeSkUL1kKEjaPJEU8gp9vTGm9A5TZkyhVjMVxJ7/CpZophS1PW4WdrM0KxJI9HnihUrqFGj7+UbN25QlixZRNugIcOpd6/vIrao1Cnz4sVLSp/uR9Fb8+bNacmSJaKcK1cuunz5slyuUqUarVq9UrTpnWnf3otWrlgmujVKToZQLRAjAwIgAAIgAAIgAAIgAAIgENoEvn37JltnKwK2+XHbtm2hPSV5vHLlylkVsxUL7Thx4oTJvMLDoEuXraAWzZpYncq0adMkF3Km3fBWT0IlCIAACIAACIAACIAACIBAmBFo3LgxrVxpErf4matq1aq6z4c3J3t4mKxOmzZtSgEBAWKcxYsX06+//irKI0aNpcED+4myXhkWWRP9v/Cp9KkW3NhjWMqUKZUm+ahu1zQ4WejSrTtNm/Ldgpq7OnDgAJUpU0b0WqJECTp27JgoHzl2gnL/nFOU9cosX7GKvNqbrLXZcnnMGJMoPmLECBo6dKgYbsq0GdSyRTNR1itz/fpNKlggn+guX758knh+TpRPnTpFHA5MSQULFqJ9+/cpRV2P7dq1p9WrVog+b968SRkzZhRltSUzV167foOSJ/9BtOuVmTJ1huZzMHPmTI3Fv7mXgmXSvaxRXf/P75Gjx6l6VXfxtngzh1Eh4SBUC8zIgAAIgAAIgAAIgAAIgAAIhFcCX758sSpoK1bbO3bsCJOpV6xYUcTQVkRstsxW8ka4xQqTN2o26PPnL2icjx/5WHEzxi7R/Pz8qEiRImZXoQgCIAACIAACIAACIAACIBDWBNjdNrvdVidzwVTd5kh+//79xN6s1Imf2dzdTcIXt5mLfzNnz6UOnm3VlzmVf/ToMfXtN4AWL5ov+mELZrU7aW6oX78+/fbbb+Ic7x69aNyYURo33aLRwczosT40aMB362mlC3NBnEXJjh07Ks1UqXIVGi6JxrlyZhd1zma2bN1OTRs31HRz6dIl+vnnnzV15veGLc1r1ayhOceZAovUwyQxfPPmjaIbdoOutqDmBn6uPH36tDjHCGvm4SNGk7/feDFGnTp1aN26daLMmQEDBshexJTKho2a0NBhQ3X1ArBs+Urq2MFTGUI+mq8Ra5+tjZu3UtkyJtfkmg4cKJw+c5Yqli+ruXLt2rVUr149TZ1eBQjVepFEPyAAAiAAAiAAAiAAAiAAAmFOgGN+KeK1+sj5a9euaXanh+ZkOf6ZIl5bO6rjlIXmvJwda9eefTRl8mTausUyNnm/fv00D/LOjoXrQQAEQAAEQAAEQAAEQAAE9CFgHh+ae23QoAGxq25nnk0+fPhAJ06cIBa11MncmlppmzBhAvXq1Uspysf6DRpSkaJuwv2zptHGQmDgN7pz564mvq5y6bt37yh27NhKUT7+/vvvVKhQIU0dFwZLbqnTpEltUW9PxdOnzywEar4+KEv2woUL05kzZzRDdOriTZkzZ6Zo0aJq6u0pvHv3nv64dJECli7WXNa7d2/y8fHR1HGhR48eNHHiRE19s+YtKU/efOSMh7Fv374SWytP8vfT9M0Fc1GW6zZu3Ei1a9fmrCYNk8Rl9simuHDXNNpYYGv6kcOHWJx94cIFypMnj6b+lWSZr7gkVzf07N2P2J1+lCj/U1fblX/9+g2dO/s7rTFz421NuOeOzb0icF3rNp6UU3ILHjNmDC46lNj9/NWrf9PsmdM01xtpTc0DQajW4EYBBEAABEAABEAABEAABEDAFQjwDyhqIVtxOc51HDftyJEjYYKBLQzYIlttla0WtqNHjx4m8wppUPOYb+rz2TKhbt266irkQQAEQAAEQAAEQAAEQAAEwpAAP/ekSZMm1Gbw9OlTSpo0qdXxWrRoQUuXLrXapncluyOvXr261W7NrZmtnqRT5aBBg2jkyJFWe2PX1wUKFLDapnclewjbvXt3kN3y8+muXbuCbNezgWOZB+WVa8iQIUHy0nMO3NfUqVOpc+fOVrvdvn07VatWzWqb3pVBbe7gcV6+fEmJEiXSe8gg+7t79y79+KMpbnaQJzrYAKHaQXC4DARAAARAAARAAARAAARAIPIT4N32QQna9+7do0OHDoUJBI4hZ03MVuqiRnV8p72jb+jc+YvyjvulSxZZdNGsWTPZujpt2rQWbagAARAAARAAARAAARAAARAIfQJ37tyh1q1b0759xsT85XdUqVIlWrBgAYX0HODt7U2TJU9NRqZNmzZpYmZbG2vhwoUyE2ttetWNHj1adiMdXH9nz54ljkXMR6NSo0aNaNGiRcFa0H/9+pVatmxJy5YtM2oalDNnTpo7dy4VL1482DHGjx9P7LXLyDRjxgzy8vIKdggW7j09PSWL/TvBnudMI8+B5xJcevz4MbVq1Uq2zA/uPGfaOKwXf36zZMniTDchXguhOkREOAEEQAAEQAAEQAAEQAAEQAAEgifw5s0bjaCtFrdXrFgR/MUGtrK1gCJeWzuaxx3TYypz5y8iz7atrHY1ffp0Tcw1qyehEgRAAARAAARAAARAAARAINQIsDjLr8OHD+s2ZunSpWUR7ddff7W5T46TPWvWLFq1apXN14R0Yvbs2YkF2Z49e1K8ePFCOl1uf/DggWxtnjFjRrp9+7ZN19hyUtu2bWVL3bx589pyunwOW/eytbk6RrPNFwdxIlsE81w4DrOtacOGDbKYzO7K9UrMgTc0m7t+D65/jqXNTFjY1jN16dJFjo3N7tVtSR8/fiQ/Pz9avnw5Xb582ZZLbDqHY0B36NCB2NLd1hQQECB/fvXccMKbBvizy5slQiNBqA4NyhgDBEAABEAABEAABEAABEAABCQCHNeKRWy1kK2UV69eHWaMPDw8RAxtc0GbXY/bm+7cvUe+fv40feoki0vZfRzHQDOP+WVxIipAAARAAARAAARAAARAAARCjcD79+/p/v379OXLF4fHjBYtmuwiOFasWA73wReyQMzzcTTxhtxkyZLJL0f74OvYajV58uR05coVh7uJHz++027WeWM0h6tiC2dHU4wYMYjFd2c2K3/79k2OL81CraMpSpQolDJlSkqcOLGjXcjXsYczfr52NOWS4jkrmxIc7YOv+++//+R1Yi2+tq398ueF740z6dOnT7KVtzOfX/bMxt4PnIlB7sh7gFDtCDVcAwIgAAIgAAIgAAIgAAIgAAIGEuCHXWtithJL+/jx4waOHnTXtWrVkgXt7NlzUMLESShFihSUQvrhJlWqlJQqZQqLC1evXUcNG9SzqOeKMWPGUP/+/a22oRIEQAAEQAAEQAAEQAAEQCD0CHBcZLao5li0zghdLFSnT5+e2GVwvnz57H4D/LzDrpWvXr1KHIbJ0cRiLAvMhQoVkt2P29sPi47sKvz8+fOyEGnv9erzWahmUZQtmRMmTKhusil/9OhR4uc/FlVZKHY0sVCdKVMmKleuHLGlub3p5s2bspv4GzdukLNCNW+GdnNzoxIlStg7DXkDA1t2s3W1M0K1v7+/HPeaLbt547YjAj5bMZ86dYoePXpEzgjVsWPHpqxZs8prNSQ3+daAMQsOS8YbPD5//mztFJvqlI0mfF/4sxNaCUJ1aJHGOCAAAiAAAiAAAiAAAiAAAiCgMwHe4a+I14pltrqsp4s4e6be1rODZL3wg2zBkDBhAuIfVxYtmGfRRcmSJcnX11f+kcKiERUgAAIgAAIgAAIgAAIgAAKGEmBxa/jw4YbEqa5QoQINHTpUFq1DehNPnjyR4zbPm2f5zBDStba0s6todndtSzIyFjK7IOf+2XI1pLR+/XoaNWqUIXGqeQPyyJEjKXfu3CFNg65fv06DBg3S1SW7Mmj+/Plp4MCBxC6vbUmDBw+Wmdhyrr3n2LORevHixbJrbHvHsOV8drnNcczZ01lI6eTJk/JnbOfOnSGdanc7bzYZMmSIXW7I7R7k/y/4PwAAAP//6ZZ3mwAAQABJREFU7J0FeBTJ08br4HA5OPSww91dgzsEd9dA0GAhuCVAkJDgrsHdHS4EJ7jDIYfbHYTD5b6t+X/TO727CZvsbPTt51mmbap7fjsbduftrvrpP0MiJBAAARAAARAAARAAARAAARAAgShL4MmTJ/T48WPx0pY5f/bs2XC99ipVqlD79u0pbdq0yitNmjSUIEGCcJ0TBgcBEAABEAABEAABEACBqExg5syZ1LNnT7tf4uzZs6lbt27BjvPTTz8F265HY+fOnWn+/PnBmnJ0dKRt27YF28fWxsKFC1NAQECwZkaOHEljxowJto8ejevWraPGjRsHaWrHjh1Up06dINv1ahgyZAi5u7sHa65s2bJ09OjRYPvY2lizZk3avHkzxY4dO0hT/Jnhz469k5+fH5UrVy7IYRYvXkwdO3YMsl2vhqlTp5KLi4te5iza+QlCtUUuqAQBEAABEAABEAABEAABEACBaEXg27dvFoVsFrhVYfvixYthzqRkyZKUO3duIWCrYjYfU6VKFebzwYAgAAIgAAIgAAIgAAIgENkJrFy5klq1ahVml7FmzRpq2rSp2XgPHjygDBkymNXbq6Jv377k5eVl0XyjRo1o48aNFtvsURnUHtIpU6bQgAED7DGkRZtBzePUqVNUokQJi+fYo3LChAnk6upq0TQLtv7+/hbb9K5s0KBBkPfBoEGDaNKkSXoPGaS927dvU5YsWczat2zZQvXr1zert1cFi+K8sNxeCUK1vcjCLgiAAAiAAAiAAAiAAAiAAAhEQQKfPn1SBG1VvGYh+9279/TsxSt6+eI5+a5YFi5X3aRJE2lHtlbQjhcvXrjMCYOCAAiAAAiAAAiAAAiAQEQj8O7dO0qYMKE0rZat2lCbtm2pTOmSFDdOHKktJIUPHz/S0WMnaPmyZbRq5QrpVEuCaPPmzYlFbG2aO3cu8c7mZMmSaatDlOexLl++rOygnjNnjnTukSNHiHfnahP36d69u7aKRo4eR3Xr1qbMGTNK9SEp8DyePHtGe/bspf4ufaRTR48eTSNGjJDqbty4QTlz5pTqMmXKbBArs5Ktv2m+G+by7t9/6fDhg5L98uXLG+oOS3VcsCQOL1m2gsqVLUOJEyUy629tBS+Qvnj5Cg0z7KI+deqEdNqdO3coU6ZMUh0zGjt2rFQ3fuJkqlmjOqVIkZxix4oltYWkcO+vv2jHjl00asRQ6bRFixZRhw4dpLpDhw5RpUqVpLo+LgOoQYP6lCdXTooRI4bUFpLC3//8Q4cO+1HXzvKYbdq0oWWGz5Jpypw5M929e1eqXrdhE5UsUZzi2/Db96Pht37A2XO0ZvVqs9/1/BwguJ3m0mRCWIBQHUJg6A4CIAACIAACIAACIAACIAACIPBjAv8aHoA9fvyEnj57Ts8MD2eeGY4vX76kV69eGgTtF7R6le+Pjejcg3cE5M2b1+Lu7JQpU+o8GsyBAAiAAAiAAAiAAAiAQMQjwDtCeWeomnr27kvTvS3vMlb7hObYo1dfmjXDW5xq6kL4woULVLBgQdHOGUtCpdQhFAVvb2/indRqqlGjBu3atUstKkdT1+MrVq6munVqSX1sLZwJOEeVK5aXzPxjECiTJEki6nr16kUzZswQ5Xz58huE28yirEeGxfMzZ04bvGY9FuZMd7xv377dINLXFe316jc0uLueQYkSyQscRIdQZqZ6+dDokcPE2abu2T9//kxxTBZO7Ny9V1lQIU7SIbN7zz5q1qSRZMl0YUXDhg1p06ZNoo/nZC9y6tpJlPXIPH78lHLlzC6ZOn78OLGXMTWxK31nZ2e1SB06daFpXlNEWa/M8BGjyWea0a6lhRV6jQWhWi+SsAMCIAACIAACIAACIAACIAACIBBiAgcO/UFVKlWweF7WrFmJ3Z2FdWK3hOqObI6Xreb5GDdu3LCeDsYDARAAARAAARAAARAAAd0IODg4EO8qVtPNW7cpW9YsalG347UbNyl3zhzCXoUKFYh3parJw8ODhg417mRdu3YtsZckeySOPbx7925hWisQnzt3jjhutJr6DXClkSY7bNU2W48LFi6Wdlb7+vpSy5YthVl2g87u0NXk6Ggf9868833fXiMP0527HFOcd7arad+BQ1S8WBG1qOvxl8SJJXtagdjUxbX7eE/q2SP4eOeSsRAUPAy2J44fJ87geNilS5dWyrybWPs7sEnT5rRgwTzRV8/M3n0HqEmjBsLksGHDpB3ltWrVkhZaHPrjCBUuVED01yvz8uUrypLZuLu9SJEihgUOZ/QyL9mBUC3hQAEEQAAEQAAEQAAEQAAEQAAEQCA8CEye6k0D+xt3OqhzqF69OvEuiBQpUliMoc0uyDds2KB2D7Nj8eLFKX/+/ELE1graPFckEAABEAABEAABEAABEIiIBLS7h7t260FzZxt38Oo93y5O3WnBPKPrba0IyQLtqlWrxJDaNlGpU2bevHnk5OQkrGlFyBUrVhALtWraun0nlXeQXYOrbbYeHz56rLiJVu0MMbi/dnd3V4qvXr2i5MmTq01kj93Uwrghc/Sov+LtiusKFChA58+fF80s0PJOXjW9CQxUs7ofvaZNl1xvs1CfLl06ZRxmw0Ktms4Y3FLbY1EF2z956gxVq1JJHYr4nunSpYtSNl3M4OU9gzp2aCv66p3Rivf16tWjzZs3iyG0n9+WrdvS7Fn2+/y6DRkueUWw12cUQrV4e5EBARAAARAAARAAARAAARAAARAITwKnzgRQiWJFzabA7t58fHyoa9euZm2mFc+fPze4sXtCDx8+pEePHokj5/fs2WPa3e7lZs2aWRSzeXe2qRs7u08GA4AACIAACIAACIAACER7Alqha7BBiBrvPsZuTFzdhpHnhP8JsTyIVuiqU6eOIT7wDjG2tk1U6pQZOXIkjRljvE7eXc0LYjmZulLmWL/VqlbWaWTZzPdv3ylp0iSikl198+8cTvfv36eMGTMqef6nePGSlDp1alHWO3Pu3FnD7u2/hFktf+09wh3sKVQvW+5LvXoY44NfvXqVcuXKpcxr8ODBNHHiRDHH23/eUeJSiwodMydOnqbqmvd9ypQp1K9fP2UEPz8/4ljeanIbOoIGuw5Qi7oftUI1x8U+cOCAGEP73rB7fQ87fn49J00l97GjxNjv37+3OVa6MKbJQKjWwEAWBEAABEAABEAABEAABEAABEAg/AlMNPwgHjyov9lEWrVqRdOnTzc83Elq1haSirdv3woB21TQ5h/+W7duDYk5m/sWK1ZMic+nuhjX7s7W7qqweSAYAAEQAAEQAAEQAAEQiPYEtEJXdBGqt23bRo6OjuK9D06oPmHYWWsaJ1icaGMGQrU5wJAI1Y8eP6GECROYG9Gh5t69+1Qgfz5hKTih2h4xzMXAhgyEai0N5EEABEAABEAABEAABEAABEAABEAgHAj4Hz1OnobV89u2bZFG57htLFZrHzRJHXQqcBwy7Y5sraD97t07KcadTkP+0Ezz5s2D3J0dO3bsH56PDiAAAiAAAiAAAiAAAiAAoZqU7/JB7aiGUE2kvUf4ExNRdlRDqJbfG+yoxt9zEAABEAABEAABEAABEAABEAABELAzgZGjx9GYUcPNRhk0aJDkBs6sQxhUsHs8rZitzbP78b/++ov+/PPPMJiJcQiOYcY7szmum+krXrx4xo7IgQAIgAAIgAAIgAAIREsCWhESO6rNXX9DqJbFUP6QQKiWXX9jR7W+fzrh+ltfnrAGAiAAAiAAAiAAAiAAAiAAAiCgM4FtO3bROENMuVOnTkiWy5YtSzNnzqT8+fNL9RGtwHGztSK2ujub69iNObseDAwMDJNpFypUSBGw06dPL4RsbT5u3LhhMg8MAgIgAAIgAAIgAAIgED4EIFRjRzXfeZExRjV2VMuLCLCjOnz+hmJUEAABEAABEAABEAABEAABEACBaEjg5ctXNHLUGJo108fs6ufOnUtdu3Y1q49MFW/evAkybnasWLHI39+fXr58GSaXVKRIEVLFaz6qL96hzfmYMWOGyTwwCAiAAAiAAAiAAAiAgP4EIFRDqOa7CkK1/NlCjGqZB5c8J00l97GjRMP79+/JHl66sKNaIEYGBEAABEAABEAABEAABEAABEAgohOYM28BdXfqYjbNjh070pw5c4hF3aiaPnz4YHFnNu/Q5pjaO3fuDLNLL1WqlBCwVSFbPaZOnTrM5oGBQAAEQAAEQAAEQAAEQkYAQjWEar5jIFTLnxsI1TIPLkGoNmeCGhAAARAAARAAARAAARAAARAAARCgk6cDaNzYsbR92xaJRr58+Yh3V7OIGl3Tt2/fJDFb63L8xYsXdODAgTBBky1bNiFkZ8iQQcnzUc0nTJgwTOaBQUAABEAABEAABEAABGQCEKohVPMdAaFa/lxAqJZ5cAlCtTkT1IAACIAACIAACIAACIAACIAACICAQuC///4jV7dhNGmihxmRWbNmUffu3c3qUWEk8PTpU0nQ1sbNDisxm+Nlq+K16TFNmjTGySIHAiAAAiAAAiAAAiCgGwEI1RCq+WaCUC1/pCBUyzy4BKHanAlqQAAEQAAEQAAEQAAEQAAEQAAEQEAisHjpcurYvq1UxwUnJyfFFbhZAyqsJvDPP/8EGTd7165dVtsJbcesWbMKIfv33383y8eJEye0pnEeCIAACIAACIAACERbAhCqIVTzzQ+hWv4TAKFa5sElCNXmTFADAiAAAiAAAiAAAiAAAiAAAiAAAmYETp0JoDGjx9CO7VultjJlytCiRYsoe/bsUj0K+hEIDAykBw8eiNdff/0l8gcPHtRvoCAslSxZklQRm4/aV+LEiYM4C9UgAAIgAAIgAAIgEH0JQKiGUM13P4Rq+W8AhGqZB5cgVJszQQ0IgAAIgAAIgAAIgAAIgAAIgAAIWCTw5csXGug6hLy9Jkvtv/76Ky1evJgcHR2lehTCjgC7GWcxWxWx1eP69evtPgl2L87idcaMGSURm+uSJUtm9/ExAAiAAAiAAAiAAAhENAIQqiFU8z0JoVr+ZEKolnlwCUK1ORPUgAAIgAAIgAAIgAAIgAAIgAAIgECwBHxmzKY+vZzN+kyePJn69+9vVo+K8Cfw6dMnRcRmAdv0tX//frtPsG7dukLIZkFbFbWTJ09u97ExAAiAAAiAAAiAAAiENQEI1RCq+Z6DUC1/8iBUyzy4BKHanAlqQAAEQAAEQAAEQAAEQAAEQAAEQOCHBHbt2Ue1alQz69e9e3eaNWuWWT0qIj6BJ0+eKCL2/fv3zY4XLlyw2wXkz59fEa5VATtTpkyinCRJEruNC8MgAAIgAAIgAAIgYC8CEKohVPO9BaFa/oRBqJZ5cAlCtTkT1IAACIAACIAACIAACIAACIAACICAVQRu/3mHhg4dRmvXrJL616xZk3x9fSlp0qRSPQqRm8Dr16+JRWxLr3v37tGLFy/scoFFihQhFq/VFwvaaj5OnDh2GRNGQQAEQAAEQAAEQMAWAhCqIVTz/QOhWv4UQaiWeXAJQrU5E9SAAAiAAAiAAAiAAAiAAAiAAAiAQIgIDBjkRlMmTZDOyZs3L61cuZLy5csn1aMQdQn8+++/QsRm4ZoFbT7y69SpU3a58PTp0wvRmsXrzJkzK2U+pkmTxi5jwigIgAAIgAAIgAAI/IgAhGqi//77T8KkZXLi1BnKlTO71K5X4fu374YFs0avPMHNo3jxkpQ6dWq9hjazE1GF6uCYPHr8hBImTGB2LXpUmArVwc1jxcrVVLdOLT2GtWjjl8SJRX2lSpXowIEDoqy9V5179qHxHmNFm94ZU6HalIle4/1kMCx/IvWyDDsgAAIgAAIgAAIgAAIgAAIgAAIgEAEIeHnPoH59e0kz4R3Vq1evpmrVzF2ESx1RiBYE3r17J4RrVcS+e/euUnfmzBndGcSPH18Srlm85leWLFmUI3Zj644cBkEABEAABEAABP6fgFboat+xMy1eON9ubNq170TLli4S9rVyVNu2bWn58uWi7fPnzxQrVixR1jPj4+NDffr0ESZPnjxJxYsXV8pr1qyh5s2bi7Z1GzZRtaqVRVnPzO3bd6hI4YLC5IgRI2j06NFK+c2bN6QNLZMrV27Kls0+gjkP6O/vR3///bcydtGiRen06dNKnv8pX748+fn5ifKbwECR1ztjKoZyyB9VoJ84cSINHjxYDHn0+EnKmyeXKOuZ8TtylOrWrilMLlq0iDp06KCUL126RBwSSE0TJ02lbk6d1aLuR61Q3bhxY1q3bp0YgxfA8mJbTo2bNKOFdvz89h8wiBbMm6OMxf9oP7+iUocMhGodIMIECIAACIAACIAACIAACIAACIBAxCawfuNmatKogdkkly1bRm3atDGrRwUIaAkEGh7O8QMhVbxWj1u2bNF20y2fIUMGSbhmAVt9wW29bphhCARAAARAAASiJYHq1avT3r17xbXv3X+QqlauKMp6ZXbt2Ue1ahgXhXIInp07dwrzXl5e1K9fP1GeO3cude3aVZT1zGjFebb74cMHihs3rjLE9evXKVcuo/jZ1cmZJpl4ZNJrLl7TptOoEUOFuY0bN1KDBsbfKDlz5qQbN26I9lq169LPMWOKsl6Zp0+fGrwKnRDmmDvzV1Pfvn3J29tbLZL7eE/q2aObKOuVYeEzyS+/SOa0YuiePXuoRo0aon3IsJHkOqi/KOuZGWawPd3HS5gMCAigwoULi7LpPWQv8X6D4Xdrx/Ztxbju7u40ZMgQUW7UqBHxfaOm5b6ryLFubbWo2zHg7HmqVMFB2CtbtiwdOXJElPXMQKjWkyZsgQAIgAAIgAAIgAAIgAAIgAAIRFgC7MavVIliZvObOnUqubi4mNWjAgSsJcAxsFm8Nn3t27fPWhNW90uePLkQrbNmzSrlU6VKZbUddAQBEAABEAABEIieBFiQ7NbNKDq2bN2W5s6ZRQkT6OdSOfDtW3Jy6k6rV/kKyPPnz6fOnY27UO/cuaN8jxEdDBkWwlgQ0zO5ubnRhAkThEmtEKpWmoqQ7JGpYwejWKj2s+W4c9ceatGsiWTi69evFFMjRA8bNoxYmFRTlixZKU+evGpRl+OXL19o164dkq1du3ZJgvDhw4epYkV58QILl1mzZpbOs7UwfMRo8pk2RZjh32T820ybTN+bZStWUj3HOtouNud9Da68nbvJiyR+dJ+4DR1Bg10H2Dy21sDZcxeoYvly2iq6fPmy4R7II+p8fX2pdevWoly/QSMDsymULNmvos7WzJfPX8ilX39avmyJMMULS3gBgz0ShGp7UIVNEAABEAABEAABEAABEAABEACBCEmA45oNGDBQemjGEx0+fDiNGTMmQs4Zk4r8BFQBmx/Icp6P7Hpe7/SLYUcKi9eqgM3HbNmyKWXVhaLeY8IeCIAACIAACIBA5COQO3duunbtmjTxufMXUbGiRSh2nNhSfUgKnz5+ojOGnahOXTqZnWZJ+HN2dqbZs2dLfdnVc+3atQ3CWzKpPiQFHuvKlSvE7pt3794tncr1fP3axK6VmzZtqq2irt16GMIEVaUMGdJL9SEpPHr0WHFnfvjwHzTZc7x06owZM6hHjx5SHS9+TJkypVTHBQeHChQ3Xjz6yazF+orv37/T69f/GFx8n5JO4h2669evl+q44OjoSNu2bZPqJ3hOoZIlS9gUJ/rr12/KvdehnblXq3/++Udyf86Dm+6857p+A1ypUqWKxEJ/unRpuSpU6eHDR7Rv336aOX2adP7mzZupXr16Ut358+epUKFCUl3zFq2odp06yvftGDFC/+68eRNIR48ek3bb80Dsrn7aNHluXF+sWDEyDU/EiyuKFilMceLG4S6hSp8NAvWFCxepR3dZtGdjlj6/oRrEwkkQqi1AQRUIgAAIgAAIgAAIgAAIgAAIgEDUJtCzt4vZA4mgHgREbRK4uvAmwPEItQL2n3/+qZS1Ljn1mmORIkUU0ZrFa/XFYnaKFCn0GgJ2QAAEQAAEQAAEIgGBAwcOUJUqVcJsprxDl+Mem6aPHz9S6dKl6dy5c6ZNdinzzmpXV1eLtlk0njVrlsU2vSvr169PmzZtsmh2xYoVYRqaiBcssMtx02Rpx7tpHz3L2pjQpnYbNmwYJC/TvraWnZycaM4cY1xmrb0pU6YYFj3ru4taa980H5Q4fPz4ceVzY9rfXmXTHfd6jwOhWm+isAcCIAACIAACIAACIAACIAACIBApCAwzuJpzHztKmiu7I2S3hEggEBEI8MMpfkjI4rUqYPMxqAebtsy5ZMmSinidPXt2IWJzPmHChLaYxbkgAAIgAAIgAAIRlADvGtXGR7bXNLdu3Up169YN0vyDBw+oefPmdOzYsSD76NEwatQoGjlyZLCmwkKsDk6kVifHv0fsFa9bHSNTpkzEbqRLlSqlVpkdOU5zy5Yt6ebNm2ZtelZMnz6devbsGaxJ3vHOO9/tmTp16kQLFiwIdojx48dLMaOD7RzKRt4xvWrVKjPX+FpzpvG7tW165tesWWPmbUBP+2wLQrXeRGEPBEAABEAABEAABEAABEAABEAg0hCYOGkqDR7UX5ovx/xavny5VIcCCEREAo8ePVIE7Nu3b4sj58+ePavrdCtVqkQsWvMrR44cypF3YiOBAAiAAAiAAAhEbgL37t2jsWPHKi6y9b4SXgDK4XUyZMhglWmOzcwxmvVOvHN80KBBVLVqVatMr127lpo1a2ZV35B2suTuOygb7GqamVhyyx3UOdbWcyzo0aNHU6JEiX54yocPH2jEiBE0efLkH/YNaQd2r80xxEuUKGHVqabx1a06ycpO/PtPG/s5uNPYQwDvzmexWO9kzYIKdcwnT54o4auC2gGu9gvNsW3btsrnkb0w2TtBqLY3YdgHARAAARAAARAAARAAARAAARCI0ARmzp5HPZ2dpDnyin1ePY4EApGVwNOnT4lFa/V169YtJa+niJ03b15FuGbxWn2x60iOlY0EAiAAAiAAAiAQeQgEBgaSv78/8e5mjvsb2vTzzz8rwnTZsmWtEkEtjXP06FG6ceMGsUBqS+JYz0WLFiXeORyadPXqVWKxmHcUz5w5MzQmlHNYDOaY2DyX0KRnz57RiRMn6PHjx8RxpkObYseOrbCoUKEC8fsU0sRjHzp0SFkc+enTp5CeLvrHiBGDfvvtN0WcTps2dPGleaf35cuXie/b0KZevXoRu1nPnz+/8gqNnfv37xtifp+m58+f2xTDOW7cuMpC0HLlyoVmGvT+/Xs6cuQI8cITWz6/MWPGpPTp0ytuxZMmTRqquYTmJAjVoaGGc0AABEAABEAABEAABEAABEAABKIUgYWLl1Lnju2la2rcuLHd3ctJA6IAAmFEgB90snCtfbFLRy5//vzZ5lnwQ0cWrLWvXLlyUWgfRto8IRgAARAAARAAARD4IYGLFy/qJlTny5fvh+MF1YHFNv5eYotQ/dNPP1GKFCmoSJEixAJtaNKbN2/owoUL5ODgQFu2bAmNCeUcVahOnTp1qG2wMKuXUG0pHrW1E1O9+OghVPN7E9r04sULunLlik1CtaOjoyLu8r2aJEmSUE2FReEzZ87oIlTzzuXMmTOHah58Egv3f/31F3358iXUNlioTpcuHRUsWDDUNkJzIoTq0FDDOSAAAiAAAiAAAiAAAiAAAiAAAlGOwLIVK6ldm1bSdWFntYQDhWhAgGNgs2DND4i1L94xYmvih4AsWJu+bHkoZ+uccD4IgAAIgAAIRGcCHz9+VNxLjxs3TncM7PabXXlbKxQvWrSIZs2aRSzK6pnYhfGAAQPIWvHcz8+PvLy8iGN465l4J3Pv3r2tjgvO3nE4HrKPj4+e01BsTZo0SWFirWFvb2/q27evtd2t7scxwQcPHqyIo9actH37doXHvn37rOludR+Ooc7u0CtWrGjVOdevXydPT09avHixVf1D0ondm1sbn/y///5TXPf/KPZ6SMZX+7q6utLQoUND7RlBtWPNEUK1NZTQBwRAAARAAARAAARAAARAAARAIFoQWLFyNbVp1UK6VsSslnCgEE0JsEtBdsPJ4jUf1ZceD5MTJEiguMRkAZtdY/IrT548Nu0qiaZvEy4bBEAABEAABKwmwC6227dvr4QGsfqkEHbMnj07LV26lEqWLBnkmbxzulWrVrRp06Yg++jRwO67nZ2dgzXF8YE5drM9E4uQLEYGl3gHd/369YPrYnMbvycclzlr1qxB2nr48KESt/mPP/4Iso8eDRwXvEmTJsGaYpF/+vTpwfaxtZGF2R8t2li4cCFx/HV7ptq1a5Ovr2+w4XQ4nE+7du2UndT2mgvHl1+yZInVAn5o5wGhOrTkcB4IgAAIgAAIgAAIgAAIgAAIgECUJLB0uS+1b9taurZu3brR7NmzpToUQAAE/keA3QyycM27S9TjgQMHbMaTMGFCIVqzcM0vjovNLgmRQAAEQAAEQAAEQk+ARS5bXC+HdORLly4p/4dbOq9q1aq0f/9+S026182fPz9IkZF3gP9IpNRrQh07diQWPC2lnTt3EguVYZU4vjK7STdNHP/5l19+Ma22W3nr1q3EO5stJScnJ5o3b56lJt3r2AvA2LFjLdrlHdT83oVFYpfzQS0Q4O/btrhwD+n8T548ScWLFw/paVb3h1BtNSp0BAEQAAEQAAEQAAEQAAEQAAEQiC4E5i9cQl07d5Aul93Ssfs9JBAAAesIvH79WhGvWcDm17Vr14gfQtqakiVLpjzsZtFafbE7z7B8mGrrNeB8EAABEAABEAhPAqVKlaITJ05IUxjrPsEQm7YAxYkTR6oPSYFjF587d55GDHOTTitRooTZeNzBzc2NJkyYIPXt4zKAypYtY9P/6+wS+fbtP6lH966SbS48ePDAbNHbnj17qEaNGmZ958yZY5OHl/Pnz1OqVKmU3eKmrsSXLVtGbdq0kcZkfrwLnRcBapPHhEkGYTIH/fzzz9rqEOXZO87Zs+fIc4K7dF5Qojnv1uU5apOr2zCDYFmMeDFhaNO3b9+U74T9XfqYmfj+/TtxfHFtsiQOt+/YmSpVqkQvX75UFjJq+4ck/+jRI9q3dy+tWrlCOu3w4cNUvnx5qe7OnTuUJUsWqY4LU7y8lfoYMWKYtVlbwYsCTp06TT7Tpkin8OKJMWPGSHVcqFKlCpkuCh02YjQVKJDfps/v58+fDbG/r9LI4UPMxuTPlL0ShGp7kYVdEAABEAABEAABEAABEAABEACBSE3AZ8Zs6tNLdg84ZcoU6tevX6S+LkweBMKbAD+EZdFa+1q/fr3N08qUKZMSf5JF6/z58yt5dieOBAIgAAIgAAIgIBPQioG16ziSt/c0ypI5k9zJhtItg0jcp3cf2rVrh7BiSejSzoM7bt66nerV1Xc38YBBbjRlklEMZ7fNvLNam0yFP2tcQGvPtybP7r7ZS5M2/YhJy9ZtaeKE8ZQ4cSLtaTblz567QBXLl5Ns/Gge3NnP/yiVK1NaOs+WwnuDy/devfrSooXGndIca5ndr2uT6T0ya8486u7URdvF5rznZC9yHSj/xjNlwvG0OYa6mpx79qHxHpZ3Xqt9Qnrcf+AQNWpQTzrNdB7caMrk1JkAypE9m3SeLYVHj5/QYNfBtHWL0R2/pXnYMob2XAjVWhrIgwAIgAAIgAAIgAAIgAAIgAAIgICGgPt4Txo2xFVTQ7R69Wpq1qyZVIcCCICA7QR4h83Vq1ell60Cdrx48RTRmoVrfhUoUEA5Yve17e8XLIAACIAACEROAo6OjrRt2zYx+VVr1lHzpo1FWa/MipWrqU2rFsJcgwYNaOPGjaLMoh+Lf2rq0KkLLVpgFC3Vej2OpsKedufu3bt3pV3TNWvWJHa/bY/Up08f8vHxEaZ5HB5PTQULFqQLFy6oRbp+4yb99ltqUdYrM3nKNBo7eoQw16tXL2le7Elq4sSJot1t6AjyGDdalPXKvHr1NyVPnkyY493k7NZaTez6ukKFCmqR+g8cTJM97ePhqms3Z5o/1xjq6cqVK0oIGnVw03vojWEXtD3SgIGu0jwmT55M/fv3F0NxPPeVK1eKsvf0WdS+nRy2SjTakNm77wA1adRAWODFHPv27RNlPTMQqvWkCVsgAAIgAAIgAAIgAAIgAAIgAAJRjsCgwUNp0kQPcV0xY8Ykf39/KlmypKhDBgRAwH4Evn79qojX/MCQhWw+btpk3OERmpGzZcumiNYsXPNDYX4h9nVoSOIcEAABEACByEZAK7i1MuzYXbF8qd0uoWWrNpJbZe2uTHY5zW6d1cTCX+JE+u0cVu3y0dRT0pkzZ0SMbl4U16RJE9F97dq1Ulk06JDhWN28cE5N7NaZ3TtzevfuneRSm12gj9GIyeo5eh3rOdanw4cPKub4d83x48eF6cqVK9PBg/9r40rt+yY66ZQZMmwkjXc3urd+8eKFQbxOrlhnb1YDBgwQIx0/eZpKFi8qynpmduzaQ3VqGd2/a12zsxeg3Llzi+HGeUykXj27i7Kema9fvlKyZL8Kk82bN6dVq1aJMn+HvX37tlKuV7+hwT37EtGmd6ZPHxdastgYS91e9wGEar3fOdgDARAAARAAARAAARAAARAAARCIcgQ6dXaS3NLxav9jx44ZHiIYdwBEuYvGBYFABCfwweAykkXry5cvixfHmLQl8a4mFq0LFSqkvLJmzWqLOZwLAiAAAiAAAhGOgFao5pjDE3R2X6y9YNMFn1qhq27durR9+3bRXdsmKnXKbNuxixzr1BLWdu/eTdWrV1fKHIe6e3ej6Hjx4kUlfIjorGOGvcdo40xrdzLfv3+fMmbMKEZjd9ROXTuJst4ZZ+ee5LtimTCr5a+9R7iDtk2coFNm3oJF5NTFeJ0sCufMmVOxbrqz256LGdhdffZsxu992pBPR44cIQcHB3HFy31XkaPOLuqFcUPml8SJRZFjcWvjUWvfG3u4HxcDGzITPadIO+k5zjl7K9I7QajWmyjsgQAIgAAIgAAIgAAIgAAIgAAIRDkCgW/fUosWrWjnDqObRH64tnXr1ih3rbggEIjsBJ4/f068Y0l98QNn3jkV2sS7igoXLqzsvOIj72RBAgEQAAEQAIHISkArdA0eMlzazar3NbEQ7jnBXZjVCp516tShHTuCj2EtTrQxs33nbqpbu6awohWqZ8+eTc7OzqKNvz/kzZtXlPXMsMtx9s6kpuCE6kkG99xdu3RUu+p+7NGjl7SbXvveaO8RHljbpvdE5i1YbBCqjdfJ3nNy5cqlDGMqVPNvskQJE+o9BcXe7T/vULasWYRtrVDt5+dH5cuXF23s1r6uZuGDaNApY61Q3cMQ49tDsxtdp+GFGc9JU8l97ChRhlAtUCADAiAAAiAAAiAAAiAAAiAAAiAAAmFP4OKly1StalV69uypGHzIkCHk7m58+CYakAEBEIhwBHjnNcd9ZOGaj/x6+tT4ebZ2wuxJoUiRIlS0aFHlWKxYMUqfPr21p6MfCIAACIAACIQrAa0ICaGaCEL1/25HrRitvUe4Vdum980LodqcKIRqcyaoAQEQAAEQAAEQAAEQAAEQAAEQAAEQMBDYvHU7NahXV2KxYcMGatiwoVSHAgiAQOQg8PDhQzp//rzyOnfunHK8c+dOiCfPQjUL18WLFycWrvmYyE5xNkM8OZwAAiAAAiAAAhoCWhESQjWEavXW0IrR2nuE27Vtan+9jhCqzUlCqDZnghoQAAEQAAEQAAEQAAEQAAEQAAEQAIH/J8Bu+AYNcBE8UqZMSWfPnqW0adOKOmRAAAQiL4GXL18Si9b8uVZft2/fDvEFFShQgEqUKKG8SpYsSblz5w6xDZwAAiAAAiAAAnoT0IqQEKohVKv3l1aM1t4j3K5tU/vrdYRQbU4SQrU5E9SAAAiAAAiAAAiAAAiAAAiAAAiAAAhoCDh170nz5swUNQ0aNKCNGzeKMjIgAAJRi8CrV68oICBAeXG8a87fv38/RBeZPHlyYsG6VKlS4hU3btwQ2UBnEAABEAABELCVgFaEhFANoVq9n7RitPYe4XZtm9pfryOEanOSEKrNmaAGBEAABEAABEAABEAABEAABEAABEBAQ+DVq78pefJkmhoib29v6t27t1SHAgiAQNQl8OjRI2LR+vTp08rr1KlT9Pr16xBdMIvWpUuXpjJlylDZsmUpRYoUITofnUEABEAABEAgpAS0IiSEagjV6v2jFaO19wi3a9vU/nodIVSbk4RQbc4ENSAAAiAAAiAAAiAAAiAAAiAAAiAAAiYEdu/dTzWrVxW1MWPGpCtXrlCOHDlEHTIgAALRiwD/DTh58iSxaM1Hjn8dkpQvXz4qV66ceCGkQEjooS8IgAAIgIA1BLQiJIRqCNXqPaMVo7X3CLdr29T+eh0hVJuThFBtzgQ1IAACIAACIAACIAACIAACIAACIAACFgiM85hIw4cOFi1169alrVu3ijIyIAAC0ZtAYGCgIlifOHGCjh8/Trt27QoREI5r7eDgQOXLl6cKFSpQ6tSpQ3Q+OoMACIAACICAKQGtCAmhGkK1en9oxWjtPcLt2ja1v15HCNXmJCFUmzNBDQiAAAiAAAiAAAiAAAiAAAiAAAiAQBAETB/kLFiwgDp16hREb1SDAAhEdwK8y5pF66NHj5Kvr2+IcBQsWFARrCtWrEiVKlWihAkThuh8dAYBEAABEAAB7XdXCNUQqtVPhFaM1t4j3K5tU/vrdYRQbU4SQrU5E9SAAAiAAAiAAAiAAAiAAAiAAAiAAAgEQeDYiVNUplQJ0ZoqVSq6efMmJU6cWNQhAwIgAAJBEbh79y75+/srr3nz5gXVzWI977RmwbpKlSpKrGuLnVAJAiAAAiAAAhoCWhESQjWEavXW0IrR2nuE27Vtan+9jhCqzUlCqDZnghoQAAEQAAEQAAEQAAEQAAEQAAEQAIFgCHhMmERD3QaJHn369KFp06aJMjIgAAIgYC2Bx48fk5+fn/KaPXu2tadRsmTJqGrVqsqrWrVqlC5dOqvPRUcQAAEQAIHoQ0ArQkKohlCt3vlaMVp7j3C7tk3tr9cRQrU5SQjV5kxQAwIgAAIgAAIgAAIgAAIgAAIgAAIg8AMCpg90zp49S4UKFfrBWWgGARAAgeAJPHz4kA4fPqy8Fi5cGHxnTWuxYsWoRo0aVLNmTSpVqpSmBVkQAAEQAIHoTED7nRVCNYRq9bOgFaO19wi3a9vU/nodIVSbk4RQbc4ENSAAAiAAAiAAAiAAAiAAAiAAAiAAAj8gsH7jZmrSqIHo1ahRI1q/fr0oIwMCIAACehC4fv06HTx4UHlt2LDBKpNp06al2rVrU506dZSX6QNoq4ygEwiAAAiAQJQgoP0/AEI1hGr1ptaK0dp7hNu1bWp/vY4Qqs1JQqg2Z4IaEAABEAABEAABEAABEAABEAABEAABKwi0a9+Jli1dJHqymFSxYkVRRgYEQAAE9CbAbsL37dunvE6ePPlD8wkSJCBHR0eqV68e1a9fn+LEifPDc9ABBEAABEAg6hDQipAQqiFUq3e2VozW3iPcrm1T++t1hFBtThJCtTkT1IAACIAACIAACIAACIAACIAACIAACFhBwM//GJUvV0b05B2M27dvF2VkQAAEQMCeBJ48eUJ79uyh3bt3065duygwMDDY4WLHjk0NGjSghg0bEnuBiBkzZrD90QgCIAACIBD5CWhFSAjVEKrVO1orRmvvEW7Xtqn99TpCqDYnCaHanAlqQAAEQAAEQAAEQAAEQAAEQAAEQAAErCTg1K0HzZs7S/Q+cuQIlS1bVpSRAQEQAIGwIrB3717auXMn7dixg27fvh3ssLzTukmTJtS0aVMlrnWwndEIAiAAAiAQaQloRUjnnn1o5vRpdruW7j160ZxZM4R9reDZrFkzWrt2rcU2UalTZsXK1dSmVQthjb2RlCtXTikvXbqU2rdvL9oOHTpEFSpUEGU9M8+ePaPUqVMLk66urjRhwgSl/OLFC0qZMqVoGz5yDA3o31eU9c60adOOtm7ZpJjNly8fXbx4UQxRokQJOnXqlChr3zdRqVPGc7IXuQ7sJ6zdu3ePfv/9d6U8ZswYGjlypGj7885dypwpoyjrmTl5OoBKFi8qTM6ePZu6deumlM+cOUPFihUTbdNnzqG2bVqKst4ZrVDNYVu2bdsmhtB+ftu060AzpnuLNr0zw0eMJp9pU4RZe90HPxkM/ydGQQYEQAAEQAAEQAAEQAAEQAAEQAAEQMAmAkeOHiOHssZd1S1btiRfX1+bbOJkEAABELCVAD9k5QedW7dupfPnzwdrLn369NSiRQviv18FChQIti8aQQAEQAAEIhcBUxHy8+fPFCtWLN0v4sPHjxQ/Xjxht1SpUnTs2DFRHjVqFI0ePVqUd+/dT9WrVhZlPTOmgvnTp08pVapUyhAcNqNkyZJiuH79+tGUKUZxTjTokJk7d64QP9nc4sWLJZFcK0Jy+5sfeEbhPqFJd+7co0IF84tTeZHamjVrRLlDhw60ZMkSUb50+QrlzZNblPXMNGrclDZuWCdMaiVLXsjACxrUNGvOPOru1EUt6nr0mDCJhroNEja1IZzevn1LiRMnFm32FIiPHjtBtWpUE2MNHDiQPD09Rbly5crEc1PTvft/UdKkSdSirketYJ43b166dOmSrvZVYxCqVRI4ggAIgAAIgAAIgAAIgAAIgAAIgIBOBNoaVrcvX7ZEWNPuDBCVyIAACIBAOBG4fPkybd68mTZt2kRnz54NdhYODg7Upk0bateunV2EjGAHRyMIgAAIgIDuBFgcZpFYTUOGjST3scayWm/rke2Odx8jzIwdO5aGDRsmysePH6fSpUuLMmcCDYJgooQJpTpbC6vXrqcWzZoIM7yTmndUa5OpQLx//35iQVDPdOvWLcqePbtk8vHjx/Tbb7+Jus6dO9PChQtFefzEyeTcvaso65Xp128gLVwwV5hjUZr/n1cTi9bNmzdXi9S+Y2davHC+KOuVmTFrLvXq8b9dy2yTF8mtXLlSmH/9+rVBhE0qypyxh2jubxCHy5UpJY2jFcy5oXr16sSeatQ0d/4iat6ssVrU5fj502fq0tWJNm/aIOwdOHCAKlWqJMq8iGLAgAGi3Ltvfxo7xrjrXDTYmPGcNFX6u6Dd/W+jabPTIVSbIUEFCIAACIAACIAACIAACIAACIAACNhGYNOWbdSwvqMwwg8DtW7rRAMyIAACIBDOBNjV54YNG2jdunV07dq1IGfDO4nYNWqnTp0of37jLqwgT0ADCIAACIBAhCTAu4m14ihPsldvF+rcuSPlz5fX5jlfuHiZFhjE1hk+skvx9+/fUzzNDmseqGbNmrR7925pzB279kg7SqXGEBSeP39BLv3600rf5dJZ27dvp9q1a0t1kyZNokGDjLtpudHb25t4Z3GiRImkviEtfPv2jVavXk2tW7eWTmWxkcfVJlMX09w20HUItWzRnDJnzqjtGqr8yVNnaKlBlPZdsUw631SU5UZ2B84L29TUsnVbcnJyMniOkhcXqO0hOd69d5+WLF1OY0YNl07jxXOFChWS6vr06UM+Pj5SHbtyb9akEf38889SfUgL7z98oFWr11Lnju2lU6dNm0Y8rjZt2bKF6tevr62ihg0bk7uHB6VJY3TnLnUIQeHQYT+q71hHOqNevXrKwkJt5b///mt2T3bq4kRt27alggXyabuGKn/t+k3D/eFL0328pPPZNX3y5MmlOr0KEKr1Igk7IAACIAACIAACIAACIAACIAACIKAhoN2ZkTVrVuJdFEggAAIgEJEJ+Pv7K64/V61aRa9evQpyqvyAv2vXruToaFyQE2RnNIAACIAACEQ4AjNnzqSePXuG2bzmzJmjiJymA164cIEKFixoWm23MovFy5fLwrU6GO9a5fjUYZVYcEyQIIHZcMOHD6dx48aZ1durgsOCcBxk08QLCHghQVil/v370+TJk82Ge/fuHRUtWpSuX79u1mavCkvCPY/VpUsXWrBggb2GNbNrSbjnTrwDnhdRhFUKiode40Oo1osk7IAACIAACIAACIAACIAACIAACICAhgC76hsyeKCosYcLQWEcGRAAARDQmQC7/VyxYgXxzrOgUuHChalHjx7UsWPHoLqgHgRAAARAIIISYG8/Y8aMsfvs2NX4iBEjgh1Hu8Az2I42NPLiKt4VG1R6/vy5smOWXZLbOwUEBBD/HxpU4v9bZ82aFVSzbvWzZ8+WYmabGl60aJHiScW0Xu8ye2v5kQAcFvcIvydbt26ltGnTBnmJHDObY2fbO/1IHOa41eyO297Jzc2NPAy7xu2ZIFTbky5sgwAIgAAIgAAIgAAIgAAIgAAIRFsC23fuprq1jbsQnJ2diXevIIEACIBAZCLw559/0tKlS4ljiwaV2GtE3759FdE6qD6oBwEQAAEQiHgETGMR6z1DFvSaNDHGhw7K/qVLl2jw4MG0c+fOoLrYVM+CPO9Utib169ePvLxkt8fWnGdNH97Rze6+U6f+savouXPnBisiWzNeUH1Kliyp7Nq2Jg73H3/8QUOHDqWjR48GZc6menax3rt37x/aePnyJQ0cOFDZTfzDzqHowIsDOP5znDhxfnj2xIkTlfv1hx1D0YFjYY8fP97MBbolU7zwgheBcBgXeyResNiqVSt7mJZsQqiWcKAAAiAAAiAAAiAAAiAAAiAAAiAAAvoR0K78T5cuHT148EA/47AEAiAAAmFMgF2C846ngwcPBjkyP1hnt+BIIAACIAACkYcAu3/28/Oj+/fvE8dUDm3imMG///47OTg4WHQn/SO7p0+fpj179ihunj8Y4gfbklKmTEnFixcPlYvkx48fK7uvz507R3///bct01DiCefNm1eJi50zZ84Q21q3bh0dO3aMHj16RN+/fw/x+eoJsWPHpixZshC7OK9YsaJabfXx8OHDyv//t2/fpk+fPll9nmlH/n2UJk0aKlWqFLVo0cK0+YflmzdvKt5eeHFDYGDgD/sH1WHDhg2GuOydqUCBAsSxoDNkyBBU1yDr2Y38yZMn6dmzZ/SjHdBBGjE0cOz2HDlyUNWqValEiRLBdbXYxm7aeUHBvXv36MuXLxb7WFMZM2ZMhUO5cuXCNLwLhGpr3h30AQEQAAEQAAEQAAEQAAEQAAEQAIFQEJji5UMD+vURZ7IrQd7BgAQCIAACkZkAPzBnd6G808ZSKlKkiLLDBzGsLdFBHQiAAAhETAIPHz5UFlXaIlSrQldwrpN/dPUsPt66dYtsFapTpEihiH8/Gi+4dhZD8+XLp4j4wfULri1RokSUK1cuihs3bnDdgm27c+cOsXhuq1CdKVMmSpUqVbBjBdfIoj3PxRahOkaMGMqOcp5LaBNzuHLlik1CdZkyZRQbefLkCe00lPP4XmW38bYI1XxvZMuWjX755ZdQz+XJkyfKQpOvX7+G2gZ/fnlxdfr06UNtIzQnQqgODTWcAwIgAAIgAAIgAAIgAAIgAAIgAAJWEAg4d56KFi4kerLr3GHDhokyMiAAAiAQmQncuHGD2GUni9aWEu+UmjBhQqh2KVmyhzoQAAEQAAH9CbC748WLFyuinV7WeQdxx44dycXFxWqTmzZtUuIy79+/3+pzrOnYp08f6t+/v9Xi24ULF5RdtlrPSNaM86M+vGu3V69eZI27bbb1/v175f/Q4EJv/GhMS+3FihWjLl26KC9L7Zbqli1bRvPmzdPd/Te7Yx80aBAlTJjQ0rBmdex+3MfHR/cY0W3btlVCmBQqZPzdZja4puLp06eKC/epU6dqam3P8k73bt26UdOmTa02Nn36dFq4cCHxfatX4p3/7du3D5MY2DxnCNV6vXOwAwIgAAIgAAIgAAIgAAIgAAIgAAIWCBQtWowCAs4oLfxgSu+HbxaGRBUIgAAIhCkBjmPNMTfZ7bdp4ofP/CCXH4ojgQAIgAAIRBwCvFu4Q4cOhu+pAXabFIuiLIL/aNcqi2JLly612zzYsDXxdvn/Kxa17ZnY/uTJk4Md4sCBA9SpUydlh2ywHW1oZDfTLEAHFy+bd7e3adOGtm7dasNIwZ/Ku3c5rEi1atWC7cii9rhx44LtY2sjx55m4Ty4xK7YQyIkB2crqLaWLVsq92twiyXYBTt/buwVO5znxt4E+PPLnnLsmSBU25MubIMACIAACIAACIAACIAACIAACER7Aj169aVZM7wVDuzWzVY3htEeKACAAAhEWAIcy5N3fvGuONPEu5Xmz59PHCMTCQRAAARAIHwJcJxfjokbVolj53LsakupQYMGtHnzZktNutetWrWKmjdvbtEuewBxc3Oz2KZ3Je+s5p3BlhLHGq5QoYKlJrvUvXv3juLHj29mm13Aly9f3q5CqHbQQ4cOBXndLO7rvXtZO7Y2P378eBo8eLC2SuTDQqRWB+PwKVu2bFGL0pHd9Iele+6rV68q7uulSehYgFCtI0yYAgEQAAEQAAEQAAEQAAEQAAEQAAFTAnPmLaDuTsadhKdPn6aiRYsq3XiXQuLEiU1PQRkEQAAEIjWBDRs20JAhQ4iFEG1il5q8e4tdwiKBAAiAAAiEHwH28nPw4EFpAoMGD6X8+fPZtKDo8+fPdPHiJfKc4C7ZZjF648aNUh0XeHHTiBEjpPr06TMYRLgMFCtWLKk+pIXAwDd07txZs9NevXpFv/76q1Tv5+eniLJSpaEwwXOKIWZvWtPqEJVfvnxFx48dpTWrV0rnsejZuHFjqY4L7HaZQ2toEwu1hQsXpp9//llbHaL8v//+SyyC8//D2uTs7EwzZ87UVin57t2705w5c6T6rt16UKFCBS0K21LHYArfvn0n3g3sMW60WS9LcZ5Xr15NHErENPnMmEVPnz4zuGnPb9pkdfnRo8fUr28vs/4nTpygEiVKSPXs7vu3336T6rgwcvQ4ypw5E3Hs7dCmwMC3FHDmDC1aOE8y4eHhYXHxBIvY27Ztk/r2cRlg+H6Vx6ZY6F++fKGrV6/RZM/xku3SpUvbdcEChGoJNwogAAIgAAIgAAIgAAIgAAIgAAIgYDuBse4TlIc4dWrVoKPHT1LZ0iWFUY7vprrArVGjBtWqVYt69+4t2pEBARAAgahA4Pv374r71GnTpkmXw+LA+vXrieMwmiZ2cfnx40eKEyeOaRPKIAACIAACOhIwdSl89twFKlQw9IKf6dQCzp2nooXleL/sbaN+/fpSV9N5ODhUoCRJkkh9bCmw8Hn58iW6e/eOMGNpN3Pt2rVp586doo+r2zAa4ha8C2jR2crM/AWLaUC/PlJvU2GW44UPGDBA9ClTpgyxUJsuXTpRZ2uG3YpXqVJFMmM6D240fW/Wb9xMVatUks6zpcAi8/DhI2jtmlXCDO9qd3V1FWXOmM7Dc7IXDezfV+pja2HUGHcaPXKYMMO/0Xbt2iXKnOnXrx95eXmJug6dutC4sWMM8bUTiDpbM1u2bqe2rVtKZqx5bw4c+oOKFpE/b5KREBau37hJw4YMpX379ogzly9fTq1btxZlPTMQqvWkCVsgAAIgAAIgAAIgAAIgAAIgAAIgYCAwdZoP9XfpQ8tWrKQG9R0pkSFGq5pYlPb29lZ+6Pv6+io7SYYNMz4YUfvhCAIgAAJRgQALEw0bNpQuhd1/79ixQ3pQznEh2dXmvn37pHrpRBRAAARAAARsJsC7eNnzhZr+OHKUHMqWVou6HQ/9cYQqVXAQ9jiu75o1a0SZ4xKrize58rff0lCxYsVFu14ZFvq2bZNdKGvFvwcPHlCGDBnEcM2at6R58+SdxKLRxszIUWNp2tRJwsrevXuJY0WriWN6nzHsrFUT7zzOkiWLWtTtuHLlSmrVqpWwxyIsi+RqMo0HPXf+QmrerInarNvxoWFHc55cOYU9jmV++fJlUeb4y2XLlhXlXr1dyMd7qijrmWnXviwM7BAAAEAASURBVBMtW7pImGSvMNmyZRNlU8H88ZOnlCCBuct0cUIoMz179aHlSxeLs/l3o3ZRs2k8901btlGliuVFf70yvHilYvlywlzNmjWlxRyiQYcMhGodIMIECIAACIAACIAACIAACIAACIAACGgJzFuwiJy6dFKq2C3dRsPuwcOHDyrlatWqKTG++KEDp4EDB5Knp6eSxz8gAAIgEBUJ3Llzh1igCAgIEJeXKFEiw9/Fw4orU45dmilTJqWNXcCOHm3uDlSciAwIgAAIgIBNBNKmTUuPHz9WbDRv0YpWrVxhk73gTmbRV90xyzF1//rrL9GdRWoWq9VUq3Zd+jlmTLWo6/HJk8d0+vQpYfPcuXNUsGBBpWy6oGrpcl+qX6+u6Ktn5oLBLbpD2TLCpLu7uxIqgys+fPggudRu164dLVmyRPTVO8P/7/L/v5x457a/v7+S53/49wovHFPTG0O4Inul0YbdzFMnTxTmta7Z2SuLi4uLaDvif4zKliklynpmtmzbQfUd6wiTvKC4Zcv/7W42jenOO7BdLLgMFyfbkPnw/gOlTp1KWOA58FzUpHUNX6duPUPbcrVJ92OPHr1oxfKlwq52gYeo1CEDoVoHiDABAiAAAiAAAiAAAiAAAiAAAiAAAloCvqvWUOuWzUVV+fIVDTHhDinlpEmT0j///CPanJyczOK/iUZkQAAEQCAKEOB41ePHj1fibl6/fl1cEceqPn36NHXu3Fk8hGWX4KZxU8UJyIAACIAACNhMQLszlONSTxw/zmabQRkY6DpEinerFbrq1q1L27dvF6c6OspuwUWDDpm3b9/SoUMHhKU9e/YoYixXcBxmjsespmMnTlGe3MZdvmq9HsevX75SsmTG+NiqpyW2zSL+77//Loax5AZbNOqQYffWzEFN2vdGe49wuz2F6iVLV1CfXs7qNOjatWvK9wWucHNzI+agptdv3tAviROrRV2PN2/dphzZjTuop06dKkTyI0eOkIOD0TsAe82qpxG1dZ2IwZj2Gjme/P79+8UQ2vfGuUdvw/cr+31+J0ycTOPdx4ixeTFF3LhxRVmvDIRqvUjCDgiAAAiAAAiAAAiAAAiAAAiAAAj8P4G9e/dT9epVreIxcuRIGjVqlFV90QkEQAAEIiMBjvNYq1Yti1PnXVvs+lSbtA/LtfXIgwAIgAAI2E5AK3QNHjJcEqJsty5b4FjPnhPcRaX273udOnWUMBBqY1gK1bt37zZ8V6+uDD179mxydjYKpSdOnaFcObOr09L1+P3bd0qa1BiDWxsv+/79+5QxY0YxHntcYs9L9kr8/7I2DrP2vdHeIzy+PYXqZYYd7L16GBcKXL16VfE+xeNySBAODaKmQMOCA21IJbVej+PtP+9QtqxGN+vsCp1donPy8/Oj8uWN7rVXrFxNdetY/l6jx1y0QnWlSpWI44qrSfve9OjVlzw0QrLaR6+j56Sp5D52lDD3/v17ihcvnijrlYFQrRdJ2AEBEAABEAABEAABEAABEAABEAABDQE3tyGGHQDjNTXm2R49etCMGTPMG1ADAiAAAlGIwL///kvs6tuaNH/+fGWHtTV90QcEQAAEQCDkBLRCF4RqIgjV/7uHIFRDqDb9awKh2pQIyiAAAiAAAiAAAiAAAiAAAiAAAiAQyQh4ek4mV1fLOyGaNWtGq1evjmRXhOmCAAiAQOgIaIWRoCxUqVJFiokZVD/UgwAIgAAIhJ6A9u8xhGoI1eqdBKEaQrV6L6hHCNUqCRxBAAQiPQH+T+7Lly+R/jrseQHaL4j2HEcP27FixdLDTLjY4HuRY2lwikzMwwWWyaARlZc94qKYXLrdiuwuh1NEZWu3C7fRcETlFSdOnEj9Xn78+NHGd0b/0yPqe63/lepjUeX1888/U4wYMfQxGsZW+Pvit2/fwnhU64ZT+VrX27zX4iVLqXs3J6mBXbjt3LlTqosKBZUV34d8P0bGxPei+vtFvZ7IeB3hMeeIyCsyf1/8/v07qf9HR0S2Ib3Hjh8/TqNHj1bcZwZ17h9//EHFihULqtnq+ojKKzLfj/j9YvXtJ3XEvSjhQCGCENDelxCqIVSrtyWEagjV6r2gHiFUqyRwBAEQiHQEOLbUnj176NSpU3Tz5k16/vx5pLsGTDh4AvHjx6cMGTJQgQIFyMHBgerXr09p0qQJ/qRwaOUHIfwA+NixY3Tt2jV68uRJOMwCQ9qTQMyYMSlt2rSUJ08eKlu2LHF8o/z589tzyFDZ5vtv69at5O/vT5cuXaKHDx9GWDEmVBeIkxQCqVOnphw5clCpUqWoRo0aUvyiiILo2bNntHnzZjp8+DCdP3+eOAaWuoAnoswR87CdQLJkyShbtmzKg36O+8l/GyNa+vz5M23YsEGJtRUQEEB37tyhwMDAiDZNXedTtWp1wy7BPbrajOjGEidOTJkzZ6bChQsTC/ONGjWiiCjS7NixQ/x+uXXrFv39998RHS3mF0ICfN+pv184viD/fuHvkBEt8XdFjhXJv2P4++PTp08j2hQxHxsJ8AIevvfy5s0rfr9wPqKly5cv0/bt2+nIkSPEef79wgsnkKIWAf79kitXLipZsqQSQ55/UyNFDwIQqokQo5qUzz1iVBs/84hRbWSh5iBUqyRwBAEQiDQEpk+fTvzihztI0Y9A69ataeDAgRFCJFy1ahVNmzZNWSwR/d4JXDG7C+zfv78iFIY3jUOHDtHkyZOj5I658GYbGcbnxTx9+vShDh06hPt0r1+/ThMnTqQlS5aE+1wwgbAnkD59eurZsycNGjQo7Ac3GfHNmzfk4eFBs2bNIo5XGt1SzZq1DSLUjuh22eJ6ebFj9+7dyc3NjXhBRXinKVOmKL9feNEOUvQjwL9f+O9ivnz5wv3iV6xYofx+4YU7SNGPQPXq1ZXfL1WrVg33i9+/f7/y+4U3HyBFPwK8sKxv377Upk2b6Hfx0eyKIVRDqOZbvlatWsoCOfX2x45q7KhW7wX1CKFaJRHBjrzzpJRhlVlDw0pwX1/fCDY7TAcEwocA75zu3bs3nTx5MnwmgFEjFAF25TZixIhwmdOjR4+oR48etGXLlnAZH4NGLAIdO3ZUhBB2yRweiUWhmTNnhsfQGDOCEeAdrbyQK3v27OEyMxaoBw8eHC5jY9CIRYB3bHl7eys7W8NjZitXriQXFxd42wkP+BFszF9//ZW8vLyobdu24TIz3iHIv1/49z0SCIwZM4aGDx8eLiB4kQT/fuFd/Ugg0LVrV+X3C3uNCuvE4gQvJJo7d25YD43xIiCBmjVr0owZMxSvKBFwepiSDgQgVEOo5tsIQrX8YcKOapkHlyBUmzOJEDU9nJ1p0aJFylyu37hBv//+e4SYFyYBAuFFgHeutmzZ0uLwDg4VKHvOnJQiRcpIG5/O4oUZKrUrzILqE5Xr3759Sw/u36ONG9dbvMzmzZsT3xthmdi9d7NmzRSXZKbj5suXn4oUK06pU/9G4SVams4JZX0IcJy0x48e0sED+w2u3R9bNHrv3r0w/f+aXcw3bdpUcfNtOqFkyZJT9Zq1DO7+0tHtWzcpf4GCpl1QjqQEPn36RM+ePaWL589RQMAZi1dx8OBBqlixosU2e1XybgjepWUpNWzYmDJkzEiJE/9iU3zt6P5/oiW2wdXZm9fXr1/p1cuXdOvmDTp06IDFqfDvmbDe6T9y5EhiMchSKl26CsWPn4p+ihHf0PyTpS5W1v1nZT+9utkyV73mYIsd+/P67/t7ev/uGR07vt/iRHlxIy9yDMvEniWCuv+zZs1KBQsWVELaxI4dOyynFS5j2fvvUbhclIVB+TrZnTuHpeLfDJYS/6YN680IHIuZfzdZcu+dO28eSpcrA8VKbLgPf46Yf2v0nFV0uRf53vvv83/0+fUnunj8PD03hGSxlNjNdli6pn/w4IHy++XEiRNm00mYMKHiFprDOHA4h6ieotO9yL+l//rrL8NvlwCLf4f4vfbz86Ny5cpF9bc9Wl4fhGoI1XzjQ6iWP/4QqmUeXIJQbc4kQtSkTpWa3rx5rczFw2M8ufRziRDzwiRAIDwI8K6YVq1amQ09eMhwQ/y5BlS0cCGzNlRELQKBBsF646YttG7NGoNr4+3SxdWuXVuJaSVV2qnAP6g5Jqxpcu7Rmxo1bkSVKjiYNqEcBQls27GL1q1bR8uXLja7urASq1+9ekXssu/cuXPSHFq0bE2NmzShhvUdpXoUoiaBI0eP0fr1G8ln2hSzC9y7d69yj5g12KGiieGeW79eXlBUtVoNamZ4KN6oQX1KkuQXO4wKkxGJwMVLl2nDxs00ZpT5TsHZs2dTt27dwmS6Q4YMofHjx0tjZciQiXLkqk3PP6Slfz7HldpQiHoEfon1iVLHf0R3bu+hP/+8KV3ggAEDaNKkSVKdvQq8SKNTp05m5jlMA3tiyZ8/v1kbKqIWAQ45sHr1avLx8aFLly5JF+fo6Bhmnpl4V7+Dg/lvlJqt6tDnXD/RyeTvpLmhEDUJlHmcmL5d/ED7N5u72WZvYWnSpLH7hfNCCf79wnGotYnDKTkbNus0aNBAW418FCXAC2fmzZtH/JzPNHE4qwoVKphWoxzJCUCohlDNtzCEavmDDKFa5sElCNXmTMK9hn/U8o5qNfFuat5VjQQC0ZEAr0QvU6aMdOkNGzUhtyFuEKglKtGn4DnZi1wH9pMuuHPnzjR//nypTu/CS8OuseLFi9Pdu3cl09t37qbaNatLdShEDwK+q9ZQ65bNpYstW7Ys8QNBeyd2kbZ7925pmIWLl1LH9uHj2lSaCAphTuDAoT+oSqUK0rjJkydXQmXwrhR7Jo4txy6etWmcx0Qa6hb+MYq1c0I+bAhcvX6DPNw9yHfFMmnAXbt2UY0aNaQ6vQtz5sxRXIlq7Vap0ob++pifPn79WVuNfDQgEDvmN8oU/xLt27dUutpp06YRi8X2TPygvVKlStIQ5cuXV1ybslt8pOhHgHfzjxo1SrpwXsDDC3nsmR4/fkwlSpQw8wRVdXQ9Op7qrT2Hhu0ISsDh7i+0c+ImaXbshYe98dg7Va5c2WycBQsWWFzUY++5wH74E+DY5KbfDX/77TfikH/p0qUL/wliBroRgFANoZpvJgjV8kcKQrXMg0sQqs2ZhHsN7xzduGGDNI8VhjjVjQzxqpFAILoRKFKkCJ09e1Zcdueu3WjenFk2uQ4VxpCJtATWGnYQNmsi/01cunSpXeMP8t9m01W/d+7eo0wZf4+0HDFx2wmcPB1AJYsXlQwNGjSIOFavvdK4cePM4hsePOxHFcvDVZq9mEcGu8+fv6BUqVJKU7W3x4mNGzeafT9dsmwFtWtj7gVFmhgKUZ5A334DydtrsrjOLFmy0LVr1yhWrFiiTs/MDcOi3ty5c9P379+F2arVu9GNNzlEGZnoSSBH4lu0b+8s6eI5XnSBAgWkOj0LefLkoatXrwqTHDKGd9YiRW8CHB6Dw2RoE7sADyq8lbZfaPOWPJ7k96pGd+J9Da1JnBcFCBR9FZ8OD5W9lA0bNozGjh1rt6vj8Aum9nlxLy/yRYq+BDiUleluft5Zz78xkKIOAQjVEKr5boZQLX+mIVTLPLgEodqcSbjW3L9/n3LmMH+g0tAgUod1HKNwBYHBQcBAYPLkyTRw4EDBonGTZrRuLR7yCCDRPMNiSId2xoc97H2C3S7bI/FOMP5SpU03b92mbFmzaKuQj6YE/I8ep3JlS0tXzy7t+EG13onjumXIkEEyu2vPPqpRrYpUh0L0JPDk6TNK81tq6eJ5gU2LFi2kOr0K7LpW68501px51N2pi17mYSeSE+jQsTMtWbxQXIU9H4Kz0LNq1SoxVtVqHelGYD5RRiZ6E8iR+KpBrDZ63rHnQ3B3d3fie11NvINw//79ahHHaE5g7ty5UigEjlV+69Ytu1DZsmUL1a9fX7JdcGo1uh0fIrUEJZoWSr5IQPuHb5OunmOrZ8uWTarTo3D7tuF3s4ld/rvIfx+RQIDjpKdPn14CscGweathw4ZSHQqRlwCEagjVfPdCqJY/wxCqZR5cglBtziRca7ymetEQg0tjS4ndf7MQgwQC0YUAizEsyqjp/IVLVCA/3OWpPHAk6j9wME2dbNy5OmvWLDO3n3pwMv1CtW7DJmrcUH7wo8c4sBF5CcyYNZd69egmLsDJyYnYDa3eydXVlTw9PYXZCZ5TzFzhi0ZkoiWB3Xv3U83qVcW1lypVijiMht6JBXD2NKEmp+49ac6s6WoRRxCgu/fuU+FCBen169cKjYQJE9KLFy8obty4utLhhUH58hlF6ZIlKtLjnxx1HQPGIj+B9DF309Gjxtis7Fq0WLFiul9YypQplftcNXz9+nXKYWEhutqOY/Qj0K5dO1q2zBgegcMXcRgjvZOpm+XqI+rT0TSBeg8De5GYQPlrv9AOb6Mb8N69e5uFc9Hj8kzDxPCCniFDhuhhGjaiCIGtW7dSvXr1xNVwuIzDhw+LMjKRmwCEagjVfAebPlf977//xI2tvUe48k2g/b6vLFvua3h2112MzV6QcuXKpZQHDx4seUcMfPuWEhl+w9ojQag2pwqh2pxJuNbwbmreVW0peXiMJ5d+LpaaUAcCUY7A5s2biXc7qGn4yDE0ZtRwtYgjCCgE2PV2lsyZBA2OZ+7v7y/KemTu3LlD7LJUTa3btKPly5aoRRxBQBCoVq2GIRbm/x6CJ0iQgAINX65jxIgh2vXIpE2bljjeIKcCBQoaQiME6D6GHvOEjfAl0M25F82dPUNM4syZM8ShNPRM7FZ8586dwiQWkwkUyGgIeE72khbTLF68mNq3b6/pYXuWH3aPHz9eGKpUzZVuB8qeBUQjMtGWQOZEL+jwPg9x/SyceHl5ibIeGXbvrfVgwQ+7tPemHmPARuQnYLq7tEKFCsRxzfVMvEBCfejKdqs1rknHqnzScwjYiiIEci97R6eOnVSu5tdff6VXr17pfmXJkycXdnkzQlDPPHUfGAYjFQEWqlmwVhN7bcqbFxtVVB6R+agVIQcPGU7j3cfY7XJc3YaR5wR3YV8rhtapU4d27Ngh2hwd7bf55K1B4Dx06IAYa/fu3VS9enWlPHv2bHJ2dhZtJ06doVw5s4uynpnv375T0qRJhMlevXqRj4+PUua/xRkzZhRtvCFC69VUNOiUgVAtg4RQLfPgEoRqcybhVnPgwAGqY3joF1Ti3dS8qxoJBKIDgW7duhG7RlPTpStXKW/u/61wUutwBAEm0LO3C82cPk3A4DhHqVPr94Cad8V2725cbbdm3QZq2rihGA8ZEFAJTPOZSS59eqpFRcSrWbOmKNuaOX78OJUubXQxPmbceBo+dLCtZnF+FCSwZ98ByR283jtXPn78SPHixRPk2rXvZHDxvECUkQEBlcDDR48pfbq0apGaNm1Ka9asEWU9MoUKFSKOOcwpb95CFJiwrR5mYSMKEkj9fROdOuWnXFn27NmJY5vrmXgRxtKlS4VJFiS1ix1FAzLRnkDjxo2JXduqicVBFgn1St7e3sSLMdRUY3h98k8bqBZxBAFBoMLlxLR9xmZR5ueSlSpVEmVbM7wrtmLFisLMyJEjadSoUaKMDAioBEzDFXAowP79+6vNOEZiAhCqsaOab18I1fKHGEK1zINLEKrNmYRbTQ/DappFixYFO/4KX19qZIhXjQQCUZ1AwYIF6cKFC8plVq9ek3bvNu7aiurXjusLGYGVq9dSqxbNxEn8A8fRUT+Xnx06dKAlS5YI++yCJnGiRKKMDAioBC5dvkL58xlXffNDGH4Yo1cyfeh4xP8YlS1TSi/zsBPFCKRO/Rs9e/ZUuSr+m8h/G/VKR44cIQcHB2FuzrwF5NSlkygjAwJaAk2btaB1a1crVbzw9t69e9pmm/L//vsvJdL8n1y1aju68bagTTZxctQlkCPxZUOsamPc9KdPn1KqVKl0u2Dewco7WTkVLlyYAgICdLMNQ1GLwMKFCyV339qdVnpcacuWLWnVqlWKKfbuk3xGRXofw+hiU48xYCNqECj4Oh75DzbuMGQvEOwNQq/EO/Q4dJGaTp48ScWLF1eLOIKAIPDt2zdlIeyXL1+UuiZNmtDatWtFOzKRl4BWqO5l2Gji4z3VbhfTo1dfmjXDW9jX7qjme2r9+vWizZ47qjn0kZ/fYTEWL9phl/ac+PkiP2dU0979B6lE8aJqUdfjq1d/U+ZMGYVN3jGthpJ79uyZtMmHvVTxAnd7JfaAqYYky5MnD3H4JjVxOB72Aqcme7r+njV7Hrm5DlCHIvaimSlTJqXMz/BGjx4t2u7d/4t+z5BelPXMBJw7T0ULFxImZ86cKXbanz59Wvq/ctacedSqZXPRV+/ML4kTC5O8oEDreUD7+W3foZMhRIi+HqnEwIbMyFFjaNrUyaLq+/fvpB1fNNiY+cnwhwHfioOB+MbwByxHjpz05s3rYHoRNTSI1L4GsRoJBKI6Ad6pxTu2OPXq0498pk2J6peM6wslgSvXrku77SdNmkQDBhi/dITSrDhN+2WqmmHRxB4smhBskDEnoP0SxQ8J9fw/u0ePHsRx2NX0/sMHiqdzrFfVNo6Rn0Cz5i1p7Zr/PaTOmTMnXbt2TbeL4oWVnToZhWn/YyeoTKkSutmHoahFYOjwUeQxzviD/927dxQ/fnxdLvLcuXOKIKgaq1LNhW4GZlCLOIKARCBb4sd0YO8kUceLbsqWLSvKtmT4cUfMmDFJfezBfyMXLICnCVuYRuVz2QsEe4NQE7vhZHeceqWiRYuKhRLlqpanc41i6mUadqIggX+7HRRXxeLJjzbQiM5WZDj+Oi/MUJO9Hjqr9nGM3ARKlChh8HxySrmI/Pnzi80rkfuqMHsOQXX27FkBQv2uJCp0zGifx7D4qd5PPMSwYcMkIbZy5arEIdvska5cuUx//nlbmH706BGlSZNGKR89elT6/jly9Djq59Jb9NUzs37DJurUoZ0wOX/+fGmhnJYXLyLixUT2SHz96dKlE6YbNmwoeZZp3bq19OyMw4plyvS76K9npnPnrmIRNdvV3o8rV66kVq1aieEWLl5KHdu3FWU9M5OnetPA/kbvN3v37qWqVasqQ/zzzz+Sp51OnZ1o6lTjbxg953Em4BxVrvi/RRRs18XFxTCWcTEJL7Dw8/ufRypuf/bsOcWNF5ezuietYK73MyztZCFUa2lYyPMXQd5RbU1i99+8GwEJBKIqgTdv3lCSJEnE5Y11n0DDhhhX4YoGZEDAQOCtYTeVdoezdoWgHoCyZctG7LqRU5u27WnZ0sV6mIWNKEpA+0W/cuXKtH//ft2u1NRNpPYLtW6DwFCUIaANi5A0aVL6+++/dbs23m3DK67VZM+VxuoYOEZeAt7TZ1Hf3j3EBfCOar1+y/AuRG2IhfJVh9Ldt8nFWMiAgJbA7wn/oSP7jXER2fUyPyjTIz1//lzana23VxU95ggbEYcA/5+cLFkyMSF+eD527FhRtjXDcYAfPHigmKnWxBCfuvInW03i/ChMQCtUm+6ksvWy69atS9u3bxdm8PtFoEDGAgH2ILpx40alhcO5cVg3pMhPYOjQoeTh4SEuxF4hzEaP9aBRI4aKcYYPH05jxhi/9/3xxx9UoUIF0Z4qVWoqUaKkKOuVMY1PzQswTpw4IZnXPjfihoOH/ahIYX29Qj19+oxyZM8mjWv6O6xNmza0YsUK0Ye9+PXurb9o3rZtW1q+fLkYh0N9du3aVZS5jfuoqauTM02aNEEt6nZcuWoNdXfqIuyZCuam3+e54917hljev+u7EPrCxctUsEA+MQ/OmC7k4rAZvBNfTct9V5Fj3dpqUbejk1N3Wr3KuCl2165dVKNGDWHf9NnPoMFDaagdNBofwzMDbWhDU8FcTEiHDITqH0Dk2NQcC4Yf2nAw++CSh8d4cunnElwXtIFApCZg+h/DBM8p5DqwX6S+JkzefgS+fv1KsWLFEgPwlyr+cqVX0n6B7NipKy1cMFcv07ATBQlo7xe+PD0fxrD75m3btglqetoWRpGJMgRc+g8yuE0yrrrV835hd1gswqiJV9WmTJlCLeIIAhKB2XPnk3M344MIjgvM8YH1SFu3bqV69eoJUw5VhtO9f/WL8yoMIxMlCKRL8IaOHRglroVdIzdvro8bvYcPH1L69EbXgHq7zxWTRiZKEGDPEgkTJhTXovdCW+330eotatPR8h/EWMiAgCkBrVBdpUoV2rdvn2mXUJerV69OvEtMTXp+H1Vt4hh1CPBORt7RqCbcLyqJyH1kcVR1raxeyeAhw6mbQTDUw60yL5qebXCN7DnBXTWvHF++fCktCuNKU/GPxep8+fLr4u2J79eLFy8YdJ17yvjqP+xu3DSMKy9OGzFihNpFOfYb4EojNUK71BjCwv4Dh6hRA+NvJD6dPfTNmDFDsuTv70/lypWT6nhhQb9+/aQdvVKHEBSuXr2qLBZYs2aNdJalz3bWrFkNu9D/FP14F3HnLp0pd64coi60mcDAt7RsuS8NdRskmeDd7aVLl5bqWEDnnefatHX7Tqpbu6a2KtT5dYZd7k0bywtleSGHm5ubZJOZmf5OaduuI03ynKDLjuaAs+dp/rx5tGqlcaECs2Am2sSfoxQp5Gc9vfv2p04d21PGjLZvpH3y5CktXrKMJo4fpx1W0Ud54aU9EoTqYKiyMJ0zx/8+dNt37CAWrYNLLGbzrmokEIiqBCBUR9V31j7XBaHaPlxhNXQEtA8G2YKlL+Chs0xK7HUI1aGlF/3Og1Ad/d7ziHrFEKoj6jsT/eYFoTr6vecR9YohVEfUdyZ6zgtCdfR83yPiVUOojojvij5z4hB9gwbJIqE+li1b8fLyor59jW6V1V7Hjx83EybVNnscGzRoILwEmNrXuro3bbNHmZ+1mwqOPA7vXJ02bZo9hrRokwXYpk2bmrWxpyP2IhhWqVu3bjR79myz4Uw1CbMOdqgI6rlhixYtaPXq1XYY0bJJS8I99+T42T179rR8kh1qx40bR7xgwl7p/9q7E3itpv3x419DhKj/9UNcbi5xMlaKc7q4STQoNHBLRSkNSmlAg8ycFEpRVCrRCVGmpFIZr+pqRipdVNxbpsqUazr//d3sfdbez3CeYT+nfZ7ns16ve/ew9l577ffaTs/zfPdai0B1HNlRI0dZwycOduefdnpXxzlFplnzVPvfxol3vJmnPbdLC4abxzvrGkTXYUw1JTIn5q4/5hd2zmeJQKIC/n8U6FGdqFxuHkegOjfbPax3TaA6rC2Te/UiUJ17bR7WOyZQHdaWyb16EajOvTYP6x0TqA5ry+RmvQhU52a7h/GuCVSHsVWCq9OAAQM8c98GV7K3pERGKfH/buMtIZitc889V3QY5X322Sdqgdp7WHsRl0XSYc///ve/x7yUf2jumAemmTFixAjR9omXyqJtLr30UpkxY0bMarz99tty5plnxswPMmPdunWS90cHVn+5v/76qzRv3lx0uqtMp1jBcue6OpS+BpAznTQg/sADD2T0MgSq4/Bqb2rtVT123Djp3LmzJDJftR6nx6eS9Fojhg+3r5PI+Xqt6tWPswLprdz55DS4/sWXX8jkSZNl584dnmK0x3f37j0YntyjwkYyAgSqk9HiWALVPANhEvB/qC7tw14ydWfo72S0OJZANc9AWAQIVIelJagHgWqegbAIEKgOS0tQDxUgUM1zEBYBAtVhaYnM1WOCNdRw9+7dM3aBRx55RLp06VJq+dpzdODAgRHDHJd6YoIHaFD+3nvvLfXonTt32j2ap0yZUuqxqRygQU6tR6xAqFnmcCtWNGjQIHNXYOt6/bvuuiuhTpc6tdOQIUPk/fffD+z6ZkE6b7kGXUtL+iLBddddJ88991xph6aUr3/vRo4caU2hdmip5+uw4HffHfyc3Xph7dmvZZvzt8eq0GOPPSYdO3aMlZ32fh2aXoeoz3QiUB1DWIc16GA9mJq2bt0qlatUsderWnMk+APAdobxf+bxxu6EVxPpWa09qLUndazkD6ozf3YsKfYnI0CgOhktjiVQzTMQJgEC1WFqjdyuC4Hq3G7/MN09geowtUZu14VAdW63f5junkB1mFqDuhCo5hkIiwCB6rC0RGbr8dtvv0mRNVKs9vLVznTaazTVtPfee9ud6urXry8dOnRIuphXXnnF7q2qvVp37dqV9PnmCYcddpicfvrp9vzO5v5E1jUoqwHRlStXytdff53IKTGPOfDAA+Xkk0+WZtbUsv75l2OeZGSMHz9etEfxZ599JtpWqSbtSX7ssceK9ixPZVTgZ599VhYsWCAbN26U+fPnp1oNe17yI444QurVq5dSEHTJkiUye/Zsa/7xNWJOxZdKhVq0aCG1atWSiy++2F4mW8bo0aNl6dKlsm3btrSmGaxYsaL98kKjRo2kadPk595+4okn5LXXXpOPP/5Y9Df5VNNee+0lOg+1zpPerl27mKMPpFp+rPMIVMeQ6dWzp92z2d9D2tkf4zR7dxBBYX1DZZT19ka8pPNhay/paMk83+kRHu049iGQjACB6mS0OJZANc9AmAQIVIepNXK7LgSqc7v9w3T3BKrD1Bq5XRcC1bnd/mG6ewLVYWoN6kKgmmcgLAIEqsPSEtQDAQQQyF4BAtVR2nbnjh1StWpVO8c/5/SqVaukXkFBlLNKdmnwWIPI6SStg3bx1zeYYiV/EN05Ts/JPyPf7vndr39/KSwsdLJYIpCWAIHqtPhy7mQC1TnX5KG+YQLVoW6enKocgeqcau5Q3yyB6lA3T05VjkB1TjV3qG+WQHWomyfnKkegOueaPLQ3TKA6tE0TaMW0h+rUqVPtHpnakznddMIJJ9jDFuuQxBrjSDTpSLU6FLnOI611SjcdeeSR9vWfeeaZpIvSIct11N2g5iLW+agvvPBC6Wl1kNx///0Trs+8efPs3u5vvfWW3Vs24RNjHHjKKafI+eefb091e9JJJ8U4KnK39qKeNGmS3ZN6xYoVkQckueeYY46x55zWXrtNmjRJ+GztUT527FjR4ci1d3cQSXswt2zZUrp27Zp0cW3atJHFixfLli1bkj7Xf8IZZ5xhW2g99NlNNC1fvlweffRRefXVVwMZnv34448XHRFB50k/66yzEq1GWscRqI7C5wybXblyFdm6bWvEEQX5BbJ69aqI/eYOHZZbh+dOJyUyBHi06zS3hpDQc0sbHjydunFubgoQqM7Ndk/1rglUpyrHeZkQIFCdCVXKTEWAQHUqapyTCQEC1ZlQpcxUBAhUp6LGOZkQIFCdCVXKTFWAQHWqcpwXtACB6qBFw1fe1VdfLQ8//HDGKqaBWQ0slpZ0LtzevXuXdljK+Trf77hx40SD6PGSDp+s9XjvvffiHZZW3vTp0+Wyyy6LW8b27dvtucOffvrpuMelk6mj8uo81aWlO++8M6E5pEsrJ1Z+q1at7GfwkEMOiXWIvV+HYu/bt2/czp1xCygl88QTT5QxY8aUGtfTubL1vxsdpj5TSefK7tevX6nFq4cOP56ppJ1lJ06cKHvuuWemLmGXS6A6Cq8TiI7VY3nUyFHW5PGDo5xZsivWuSVHJLamHwZmWW/uxErae1vHwHfm0Hbq5t8f63z2I5CMAIHqZLQ4lkA1z0CYBAhUh6k1crsuBKpzu/3DdPcEqsPUGrldFwLVud3+Ybp7AtVhag3qQqCaZyAsAgSqw9ISmamH9mTVHruZThdccIG8ZHXsi5Vuuukm0WBoWaTVq1fLqaeeGvVSOt/xRRddFDUv6J36ckD37t2jFvvFF1/IoYceGjUv6J2dOnWSKVOmxCy2R48eonNkl0XSeZ5j3bfWUWNuZZG0t7b2fo+WdO5ynW+8LNLgwYPjjpasAX6dNzzTqUGDBrJo0aKMXoZAtY9Xh82ukZdn711sDS+hE6n7kzk0uD/P3NahKpwAsrk/mXW9Vl5eDXsY71jnOcN761AUHazAtqZYdY9VBvsRSESAQHUiShzjCBCodiRYhkGAQHUYWoE6qACBap6DsAgQqA5LS1APAtU8A2ERIFAdlpagHipAoJrnICwCBKrD0hLB1yNaALJx46Zywkknyz777JPyBX/66X+y1grmzZ/3sqeM/tYUpffdd59nn25o72J9zvzp6p695cCDDvLvTnhbh4jesnmTPPXk9IhziouLI/Z9+umnctRRR0Xsv6JjZ6l6+OER+5PZsX371zJx/EMRp7zzzjtSt27diP0aJJ09e7Znf4uWreXY6sfJXnvt5dmfzMaPP/4oY+6PbIMRI0bI9ddfH1HUvffeG3W/9gavVKlSxPGJ7vj111/l3XffFb1/MzWzRgr237fm63E6LLY/Xdmlqxx88P/5dye1/bkVHH9s6uSIczS2d9hhh0XsP/3002XZsmWe/Zf+o61UO/qvafU6/u7bb2Xc2DGecnXjiSeekLZt20bs1/+eRo0aFbH/2n7Xyb777huxP9EdP//8s6z/YK3MmeN9/rp165bRFxYIVPtaSIc7GGV1qy9tnule1pAVOkR4vFRYOEz69S+9e368MjTP6SUd7zi91vDhw+2A9lhrCIuyerskXp3Iyz4BAtXZ16aZvCMC1ZnUpexkBQhUJyvG8ZkSIFCdKVnKTVaAQHWyYhyfKQEC1ZmSpdxkBQhUJyvG8ZkUIFCdSV3KTkaAQHUyWuXn2LffftueH9is8ZSpj0unKzqYu9Ja1/I6d7rCU8bKlSsjOgb6f6+58aZb5eahg9MKlpsX1Xo8UVRkDdNc0nNcA+Ya6DOTBuJ0iGMntWnbTq6w5ti+oEkjZ1dayw0fbpQHHhwrD4653y2nefPmor24zfTkk09GDAv+/IsvyUXNLzAPS2t99APjpG+fXp4y/IHZr7/+2goCH+w55tZbb5VbbrnFsy+djWg92PX+dd5nM2kAe86cOe6ubt17SrfuXaVO7chOpu5BSazMX7DInqN9+rTH3LN0aG8dKt5MOhz3gAEDzF2y6LU3pEH9sz37Ut3QFyhuu6NQbrtlqKcI/4sVa9askZo1a3qOGT9xsnS76krPvnQ2ip54Sjq08wbI33zzzYzNWU2g2tdaVQ+ragd7nV7Kvmx30+y97O70rZQW7PYdHnfTmXc67kFWZlBDjpd2HfJzU4BAdW62e6p3TaA6VTnOy4SA/4uP/0NeOtfUYaHMLxZBlp1OvTg3nAIEqsPZLrlYKwLVudjq4bxnAtXhbJdcrBWB6lxs9fDeM4Hq8LZNrtWMQHV2trgOOT1hwgT35h59bJp0vDyyV7N7QIorU6ZOs4LVl7tn+4N/s2bNktatW7v52hv0/pH3uNtBrbz/wTo5+UTv3NTmbzf+zwB63R07d0rlNHp0x6p7+8s7ihkQXb58uZx22mnu4f7h2OfOXyCNz2/o5ge1cs9998sN15V0stS5qrUTp5Puv/9+zxzJgwYNkmHDhjnZgS11SOmGDUvur379+qLzhDtp3bp1EfOKm23nHJfu8oddu+SA/ff3FPPll196gvU65LcO/e2k5StWyWm1vQFjJy+d5cDBQ2XE3SVzh0+bNs0z6oAGyzVo7qSHJzwi3bt2cTYDWz454xm5rM2lbnmXX365PPZYSTDfzQhghUC1gWgGn9etX2/3qjayI1Z1iHAdKjxemm3NvWD+hxbv2Hh55pDksY5jXupYMuwPSoBAdVCSuVEOgercaOfycpcEqstLS2V/PQlUZ38bl5c7JFBdXloq++tJoDr727i83KH/R2odAlOHwgwqmZ9HG1/WTP5Zf1dQRVNOFgoQqM7CRi2nt0Sgupw2XCnVPv744+XDDz+0j2raVHureof5LeX0pLIbN7nAHQa8Ro0a8sEHH7jn9+3bV0aPHu1uv7f2AznphBrudpArN996h9xx281ukeut+I86aNJ5ujVA7CT9rtSj21XOZqBL7b1rBp51+GZ1cJL5eUGHtp78SMkLBc4xQSx1aHRzGPFGjRp55itv2bKlPPfcc+6lvrWGpk5nuG+3oCgrl156qTzzzDNuzi4raFyxYkV7W3u5a293Jz37/IvS4qLmzmagS/8oADr/c4sWLexr+IeGv2HQjTJ8WGbmVf/o40/k2GP+6t5b165dPS+W1KlTR1asWOHmZyJw7xTestUl8tyzM+3NI488UrZs2eJkBbokUG1w6j+8s6x5nmvWrCVLli4xcqKvJjIkd5A9nBO5XlCB8eh3zN5cFyBQnetPQHL3T6A6OS+OzqyA+UFfrxTkhzh6VGe27bKtdALV2dai5fd+CFSX37bLtpoTqM62Fi2/90Oguvy2XTbWnEB1NrZq+bwnAtXls91Kq7X5G8mA6wfJvSOC7ynr1CHed2B/MDTI32qc6zvLmc8+L5e0+j3oqPsWLFjgdjD0B0PfWb5C6p5W2zk10OX3P/wglQ44wC2zX79+bu/Yzz77TDQY6CTt9Xxd/2udzcCX7TtcIdOLHnfLNf1r164tq1atiprn7gxoRYdiv+6669zSNmzYIMcdd5y9PXToUNHe3k76/PMv5JBD0puX2inLv9QXJU456UR3t75E0adPH3vbP1z+tOlPSvvLvEOUuycGsGL+N+p/icDM07nco81tHUAV7CJ0KP7CO29zi/vpp5+kQoUK7nZQKwSq/5DcuWOHVK1a1d7S4HIrY8iJWNjay1nnqi4t6fj+latUKe2whPJL68Ud5HDjCVWIg3JKgEB1TjV32jdLoDptQgoIUMD8EKfFmh++070Mgep0BXPr/Hhf0tOVuO2220TnjHLStm2fy6GHHuJsskTAI0Cg2sPBxm4UIFC9G/G5tEeAQLWHg43dLECgejc3AJd3BQhUuxRZtWL+RjJoyE0y7K7bM3Z//mGMzd9jdI7ml6wRaZ1k5jn7glrOnjNXLmzW1C1u7ty50rhxY3v7oYcekp5GnGfNu+/JKSef5B4b5Iq/J3Pv3r1lzJgx9iU03nT00Ue7l9O5pPtcc7W7HfRKpyuvkqmPTnKLNf3NZ0QPMPPcEwJaGTt2rFxzzTVuaWvXrnWH+9Yhx4cPH+7mfWP17D6wUiV3O8iVjf/+SI6rfqxbpDmX+RtvvCE6LLmTnp75rOfFB2d/UEvT/9xzz5WFCxe6RZt5ffoOkNGj7nXzgl659fa7PHNm/2C9aLHffvsFfRkhUP0HaSK9lVPVLywcJv36l4z3n2o5ep4+kDpfdbwU5PXiXYe83BMgUJ17bZ7OHROoTkePc4MWMD/EadlBfsAmUB10a2V3eQSqs7t9y9PdEaguT62V3XUlUJ3d7Vue7o5AdXlqreyvK4Hq7G/j8nKHBKrLS0slV0/zNxIC1SIEqn9/fszfysxnRHPNvOSettKPJlAdaWT6E6iO9MnaPQX5BbJ6dclQBkHeaNC9nJ0hyuPVcfGSJVKrVq14h5CHQNICBKqTJsvpEwhU53Tzh+7mzQ94WrkgP2ATqA5dc4e6QmUZqP5k02ap9pejQu1B5XafAIHq3WfPlb0CBKq9HmztPgEC1bvPnitHChCojjRhz+4RIFC9e9wzfVXzNxIC1QSqnefN/K3MfEY038xzjg9qSaA6UtL0J1Ad6ZOVe3Ss/XoFBfa9TSsqktYJDPttQlQ9rKrs3LnD3BWxHlTg2KxrxEWMHQ0bNhSdr5qEQJAC31pDaxx00EFukbfdUSg3Dx3sbrOCgCmw85tvpErlyu6ugQMHyt133+1up7uSl5cnOmeJpnbWnCpFj09Nt0jOz2IB8wOef26XdG+7TZs2MmPGDLeYTH54dy/CSrkV6Nmrjzw07gG7/gcffLB8+eWXgd3LiBEjRP/WOunfH30sx/z1aGeTJQIegVGjH5D+fX+fb0szNm/eLEcdFcyLDa+88oro31onnXP+EPnoW4ahdzxYegWOrvS1vLHgDnfns88+Ky1atHC301nRv7GHHFLy7N10001y++2ZG9oynbpy7u4X8L+YffPNN4tOqxFU0qE8dUhPTY0uaSpvn/e/oIqmnCwUMAPVF154obzwwguB3aX+jX3++efd8vj+4lKwEkXAfF6OOOII0Tl0SeVfwPyNhEA1gWrniTb/PTCfEc0385zjg1oSqI6UNP0JVEf6ZOUenWd68uTJUrlyFdm6bWvS9zhkyBAZNXJk3PN03uux48bFPaa0TJ1Hu3HjJnbPb51De9bMmXFPYQjwuDxkpiiggWoNWGvSH9vHPjg6xZI4LdsFVq1+V2rXOtW9zfvvv1+uvfZadzvdlXPOOUdef/11u5gGDRrKokUL0i2S87NYwPyA17FjR3n00UcDu9u+ffvK6NElfwu3b98hVaqUvKQR2IUoKCsEWra6RJ579vfPcKeccoqsWbMmsPt67LHHRJ9vJ736+ptyzt/PcjZZIuARuGHQjXLP8EJ3308//SQVKlRwt9NZeffdd+XUU0s+A5zf6FpZ/83R6RTJuVkscHzlT2XBvPvcO1xijQ6Wn5/vbqe7su+++4o+35ouv/xy0b+VJASiCfzrX//yPHs6DGiPHj2iHZrSvnr16ok+35r+1uBsWdMmmL+5KVWGk0ItUPG3PeTLniVzUXbr1k3Gjx8fWJ2vvvpqefjhh93ydu3aJRUrVnS3WUHAFNARO1evXm3vqlu3rrzzzjtmNuvlVMD8jYRANYFq5zE2g9HmM6L5Zp5zfFBLAtWRkqY/gepIn6zc4/SI7te/vxQWlvxYk+jN6huxNayefaWlrVu3SuUqVUo7LGa+E1B3eks727FO0MD7+vXr0rpmrLLZn7sC+qORfoHXRHAwd5+DRO58ytRp0rnT5e6hc+fOtV62aexup7vi/3L9n/9ulcOrHpZusZyfhQJL/rVM6uWf7t6Z9uw3e526GSmu6I9G5o+Y8xcskvMbNkixNE7LZgENlBxwwAGiUyNo+sc//iFPPfVUYLfs/4H9/jFj5drePQMrn4KyS+DCi1rI7Bd/7011/PHHW98b1gd2gz///LPss88+bnnnnddeNnxX191mBQFTIO/AVfLKK1PdXdu3b7de+Er9e7Nb0B8rtWvXFh2ZTNMJJ5wga9eu/SOHBQJegQceeED69CkZaeLVV18VfTk2qKQdGKZMmeIWd8wD58vnFX51t1lBwBE446sDZNGNLzqbMmrUKNGXY4NKY8aM8bxE/tprr0n9+vWDKp5yskjAP7IiL3xlT+OaQTAC1QSqnSfbDEabz4jmm3nO8UEtCVRHSpr+BKojfbJuj/ak1oCvpnXWjzM6n3QqqXmzZrJwYcnbjtHKSKeHs1NPrd/SpUvt4LP2sM7LqxF32HHteV1kDWdOQiAogX79+on2jHWSBoDyT6/jbLJEwBXoclV3mTxpgru9w/qbVdkYCtzNSHHF33Nw8qOPyZUdSwLjKRbLaVkocNewETJ0SMlwyEH/EKNvl+tb5k4afOPNUnjnbc4mSwRcgWdmPSeXtm7pbgf9o6MWrIHwH374wb7GP9pcJk89Od29HisIOAJr162Xk06o4WxKp06dPMETNyONlTPPPFPefvttu4TDD/+zVDj6OuvXjTQK5NSsFdh/xyRZt+49+/7039OVK1cGeq+9evWSccboZitWrBANXpMQ8AvolAU6dYEm/XFQ/z0NspfpxIkTRXvGOqnpoJby5tE7nU2WCLgC56w8SGaPf87dXrx4sRT8MWWhuzONFf/Ljf2tjjv33VcyskUaRXNqlgk8/vjjcsUVV7h3pf+eaqcBUvkXMINgBKoJVDtPtBmMNp8RzTfznOODWhKojpQ0/QlUR/pk3R4nwFyzZi1ZsvT3IZhSuUknkBzvXA0yazA82aRvfzexhvzWebB13mntUe2kmdbw3x3at3c2oy5TmXc7akHsRMAS8M852P+6gXLfPXdjg4BHYOWqNXJa7ZruvqDnBNaCv/jiCzn00EPda1x0cUt5/rlZ7jYrCKiA9mA97bQ68v77v/8AXrVqVfnvf/8bOI720Fq3bp1drvYC27DhQ2tOzP8L/DoUWL4F2l/eUaZPKxlyVnuwak/WIFPbtm09vbRfe+MtqX/2mUFegrKyQOCmW26XO2+/xb2Tp59+Wi655BJ3O4iVYcOGiU6R5KTzGvWTDd/8xdlkiYAtcNxBn8nC+fe6GkOHDpU77iiZr9rNSGNlzpw50sx6sdxJ3bt39wx56+xnmdsC2iHADARedNFFnjl8g9DReV2PPPJIt6gGzc6Tdy78zd1mBQEVqPLLnrLHiA2yZfNmG0R/S/zkk0/s9SD/75hjjpGPP/7YLlKnePv000/lwAMPDPISlJUFAn//+9/lzTffdO9En8VUO3m5hbASCgEzCEagmkC181CawWjzGdF8M885PqglgepISdOfQHWkT1bt0R7QGqjWlE5vZz1fezfrj9+lJZ2nWod7SjSZ81LHGpq8vRWojjdftdkLO9HrchwC8QROPvlkK+jzvnvIotfekAb1z3a3WUHgqm49ZNLEkjm09C3cDh06BA7Trl07eeKJJ9xyx0+cJN2uSvxvrHsiK1krcMddd8vNQwe796dDfuvQ30Enf0Am01/0gq4/5WVeoOiJp6RDu7buhZo2bSoaPAk6vWS91Ni8eXO32LaXtZcnpk9zt1lB4F/Llluj4dR1ITRosmXLFnc7qJXN1g/s5g+ZNfJOlt8O6Sg//rJ3UJegnHIuUGHPX+WgXc9YPahLXhjXl77yEphWK9lb1zI3bNjgnvbGG2/I2Wfz/cUFYUX032WdqshJmXiBR8vWl4K0w4GTmt3QUl4/hl7VjgdLkXOWHyizJz7vUtx8881y223Bj9akZd56663uda699lrP6HluBis5K/DII49I165d3fu/+OKL5bnnSnr6uxmslEsBMwiW6d8vBg4eKiPuvst1MgOe+t1Vv8M6ycxz9gW1nD1nrlzYrKlbnDlF4UMPPSQ9/xh1Vw9Y8+57csrJJ7nHBrny22+/yV577eUW2bt3b9EpGTTpFLNHH320va7/N/qBcdLnmsyNYtDpyqtk6qOT3OuZ/uYzogeYee4JAa0QqI6ENP0JVEf6ZNUeM8Dr76mcyo0W5BfI6tWr4p6qP9Yk06vamYc63nzTiQwBHivIHbeyZCIQQ2DSpEly1VVXeXK3bt0mhx1W0rvVk8lGTgmMvH+MDOh3rXvPmRjC0SncP2SZ7n/jrX/K2Wf+zTmEZQ4L+IdZ1vlS9Q3www8/PHCV77//3v4y8eWXX7plT328SK7o0M7dZiV3BVasXC11TisZHl4l5s2bJzraRCaSzqf5+uuvu0XffucwuenGQe42K7kr8O1330n7dh3kxT/mplaJkSNHik7tkol0zTXXiP7o4KSGDdvKh9/nO5ssc1zg+ErLZMGCkmmq9IVu/Z6RifTwww9HDFWq/2YffPDBmbgcZZYzgVtuuUVuv/12t9b5+fmyZEnJCxRuRgArb731VsRLEvULm8vyP/0+bUcAl6CIcixw9qbK8vKwZ907qFSpkv39JRN/q7Zv325/f/nmm2/c6+n0WjoHMQmBaL+1vPrqq6LfM0jZIWAGwQhU06PaearNYLT5jGi+meccH9SSQHWkpOlPoDrSJ2v2mL2p9abSmZ/aQXGGEXe2Yy0T7b09auQoa7i833uBlXaOeWys6y62vmiZc2jGOo79CCQiYM7f5Ry/ecunctSRf3Y2WeagwIPjxkvvXj08d/7iiy96evd5MgPY8M+brkW+/uY/5e9nEawOgLfcFjHruRekdcuLPfW/55575LrrrvPsC3JjwoQJosOJmmna9Cel/WVtzF2s55jAshUr5fQ6p3nu+sorrxSdNiZTSYfn02H6zHT3iPtk4PX9zV2s55jAV199LX2u7SvTix5371yHudV5LzOVvvrqK9GReLZu3epe4rzzr5AN39Z2t1nJTYG8A1dbUwo96t585cqV7RGb/vznzH2X0B949Ed2M/3nP//JyAts5jVYD7eAf1Qcra1CLAv5AAAtHElEQVROd3XeeedlrOL+edP1QgSrM8Zdbgo+e8tB8vJd3t6qo0ePlj59+mTsHh588EHRnnxmKioqEh25jJS7AvqiTr169TwATJvh4ciKDTMIRqCaQLXzUJvBaPMZ0Xwzzzk+qCWB6khJ059AdaRPVuwx53x2bkjf3tZhuVNN2qtZ37rV4RkSSaUFjf2B59LmmfYH3qPVId15uKOVyb7cFfjwww/tD676A6SZXpg9xzOMipnHevYKbN++Q4YNv0fuGV7oucnBgwdbUyt493kOCGjjrLPOkn/+85+e0h6e8Ih079rFs4+N3BAYfs9IGXTDAM/N6jCLOoRjppN+npgyZYrnMtqbdeiQgWJ+yPQcwEbWCkyZOk06d/L2SjnllFPsXlr7779/Ru9bh7jXv8Fm6t2nnwwceL38+YjgRxUwr8N6+ATmzl8g944YIQsXvuJWbt9997WD1LVrZzZorENEtmzZ0r2urpxzzsXywx51ZeuuSp79bGS/wGH7fS+VZLkVMC7pMah3rVO5tG1bMj1CJiR0WHH94X2H9d3dTM8//7zofMSk3BL4/PPP5YYbbpCpU6d6blyHQ9ahljOZ9IdefVFIeyyaqdl11jDg1Xeau1jPEYH6aw6Sl8Z5g9SXXXaZTJ8+PeMC2oN62rRpnusMGTJE7rqrZJheTyYbWS0QbQSSOnXq2N9f9t5776y+91y7OfP3CQLVBKqd598MRpvPiOabec7xQS0JVEdKmv4EqiN9yvUeDeZq75VY8znr8NoNz2sodevUlVNrnioNGzaMe78aTNa0cOECWWbN9bZzp/cLb9yTrUz9MbtO3brunNUa5J41c5aMH/9wRMBb69a5S2c55P8OkX79+7lF6/3s3LEz6jnuQcaKBqvvKryr1HszTmEVgZgC+t9UtDfNO3W+yv6xp3Gj82T//faLeT4Z5V9g9Zr35KU5L8uEh8dZf7c+8dxQly5dROc0Koukc2v+5S9/ibjURRe1kIutH8cbNzqfwEyETnbt+HDjv2XuvPnyrDXn36uvLvTcnA5PNn/+fKlQoYJnf6Y29MduHUnATAUFf5N/WD/AN23SRGrkHWdmsZ5lAp9//oW8bD2LL1iBj1kzI1+OeP/99+XEE08sk7vu27evaE8cMx100EHSb8AN1kgXF0jd02qbWaxnmcCuH3+U+a8stP8eTZo4PuLuyjI45//hwanM+edbc1b/Vk02ff//nF0ss1TgLwfskP323OTpRe3c6n333Sf9+5fNiA/6eaBx48bOpd1ls2bNpFOnTnLBBRdIpl8kci/Kym4RWL58ucyYMUO0J+kPP3iH29a5KfXvVVmkjz76SI499tiIS9Vvcq4ccGpl+fiI72RLxV8j8tmRPQInfF9BDt28v3z+zn/knbeXem7s/PPPt7+/eHZmcMM/R7teSudI7dGjh7Ru3VqqV6+ewatT9O4W2LZtm7zwwgv27zf+F2i0bhs2bJDjjuM77O5up6CvbwbBCFQTqHaeLzMYbT4jmm/mOccHtfR/X1y7dq2ccMIJdvGDBg2S4cOHu5f65ttv5UBraoxMpI3//kiOq17y+cz8nvLGG29I/fr13cs+PfNZuaRVC3c76BXTn0B10Lq7uTx/L+V41SltqG09d7+KFeMVkVCeBsN1fmxNifSK1uP0RycnJTrcuHO8LhO5N/N41hGIJ/Daa6+Jzveuw+ZFSxdc0FwOOfQw2btCOXvzsjja3bBPBfSDybfffiPrPlgr7767JiqKDsetc16WZdJgtb517u9Z7dShQYOGcvgRR8i+AfztdsoMepnJD31B1zUU5VnP4q5du+SpJ2P3NGjVqpXdk3rPPfcs0yp36NBBdNi8WKlN23ay/wEHxMre7ft5FpNsAutZ/Omnn+S/1r+F/hclzJI2btwY9Udp85ig12+88caYI1toO19yaRvRFyLNL0G0f+KtUCzh+8Dwyy+/yJdWT8GXX/79O0a0u9Fgnf4IXpZJX17r2rVrzEuedVYT2Wcf6weHPYy/16Xx7hGzuNzLsP57Dl/Sv43fyVtvzY1ZtfHjx0u3bt1i5mciY9GiRfb3F3NIevM6Olz9EdZnxn322cfcHap1/k4n1xzq9fXXX8edd1p/BNVhwMsyffzxx/b3l6VLvUFKpw75Z9WTSgcfJHvtY/xddDLDsgzjn56w2MSoxy//+0UWvVgywon/sDZt2siTTz7p353xbb2uvsQRK+m0MvrCY1gTfxeTaxn10u/S/ikx/KV88sknUq1aNf9utrNAwPz+R6CaQLXzSJt/S81nRPPNPOf4oJYEqiMlTf9cCFTrA0ZCAAEE0hL49NNPi623bPUrKv/LcYM//elPxZMmTUrreUr3ZCtIznOY48+h87fojjvuSPdxSuv8e++9t3ivvfbieeR5LLZ6oxRbgey0nqd0TraG1C225n3lWeRZLG7evHmx9cJEOo9TWue+9dZbxWeccQbPIs9i8WmnnVZs/Tie1vOUzsmbN28utl5m41nkWSyuWrVq8eOPP57O45T2udYcwTyLPIv2M2C9LJH285ROAdbUMTyLPIv2M9CrV6/i3377LZ3HiXNDLuD8bqJLK1Cd0dreMOhGz98W82LWqDYx88zjglh/8aWXPdeaO3euW+y4ceM8eWvefc/NC3rl119/9VxLPwc4yXo5xJM3+oFxTlZGlh07dfFcz7yI+YzoeiaTNdKNpx5Wj2r3cgMHDvTkWT2q3bygV6zRGj3XsnpUu5d4/fXXPXlWj2o3LxMrpr8VqPZcwszr03eAJy/ojVtuu9Nz39aIREFfwi4vs09YRqpMoQggEFYBaw7CYmsocM8fL/MPJ+vZG8g/9NBDi615rIq3b98eisfTGq6q2Orpz7OYg1+yrTlX7aCgNTxZKJ5Fa1qP4muvvba4UqVKPI85+Dxac6MXW8NDheJZ/PHHH4tvv/324qOOOopnMQefRWsKhOKnn346FM+iVsKa/7C4Zs2aPIs5+CxavZWLrR4ToXkW+f6Svd9PSvvuqS9w3XrrrcXff/99KJ7HxYsXF1vztPN3MQf/Lu63337FGhT897//HYpn0RqWvviaa64ptqZB4HnMwefR6llf/Pbbb4fiWaQSmRUw/50ccP2gjF6sb//rPX9PzItdfPHFMfPM44JYn/ns855rvfLKK26xEyZM8OS9s3yFmxf0ynfWZw/TXzvcOMkaLdKTd8999ztZGVm2a3+553rmRfzf18y8oNc1IGyamL/p6e/NZt4XX3wZ9OXd8t5b+4HnWvffX+JvjeDpyZs2/Un3vEysmPfcqFEjzyXMvJ69+njygt4YMvQWz33/73//C/oSdnl76P9bN0ZCAAEEAhPQ+Wt0SEmd20bXP7eGn9RhzUjZI6BDIuqc0KeeeqroEGA6p1UY01dffSVz5swR64cfWbdunfz3v/+1l2GsK3VKTeCkk04S64dG0eWZZ54pOsdkxRAO7269MWvPE2v1JpT33ntPrJEoROcqJmWPQI0aNcTqlSV5eXlSUFAgTaz5yHU7jGnBggVivQ0sq1evFutlClmzJvo0DmGsO3UqXUDnPD3kkEPsuQRPP/10e4hvfT7DmN555x17+qMVK1aIzteqc8eSskugTp068te//lWsHtSiQ9bl5+eH8gY//PBD+/uLPpO6rt9fdLoGUvYI1KpVy/3+ovMLWi9Yh/LmvvjiC2vqhpc931/Wr18fyrpSqdQE9Lu0+f3FGu0klFMN6LQ2s2fPtqfW0u8vn332Gd9fUmvy0J7lfH/RZb169ezvL1YnhNDWl4oFK6DzjjufdS5odqG8NPuFYC9glNa0aTOZO3eOvUe/L+vvc06yXuyXMWPGOJuydt16OSHveHc7yJVbb79LbrtlqFuk1kPro2nevHn2fwNO5sMTHpHuXbs4m4EuX1n4qjQ671y3zFGjRknfvn3dbXPI5yu7dJXJj0xw84Jc0bCgOU2eTg2lv+c7qUWLFvL88887m2L1pBXr5Sp3O8gV//QT5rV0qiBrlDr3ci/MniMXNsvM79CPPjZNrux4uXutWbNmScuWLe1tnXJSfwt30sDBQ+XuwjuczUCXn2zaLH89uppb5lVXXSUTJ050t/W71cqVK93tTIZ4W7e+VGbNesa+ln5+0d8zM5EIVGdClTIRQAABBBBAAAEEEEAAAQQQQAABBBBAAAEEEEAAgZAJdO3aVR555BG3Vo8XPSEd2rV1t4NaeWzadOl4eXu3uO7du4s1upK7/cwzz8ill17qbve/bqDcd8/d7nZQK+vWfygn1PAGwM3g3nfffScHHnig53I7v/lGDvLt8xyQ4sblV3SSaY9Pdc9etmyZ6MudTmrcuLEnYDzvlYWewLZzXLrLe0eOlusHlATI77zzTrnxxhvdYkeOHCkDBgxwt4cOHSrWFHvudlAr1ih0oi8ROunss88W3eckaxhwu3OKs61Ls+3M/ems//LLL1KhQgVPEfryqr4E7iTtJKP1cdLKVWukVs1TnM3Aljpv/PBhd7rlWdPUSIcOHdzt/v37i77g4KTxEydLt6uudDYDW854Zpa0ubS1W541eqlMmzbN3Q50xWpUEgIIIIAAAggggAACCCCAAAIIIIAAAggggAACCCCAQJYL6BRVVpDJ87+ghzK2gtSe8vV6VlA2QtZfD50TN8ik99WkyQWeuowYMSLiElavVc8xl7XrUDx/waKI41Ld8dHHnxT3vra/5xrWCFgRxU2fHulm9SKOOC6dHWMe9M7JrW3wn//8x1OkFaT11FWPKSws9ByT7obOE+5v/6KioohireC95zgd7trqfR9xXKo73nzr7WL/fN3dunWLKO6ee+7x1KNBg4bFb7z1z4jj0tlx+53DPNdQH3+yelNHHPPI5Ef9h6W1/cRTT0dcQ+fpzlSiR7XV0iQEEEAAAQQQQAABBBBAAAEEEEAAAQQQQAABBBBAIBcEdDjhSZMmeW61WfOL5MSTTpa9997bsz+ZjZ9//lnWvv+ezHnpRc9pOsy3NeevZ59uPPbYY9KxY8eI/b379JNKafZo3rJ5k6f3snMRK9jmrLrLzZs3S7Vq1dxtZ6VT56vk8MOPcDZTWn799dcy/qEHI87VaTN1uiZ/0mntdCpDM7VqdYlUPz5P9tprL3N3Uuu7du2S+0feE3HO8OHD5YYbbojYf/fdd8vgwYMj9nfq1EkqVaoUsT/RHTo93rvvvis6PZ6ZtDe5Fbw2d9nrOqXj3/72t4j93Xr0koMPPjhifzI7Pv98m0yaOD7iFCtwb7X74RH7tfe7Tl1lpraXtZdqR//VM5S6mZ/I+nfffisPjCnpJe2cYwXupV27ds6mu9Th4kePHu1u60rjxk3l5FNrpjWliP73u/6Dtdb0hSXDvmvZ/uHHdV+QiUB1kJqUhQACCCCAAAIIIIAAAggggAACCCCAAAIIIIAAAgiEWECDtTov8cKFCzNey0aNGtnzQMe6kAZDNShaFkmDjLVr1456KZ2TWedmLos0btw4ufrqq6Neatu2bVK1atWoeUHvvOKKK2Tq1JKhyP3ld+nSRSZPnuzfnZFtnf9Y50GOliZMmCA6dHxZpJkzZ0qrVq2iXmrNmjVSs2bNqHlB79SXB/Qlgljp4osvlhdeyNz88uZ19eUCc05zMy+IdQLVQShSBgIIIIAAAggggAACCCCAAAIIIIAAAggggAACCCBQTgQ0WK3zVft7VgdZfS1fg4ylJZ1zV+fezVQ688wzRYPDp556atxLLFq0SHr37u2ZizjuCSlk6jy/Ot9vvPTVV1+JNfy0zJo1K95haeUNHDgwoRcEbrrpJtE5rDOVmjdvbs9dHitI7Vx3xowZ0qZNG2cz8GX16tVlzJgx0rRp07hlr1+/Xnr27Cn6rGQqWcPTy/XXX19q8fqsPvhgZG/9Uk9M8AAd7WDixIkR83cneHrChxGoTpiKAxFAAAEEEEAAAQQQQAABBBBAAAEEEEAAAQQQQACB7BGw5qy2h+B+9dVX5aOPPkr7xo499lhp0KCBPaT3WWedlXB5W7ZskfHjx8vLL78cMbxywoX4DrzoootEe0onm7QeGiSeP39+sqdGPV4D5VoXDXAmM2y2DgFuzVstb775pujw5Ommk046Sc477zzp3LlzqUF781rvv/++/UKDeuh6ukmD0mqiw1prz+BEkw5fPnbsWLtN/UOHJ1qG/7hzzz1XWrZsKddcc40/q9Tt1q1bB/Yygfb01yC5vtxx9NFHl3pt54ClS5fKo48+agfON2zY4OxOeXnMMcdI/fr1RXvbn3POOSmXk8yJBKqT0eJYBBBAAAEEEEAAAQQQQAABBBBAAAEEEEAAAQQQQCBLBX777beU7yzI4YHTqccee+wh+j9SZgTSaZuwPCNB1iMzyrlTKoHq3Glr7hQBBBBAAAEEEEAAAQQQQAABBBBAAAEEEEAAAQQQQAABBBAIhQCB6lA0A5VAAAEEEEAAAQQQQAABBBBAAAEEEEAAAQQQQAABBBBAAAEEckeAQHXutDV3igACCCCAAAIIIIAAAggggAACCCCAAAIIIIAAAggggAACCIRCgEB1KJqBSiCAAAIIIIAAAggggAACCCCAAAIIIIAAAggggAACCCCAAAK5I0CgOnfamjtFAAEEEEAAAQQQQAABBBBAAAEEEEAAAQQQQAABBBBAAAEEQiFAoDoUzUAlEEAAAQQQQAABBBBAAAEEEEAAAQQQQAABBBBAAAEEEEAAgdwRIFCdO23NnSKAAAIIIIAAAggggAACCCCAAAIIIIAAAggggAACCCCAAAKhECBQHYpmoBIIIIAAAggggAACCCCAAAIIIIAAAggggAACCCCAAAIIIIBA7ggQqM6dtuZOEUAAAQQQQAABBBBAAAEEEEAAAQQQQAABBBBAAAEEEEAAgVAIEKgORTNQCQQQQAABBBBAAAEEEEAAAQQQQAABBBBAAAEEEEAAAQQQQCB3BAhU505bc6cIIIAAAggggAACCCCAAAIIIIAAAggggAACCCCAAAIIIIBAKAQIVIeiGagEAggggAACCCCAAAIIIIAAAggggAACCCCAAAIIIIAAAgggkDsCBKpzp625UwQQQAABBBBAAAEEEEAAAQQQQAABBBBAAAEEEEAAAQQQQCAUAgSqQ9EMVAIBBBBAAAEEEEAAAQQQQAABBBBAAAEEEEAAAQQQQAABBBDIHQEC1bnT1twpAggggAACCCCAAAIIIIAAAggggAACCCCAAAIIIIAAAgggEAoBAtWhaAYqgQACCCCAAAIIIIAAAggggAACCCCAAAIIIIAAAggggAACCOSOAIHq3Glr7hQBBBBAAAEEEEAAAQQQQAABBBBAAAEEEEAAAQQQQAABBBAIhQCB6lA0A5VAAAEEEEAAAQQQQAABBBBAAAEEEEAAAQQQQAABBBBAAAEEckeAQHXutDV3igACCCCAAAIIIIAAAggggAACCCCAAAIIIIAAAggggAACCIRCgEB1KJqBSiCAAAIIIIAAAggggAACCCCAAAIIIIAAAggggAACCCCAAAK5I0CgOnfamjtFAAEEEEAAAQQQQAABBBBAAAEEEEAAAQQQQAABBBBAAIEUBDZt2iTVqlVL4UzvKTt37JDKVap4d+boFoHqHG14bhsBBBBAAAEEEEAAAQQQQAABBBBAAAEEEEAAAQQQQAABBEoXmDx5svTq2VPGjhsnnTt3Lv2EGEdoGcuXr5B58+YSrLaMCFTHeFDYjQACCCCAAAIIIIAAAggggAACCCCAAAIIIIAAAggggAACuS2gPalr5OW5CKkGqzVIrQFvTa1at5aioiK3zFxdIVCdqy3PfSOAAAIIIIAAAggggAACCCCAAAIIIIAAAggggAACWSTg9HotLBwm/fr3y6I741Z2t4DzbDn1SDZYbQapa9asRY/qPyAJVDtPFEsEEEAAAQQQQAABBBBAAAEEEEAAAQQQQAABBBBAAIFyK1CQXyCrV6+y5xFet359ub0PKh6cgPaGXrZsmTXc9nLR9eXW+tKlS91ht3W+6MmTp8j48Q/b+RpEfmrGU1Hnok41WJ1okDrIugYnmNmSCFRn1pfSEUAAAQQQQAABBBBAAAEEEEAAAQQQQAABBBBAAAEEMiywatUqqVdQ4F4l2R6v7omsJCywcOFCad6sWcLHxzuwWrVqUr16dTuAXLdOXWlwbgOpVatWvFPi5mnd2rdrLzt37vAcp4HoJUuX2Pv0mWnbpo0doDYPMo8x9+t6ssHqRILUmaqrv+5h3CZQHcZWoU4IIIAAAggggAACCCCAAAIIIIAAAggggAACCCCAAAIJC5gBQT2pYcOGMvullxI+nwOTFwgyUB3t6hq87t69h3TufKXbAzracbH2aQ/ljRs3eoLpzrDwTnC44XkNrfI72wHoWTNnukXt+vFHd92/kmiw2nwmSxvuO1N19dc9bNsEqsPWItQHAQQQQAABBBBAAAEEEEAAAQQQQAABBBBAAAEEEEAgYQEdvjkvr0ZE71kd/luDnaTMCJiBav9LAWtWr5EhQwbbF/bnRauNHr9x44d2wNifr22oPeT15YNU0n4VK7qnOUPC55+RLwMHDnTnMjeDz5UrV5Gt27a650RbMY/XfH8P/mSC1Gb5mairWX7Y1glUh61FqA8CCCCAAAIIIIAAAggggAACCCCAAAIIIIAAAggggEDCAv6goXOi9pTVACIpMwJmoNrfAzleXrzaOIFabTctw+zl7A8GxyvHyTProQFvnZ86Pz9fWrVuLYWFhc5hVlB9iIwaOdLeTrQ3vv+5c+qXapA6k3V1bzRkKwSqQ9YgVAcBBBBAAAEEEEAAAQQQQAABBBBAAAEEEEAAAQQQQCBxgYL8Alm9elXECdozdv36dSkNGx1RGDsiBMzAatCBau2FrQHjmdZw3L169nJ7yy9esiSpuavNAHS//v3t+ai1B76/l7fOta33o8kZHjzihqPs8Aertc5OOaUN9+0vLtN19V8vDNsEqsPQCtQBAQQQQAABBBBAAAEEEEAAAQQQQAABBBBAAAEEEEAgaYFVq1ZJvYKCmOclE3SMWQgZUQXKIlCtF9Y2btK4iR2s1uDvkqVLotYn2k7zJQbtYa911l7VlatU8Rxe9bCqbjA82SHj/cFqLTjZILWeUxZ11euEKRGoDlNrUBcEEEAAAQQQQAABBBBAAAEEEEAAAQQQQAABBBBAAIGEBcxhlqOdpMM9O/MSR8tnX+oCZRWo1hqOGjnKM+d1IvNVa8/pqlWrujeoPeyLphdFzHVt3keqz4vZI1svmOwLEmVZVxckBCsEqkPQCFQBAQQQQAABBBBAAAEEEEAAAQQQQAABBBBAAAEEEEAgOQEN7uXl1XB7wsY62xlGOlZ+GPdv2rRJNm7cKGtWr0m7epWrVBbtTRx0MgO8mRr626xzjbw8e+huHcLbnF/aPMZc9/d0jjVnuTnkdqxjzHL967FelnDmrPYfH227rOoa7dq7cx+B6t2pz7URQAABBBBAAAEEEEAAAQQQQAABBBBAAAEEEEAAAQRSEvAH92IV0qp1aykqKoqVHZr9GnifPHmKPPXUU1Hn3E61otr72D8nc6plmeeVdaDaCSgnej/t27eXWdYc15rizVduDrmd7EsNZpBah/tu06aN2/Nbr5tosLos6qr1CVsiUB22FqE+CCCAAAIIIIAAAggggAACCCCAAAIIIIAAAggggAACpQo4AUYNQu7cuSPu8cnOOxy3sIAznQD18OHDS72PVC6daGA32bLLOlA90wo6d7CCz5r8Pbij1d2cdzpWL2z/kNtbt26NmL86Wtm6zx+knjdvrn2u/wWKRILVma5rrHvY3fsJVO/uFuD6CCCAAAIIIIAAAggggAACCCCAAAIIIIAAAggggAACSQmsWrVK6hUU2D1lC4cV2kHDeAUkO2dwvLKCzNP76NG9R6A9qP31y5ZAdbzAuP+enefD2R/rRQUz+J2MU6wgtXO9ZILVma6rU6cwLglUh7FVqBMCCCCAAAIIIIAAAggggAACCCCAAAIIIIAAAggggEBMASdQ6PSUdeYvjnWC9rreum1rrOzdsl8DlE0aN4nai1rnSj7XGrK7bt26Uq1atd1Sv9IuGi9wHC8vXrn7VaxoZ0cbgjuZMkeNHOUOwa1Dci9ZuiTqZc0ht82XGXT/uLFjo/audp49LVDLdnpS+y+QaLA6k3X11yls2wSqw9Yi1AcBBBBAAAEEEEAAAQQQQAABBBBAAAEEEEAAAQQQQCCmgA7XnJdXww7wLl6yRGrVqiVmsC/WiYkMwRzr3KD3xwpSa4C6sLAwaoA06DqkW168wHG8vHjXjReodtpYA/faQzpeat6smWgdNJkBaP855pDbzrOkgWhN+rz4U6JBaue8RILVmaqrU4cwLwlUh7l1qBsCCCCAAAIIIIAAAggggAACCCCAAAIIIIAAAggggIBHwAn+mT1lN23aJNqrOl4yj493XKbzNNCen58vWmcnaY/vsePGSuvWrZ1doV/GC0bHy4t3Y/EC1U7v51aWUVFRUcxi/PNOxxr223+czk89ZMgQu120R7c/JRukds53nldn23xhwl+HoOrqXCvsSwLVYW8h6ocAAggggAACCCCAAAIIIIAAAggggAACCCCAAAIIIOAKFOQX2HM6+3vKOoFM98AoK06v2ShZZbZLg6GjRo50r6dB6rnz5to9w92d5WAlXjA6Xl68W4sVqDZfRDADvdHKMuedjtf72h8k1rJiDeWdapDaqV+sYHUm6upcszwsCVSXh1aijggggAACCCCAAAIIIIAAAggggAACCCCAAAIIIIAAAqJDZtcrKLAltAds5SpVXBUz6Ofu9K3o0NrRhnT2HZaxTTPg6lwk2nzMTl6Yl/GC0fHy4t1TrEC18xKCBvXXr1/naXd/eWZQ2ZnD3H+Ms60B5CGDh9ibnbt0loE33BBRtrZZ/hn59lDzsQLZTnnxlmaw2nkOg65rvOuHMY9AdRhbhTohgAACCCCAAAIIIIAAAggggAACCCCAAAIIIIAAAghECDiBvVjDP+vw3+aQ2hEFWDv8Ae5ox2Rqn1N/p/zSAqnOcWFcxgtGx8uLdy/RAtWmmb8XfbyygszTFySG3nijPeS4+XJEstfQYPXyZct268sSydY5k8cTqM6kLmUjgAACCCCAAAIIIIAAAggggAACCCCAAAIIIIAAAggEIqBDNefl1bB7tk6z5iiONp/zqJGjrHmGB8e93u4Kdmqlqh5W1a6/rifSO1iPC2uKF4yOlxfvfsxAdd06dew5ozW4q8nphRzvfPLKlwCB6vLVXtQWAQQQQAABBBBAAAEEEEAAAQQQQAABBBBAAAEEEMhJAWfoZA3wbt22NapBtHmH/QfGm7fYf2yQ22bwVsstz72ptf7m/ez68Ufd5aZ4ee5BvhXzHA1K67bTO163CwsLI4bl9hXBZjkTIFBdzhqM6iKAAAIIIIAAAggggAACCCCAAAIIIIAAAggggAACuShQkF8gq1evKjXAaw4VHcspVo/sWMcHsd/f23vxkiVSq1atIIreLWWYgeV4gep0KqcvFdxlBaij9Z5Pp1zODYcAgepwtAO1QAABBBBAAAEEEEAAAQQQQAABBBBAAAEEEEAAAQQQiCGgcwTXKyiwc9etXy8awIyVzABqrGMaNmwos196KVZ2Rva3b99eZs2c6ZatQ5CXRapcpbI9bHbQ1zKdgw5Ua/s++dRT5TqQH7R3NpZHoDobW5V7QgABBBBAAAEEEEAAAQQQQAABBBBAAAEEEEAAAQSySMDpJV2zZi1ZsnRJqXdWIy/PHTY61sGlBbxjnZfq/ubNmtnDWad6fqrnZSoon2ig2v9CQPt27e15unUI96LpRe5tVa9e3Qrkz3LnGB87blxGAuzuBVnZ7QIEqnd7E1ABBBBAAAEEEEAAAQQQQAABBBBAAAEEEEAAAQQQQACBWAI673ReXg07uJlo8NI/zHa0snXeYy2vrFKuBqrj9bbWXuX9+vfzNIHT81wD2XPnzaVXtUcnuzYIVGdXe3I3CCCAAAIIIIAAAggggAACCCCAAAIIIIAAAggggEBWCUyePFm0R3XQSQOh69evk8pVqgRddNTyCFSXsAwZMkRGjRxp79Ae19rr20n6YkLjxk3s+ci1B/08K1hdVm3k1IFl2QgQqC4bZ66CAAIIIIAAAggggAACCCCAAAIIIIAAAggggAACCCCQgkBBfoEdtEzh1FJPSbSHdqkFJXCAGZzVw/09jRMoIlSHJDr0d7T7NIPROh/10qVLPcFonZO8iRWs3rlzh7Rq3VqKikqGCA8VApVJS4BAdVp8nIwAAggggAACCCCAAAIIIIAAAggggAACCCCAAAIIIJApAQ1Y1isosItfvGRJUsNAm+fGqp8GSXWu6rJI/uHIp1nB19ZWELa8pnQC1XrPZvtEG4bd7EkfbYjw8upGvUsECFSXWLCGAAIIIIAAAggggAACCCCAAAIIIIAAAggggAACCCAQIgEd8lsDlqkGlBPpje0fejpTt28GZvUa0YKzmbp2JspNN1CtdTKD99EC907767HJvqig55DCLUCgOtztQ+0QQAABBBBAAAEEEEAAAQQQQAABBBBAAAEEEEAAgZwU0OGh8/Jq2MM/p9qj1uyVGwuxLAPGNfLyZNOmTW5VtDe3BuHLYwoiUK337bxMoHOGL/3XUo+HOUR4Wc8pXh7bpLzVmUB1eWsx6osAAggggAACCCCAAAIIIIAAAggggAACCCCAAAII5ICAGWRONaCrgc6qVauWqpVq+aUW7DvA7EGsWQ0bNhTt0V0eU1CBag3c55+Rb7+QEM1De6I781VHyy+PdtT5dwEC1TwJCCCAAAIIIIAAAggggAACCCCAAAIIIIAAAggggAACoRNwetq2suZxLrLmc041tW/fXmbNnBn39FR7bMctNEqm2UvcyS6razvXC2oZVKBa62MG8KN5zLTar4PVjpr69e8vhYWF9jr/V74FCFSX7/aj9ggggAACCCCAAAIIIIAAAggggAACCCCAAAIIIIBA1gmYQdCx48bZ8zmnepNmz+xYZZTlsNJmUNapT7r36JRTlkuzjXb9+KPn0vHyPAcaG82bNRM9T1O0+aiHDBliBbRH2vnR5rO2M/i/ciVAoLpcNReVRQABBBBAAAEEEEAAAQQQQAABBBBAAAEEEEAAAQSyX8AMWqY7LHeiw39H68mbKWnz/pxrlLdgdbxgdLw85379S7O3ec2atWTevLlSuUoVz2FOL/to81l7DmSjXAgQqC4XzUQlEUAAAQQQQAABBBBAAAEEEEAAAQQQQAABBBBAAIHcEDCDnHrH/t66qSjsV7FiqaeVZa9qDcrm5+eLzs9sJh3mXIe1rlatmrk7lOtmO/nbKF5evJspbYhvcz7rWMHseOWTFy4BAtXhag9qgwACCCCAAAIIIIAAAggggAACCCCAAAIIIIAAAgjkrMCqVaukSeMmsnPnDtcg3Z7OWma9ggK3vHgr6c6HHa9sf57Wq0f3HrJ69Sp/lj3U+bkNG0rdunVDG7Q2g9GzX3rJcw9rVq+RIUMG2/v8QWzPgVE2evXsKTpcuybtZe4P2ut1nSHAO3fubB8TpRh2lQMBAtXloJGoIgIIIIAAAggggAACCCCAAAIIIIAAAggggAACCCCQzQIatJ0xY4ZMnjTZE6R27ll7z7Zp08bebNW6VUTw0jlOl9pbeeasWdZyp2zc+KHMnGmtG4Fv89ho63qtbt27SetWrSKGno52fDr7tK7t27d352ZOp6xY5za0At7+QHKsY5PZbwaq452XbKA6Vm/zWNcob0Omx7qPXNxPoDoXW517RgABBBBAAAEEEEAAAQQQQAABBBBAAAEEEEAAAQRCJDBq5Ci3B25p1Sqth3WiAdTSrqPBXQ3ylkXS+x8+fHhSAfVE61XeAtV6X8m24eIlS6RWrVqJknBcSAQIVIekIagGAggggAACCCCAAAIIIIAAAggggAACCCCAAAIIIIBA7go4PcEnjJ8QdTjwVGUyFahOtT6ch4AjQKDakWCJAAIIIIAAAggggAACCCCAAAIIIIAAAggggAACCCCAQAgENGi9bPly0bme002Vq1S257xOtxzORyBoAQLVQYtSHgIIIIAAAggggAACCCCAAAIIIIAAAggggAACCCCAAAIIIIBAXAEC1XF5yEQAAQQQQAABBBBAAAEEEEAAAQQQQAABBBBAAAEEEEAAAQQQCFqAQHXQopSHAAIIIIAAAggggAACCCCAAAIIIIAAAggggAACCCCAAAIIIBBXgEB1XB4yEUAAAQQQQAABBBBAAAEEEEAAAQQQQAABBBBAAAEEEEAAAQSCFiBQHbQo5SGAAAIIIIAAAggggAACCCCAAAIIIIAAAggggAACCCCAAAIIxBUgUB2Xh0wEEEAAAQQQQAABBBBAAAEEEEAAAQQQQAABBBBAAAEEEEAAgaAFCFQHLUp5CCCAAAIIIIAAAggggAACCCCAAAIIIIAAAggggAACCCCAAAJxBQhUx+UhEwEEEEAAAQQQQAABBBBAAAEEEEAAAQQQQAABBBBAAAEEEEAgaAEC1UGLUh4CCCCAAAIIIIAAAggggAACCCCAAAIIIIAAAggggAACCCCAQFwBAtVxechEAAEEEEAAAQQQQAABBBBAAAEEEEAAAQQQQAABBBBAAAEEEAhagEB10KKUhwACCCCAAAIIIIAAAggggAACCCCAAAIIIIAAAggggAACCCAQV4BAdVweMhFAAAEEEEAAAQQQQAABBBBAAAEEEEAAAQQQQAABBBBAAAEEghYgUB20KOUhgAACCCCAAAIIIIAAAggggAACCCCAAAIIIIAAAggggAACCMQVIFAdl4dMBBBAAAEEEEAAAQQQQAABBBBAAAEEEEAAAQQQQAABBBBAAIGgBQhUBy1KeQgggAACCCCAAAIIIIAAAggggAACCCCAAAIIIIAAAggggAACcQUIVMflIRMBBBBAAAEEEEAAAQQQQAABBBBAAAEEEEAAAQQQQAABBBBAIGgBAtVBi1IeAggggAACCCCAAAIIIIAAAggggAACCCCAAAIIIIAAAggggEBcAQLVcXnIRAABBBBAAAEEEEAAAQQQQAABBBBAAAEEEEAAAQQQQAABBBAIWoBAddCilIcAAggggAACCCCAAAIIIIAAAggggAACCCCAAAIIIIAAAgggEFeAQHVcHjIRQAABBBBAAAEEEEAAAQQQQAABBBBAAAEEEEAAAQQQQAABBIIWIFAdtCjlIYAAAggggAACCCCAAAIIIIAAAggggAACCCCAAAIIIIAAAgjEFSBQHZeHTAQQQAABBBBAAAEEEEAAAQQQQAABBBBAAAEEEEAAAQQQQACBoAUIVActSnkIIIAAAggggAACCCCAAAIIIIAAAggggAACCCCAAAIIIIAAAnEF/j94NB0cVs4O4wAAAABJRU5ErkJggg==;" vertex="1" parent="1">
          <mxGeometry x="160" y="350" width="520" height="113" as="geometry" />
        </mxCell>
        <mxCell id="4aMOz4v5QveASDhosOLI-2" value="" style="rounded=0;whiteSpace=wrap;html=1;strokeColor=none;" vertex="1" parent="1">
          <mxGeometry x="175" y="415" width="10" height="40" as="geometry" />
        </mxCell>
        <mxCell id="rfoxh8sL7PM3ER87yD67-5" value="&lt;div&gt;$$Au$$&lt;/div&gt;" style="text;html=1;align=center;verticalAlign=middle;resizable=0;points=[];autosize=1;strokeColor=none;fillColor=none;labelBackgroundColor=default;" parent="1" vertex="1">
          <mxGeometry x="160" y="420" width="60" height="30" as="geometry" />
        </mxCell>
        <mxCell id="rfoxh8sL7PM3ER87yD67-7" value="$$A \in R^{L \times D}$$" style="text;html=1;align=center;verticalAlign=middle;whiteSpace=wrap;rounded=0;labelBackgroundColor=default;" parent="1" vertex="1">
          <mxGeometry x="610" y="445" width="60" height="30" as="geometry" />
        </mxCell>
        <mxCell id="4aMOz4v5QveASDhosOLI-3" value="" style="rounded=0;whiteSpace=wrap;html=1;strokeColor=none;" vertex="1" parent="1">
          <mxGeometry x="160" y="370" width="10" height="45" as="geometry" />
        </mxCell>
        <mxCell id="rfoxh8sL7PM3ER87yD67-2" value="$$u \in R^{L \times D}$$" style="text;html=1;align=center;verticalAlign=middle;resizable=0;points=[];autosize=1;strokeColor=none;fillColor=none;labelBackgroundColor=default;labelBorderColor=none;" parent="1" vertex="1">
          <mxGeometry x="120" y="370" width="150" height="30" as="geometry" />
        </mxCell>
      </root>
    </mxGraphModel>
  </diagram>
</mxfile>
